<svg width="78" height="84" viewBox="0 0 78 84" fill="none" xmlns="http://www.w3.org/2000/svg">
<path d="M0.390763 15.669C0.860571 13.1524 1.77286 10.8813 3.12764 8.85551C4.48242 6.82973 6.13037 5.15166 8.07148 3.8213C10.0185 2.45947 12.181 1.51226 14.5592 0.979644C16.9688 0.452905 19.4318 0.42444 21.9483 0.894249C24.4649 1.36406 26.736 2.27635 28.7618 3.63113C30.7876 4.98591 32.4627 6.64958 33.7872 8.62216C35.149 10.5691 36.0962 12.7317 36.6288 15.1098C37.1614 17.488 37.1928 19.9353 36.723 22.4518C36.2532 24.9683 35.338 27.2552 33.9773 29.3125C32.6226 31.3382 30.9589 33.0134 28.9863 34.3379C27.0452 35.6682 24.8856 36.5997 22.5075 37.1323C20.1293 37.6649 17.682 37.6963 15.1655 37.2265C12.6489 36.7567 10.3621 35.8415 8.30483 34.4808C6.27906 33.1261 4.60099 31.4781 3.27062 29.537C1.94026 27.5959 1.00877 25.4363 0.476159 23.0581C-0.050581 20.6485 -0.0790465 18.1855 0.390763 15.669ZM52.0968 10.722C52.4542 10.2027 52.9069 9.7827 53.4551 9.46186C54.0348 9.14689 54.7178 9.06281 55.5042 9.20962L65.7433 11.1212C66.3724 11.2386 66.8994 11.4672 67.3243 11.8069C67.7806 12.1526 67.9647 12.5613 67.8767 13.0331C67.8121 13.3792 67.7424 13.5778 67.6678 13.6289L25.5409 73.9788C25.0481 74.7006 24.615 75.1895 24.2417 75.4453C23.8743 75.6697 23.3446 75.7173 22.6525 75.5881L11.3754 73.4827C10.0542 73.2361 9.46997 72.7038 9.62266 71.886L9.75226 71.7148L10.0171 71.0807L52.0968 10.722ZM13.0363 18.0297C12.7368 19.634 13.0092 21.0521 13.8534 22.284C14.6977 23.5158 15.922 24.2815 17.5263 24.581C18.2812 24.7219 19.0154 24.7125 19.7289 24.5527C20.4738 24.3988 21.1262 24.13 21.6861 23.7462C22.2834 23.3369 22.7852 22.8284 23.1917 22.2206C23.604 21.5814 23.8835 20.8686 24.0303 20.0822C24.1772 19.2958 24.1707 18.5459 24.0109 17.8324C23.8511 17.119 23.5636 16.4794 23.1484 15.9136C22.7705 15.3222 22.262 14.8203 21.6228 14.408C21.015 14.0016 20.3337 13.7279 19.5787 13.587C18.7609 13.4343 17.9952 13.4378 17.2818 13.5976C16.5742 13.7259 15.9218 13.9948 15.3245 14.4041C14.7331 14.782 14.2313 15.2905 13.819 15.9297C13.444 16.5433 13.1831 17.2433 13.0363 18.0297ZM40.731 61.1404C41.2008 58.6239 42.1131 56.3528 43.4679 54.327C44.8227 52.3012 46.4706 50.6231 48.4117 49.2928C50.3587 47.931 52.5213 46.9837 54.8994 46.4511C57.309 45.9244 59.7721 45.8959 62.2886 46.3657C64.8051 46.8355 67.0763 47.7478 69.102 49.1026C71.1278 50.4574 72.8029 52.1211 74.1274 54.0936C75.4893 56.0406 76.4365 58.2032 76.9691 60.5813C77.5017 62.9595 77.5331 65.4068 77.0633 67.9233C76.5935 70.4398 75.6782 72.7267 74.3176 74.7839C72.9628 76.8097 71.2991 78.4849 69.3266 79.8093C67.3855 81.1397 65.2258 82.0712 62.8477 82.6038C60.4696 83.1364 58.0222 83.1678 55.5057 82.698C52.9892 82.2282 50.7023 81.313 48.6451 79.9523C46.6193 78.5975 44.9412 76.9496 43.6109 75.0085C42.2805 73.0674 41.349 70.9077 40.8164 68.5296C40.2897 66.12 40.2612 63.657 40.731 61.1404ZM53.3765 63.5012C53.077 65.1055 53.3494 66.5236 54.1937 67.7554C55.0379 68.9873 56.2622 69.753 57.8665 70.0525C58.6215 70.1934 59.3557 70.184 60.0691 70.0242C60.814 69.8703 61.4664 69.6015 62.0264 69.2177C62.6236 68.8084 63.1255 68.2998 63.5319 67.6921C63.9442 67.0529 64.2238 66.3401 64.3706 65.5537C64.5174 64.7673 64.5109 64.0174 64.3511 63.3039C64.1913 62.5905 63.9038 61.9509 63.4886 61.3851C63.1107 60.7937 62.6022 60.2918 61.963 59.8795C61.3553 59.4731 60.6739 59.1994 59.919 59.0584C59.1011 58.9058 58.3355 58.9093 57.622 59.0691C56.9144 59.1974 56.262 59.4662 55.6648 59.8756C55.0734 60.2535 54.5715 60.762 54.1592 61.4012C53.7842 62.0148 53.5233 62.7148 53.3765 63.5012Z" fill="white"/>
</svg>
