<svg width="80" height="86" viewBox="0 0 80 86" fill="none" xmlns="http://www.w3.org/2000/svg">
<path d="M9.07148 4.8213L9.63684 5.6462L9.64464 5.64074L9.07148 4.8213ZM15.5592 1.97965L15.3456 1.0027L15.3406 1.00382L15.5592 1.97965ZM34.7872 9.62216L33.957 10.1796L33.9623 10.1875L33.9677 10.1953L34.7872 9.62216ZM37.6288 16.1098L36.653 16.3284L36.653 16.3284L37.6288 16.1098ZM34.9773 30.3125L35.8086 30.8684L35.8114 30.8641L34.9773 30.3125ZM29.9863 35.3379L29.4289 34.5076L29.421 34.513L29.9863 35.3379ZM23.5075 38.1323L23.2889 37.1565L23.5075 38.1323ZM9.30483 35.4808L8.74892 36.3121L8.75318 36.3149L9.30483 35.4808ZM4.27062 30.537L3.44576 31.1023L3.44576 31.1023L4.27062 30.537ZM1.47616 24.0581L0.499216 24.2717L0.500333 24.2767L1.47616 24.0581ZM53.0968 11.722L53.9171 12.2939L53.9206 12.2889L53.0968 11.722ZM54.4551 10.4619L53.9777 9.5832L53.9637 9.59078L53.95 9.59881L54.4551 10.4619ZM68.3243 12.8069L67.6998 13.588L67.7101 13.5962L67.7205 13.6041L68.3243 12.8069ZM68.6678 14.6289L68.1025 13.804L67.9521 13.9071L67.8478 14.0565L68.6678 14.6289ZM26.5409 74.9788L25.7209 74.4064L25.7151 74.4149L26.5409 74.9788ZM25.2417 76.4453L25.7629 77.2987L25.7854 77.285L25.8071 77.2702L25.2417 76.4453ZM10.6227 72.886L9.8255 72.2822L9.68297 72.4704L9.63964 72.7024L10.6227 72.886ZM10.7523 72.7148L11.5494 73.3186L11.6261 73.2174L11.675 73.1003L10.7523 72.7148ZM11.0171 72.0807L10.1968 71.5088L10.1356 71.5966L10.0944 71.6953L11.0171 72.0807ZM14.8534 23.284L14.0286 23.8493L14.8534 23.284ZM20.7289 25.5527L20.5265 24.5734L20.5184 24.5751L20.5103 24.5769L20.7289 25.5527ZM22.6861 24.7462L22.1208 23.9214L22.1208 23.9214L22.6861 24.7462ZM24.1917 23.2206L25.0229 23.7765L25.0275 23.7696L25.032 23.7627L24.1917 23.2206ZM24.1484 16.9136L23.3057 17.452L23.3231 17.4792L23.3422 17.5052L24.1484 16.9136ZM22.6228 15.408L22.0669 16.2393L22.0737 16.2439L22.0807 16.2484L22.6228 15.408ZM18.2818 14.5976L18.4602 15.5815L18.4804 15.5779L18.5003 15.5734L18.2818 14.5976ZM16.3245 15.4041L16.863 16.2468L16.8765 16.2381L16.8899 16.229L16.3245 15.4041ZM14.819 16.9297L13.9786 16.3877L13.972 16.3979L13.9657 16.4083L14.819 16.9297ZM44.4679 55.327L45.2991 55.8829L44.4679 55.327ZM49.4117 50.2928L49.9771 51.1177L49.9849 51.1122L49.4117 50.2928ZM55.8994 47.4511L55.6859 46.4742L55.6809 46.4753L55.8994 47.4511ZM70.102 50.1026L69.5461 50.9339L70.102 50.1026ZM75.1274 55.0936L74.2972 55.6511L74.3025 55.659L74.308 55.6668L75.1274 55.0936ZM77.9691 61.5813L78.9449 61.3628L77.9691 61.5813ZM75.3176 75.7839L76.1489 76.3399L76.1517 76.3356L75.3176 75.7839ZM70.3266 80.8093L69.7691 79.9791L69.7612 79.9845L70.3266 80.8093ZM63.8477 83.6038L64.0662 84.5796L63.8477 83.6038ZM49.6451 80.9523L49.0892 81.7836L49.0934 81.7864L49.6451 80.9523ZM44.6109 76.0085L45.4357 75.4432L44.6109 76.0085ZM41.8164 69.5296L40.8395 69.7432L40.8406 69.7482L41.8164 69.5296ZM55.1937 68.7555L56.0185 68.1901L55.1937 68.7555ZM61.0691 71.0242L60.8668 70.0449L60.8586 70.0466L60.8506 70.0484L61.0691 71.0242ZM63.0264 70.2177L63.5917 71.0426L63.5917 71.0426L63.0264 70.2177ZM64.5319 68.6921L65.3631 69.248L65.3678 69.2411L65.3722 69.2342L64.5319 68.6921ZM65.3511 64.3039L66.327 64.0854L66.327 64.0854L65.3511 64.3039ZM64.4886 62.3851L63.646 62.9235L63.6633 62.9507L63.6824 62.9767L64.4886 62.3851ZM62.963 60.8795L62.4071 61.7108L62.414 61.7154L62.421 61.7198L62.963 60.8795ZM58.622 60.0691L58.8005 61.053L58.8206 61.0494L58.8406 61.0449L58.622 60.0691ZM56.6648 60.8756L57.2032 61.7183L57.2168 61.7096L57.2301 61.7005L56.6648 60.8756ZM55.1592 62.4012L54.3189 61.8591L54.3123 61.8694L54.3059 61.8798L55.1592 62.4012ZM2.37378 16.8525C2.82001 14.4622 3.68317 12.319 4.95889 10.4114L3.2964 9.29959C1.86256 11.4436 0.901132 13.8426 0.407746 16.4854L2.37378 16.8525ZM4.95889 10.4114C6.24551 8.48755 7.80438 6.90203 9.63681 5.64616L8.50615 3.99643C6.45636 5.40128 4.71934 7.1719 3.2964 9.29959L4.95889 10.4114ZM9.64464 5.64074C11.482 4.35561 13.5235 3.46033 15.7777 2.95547L15.3406 1.00382C12.8386 1.56418 10.555 2.56334 8.49832 4.00185L9.64464 5.64074ZM15.7727 2.95657C18.0467 2.45947 20.3746 2.43104 22.7648 2.87726L23.1319 0.911231C20.489 0.417834 17.8908 0.446335 15.3456 1.00272L15.7727 2.95657ZM22.7648 2.87726C25.1551 3.3235 27.2983 4.18665 29.2059 5.46237L30.3177 3.79989C28.1737 2.36605 25.7747 1.40462 23.1319 0.911231L22.7648 2.87726ZM29.2059 5.46237C31.1261 6.74655 32.7071 8.31812 33.957 10.1796L35.6174 9.06471C34.2183 6.98105 32.449 5.22526 30.3177 3.79989L29.2059 5.46237ZM33.9677 10.1953C35.2529 12.0327 36.1482 14.0742 36.653 16.3284L38.6047 15.8913C38.0443 13.3892 37.0451 11.1056 35.6066 9.04899L33.9677 10.1953ZM36.653 16.3284C37.1545 18.5677 37.1863 20.8781 36.74 23.2683L38.7061 23.6353C39.1994 20.9925 39.1684 18.4082 38.6047 15.8913L36.653 16.3284ZM36.74 23.2683C36.2938 25.6585 35.4274 27.8193 34.1433 29.7608L35.8114 30.8641C37.2486 28.6911 38.2127 26.2782 38.7061 23.6353L36.74 23.2683ZM34.1461 29.7565C32.8619 31.6768 31.2904 33.2577 29.4289 34.5076L30.5438 36.1681C32.6274 34.769 34.3832 32.9997 35.8086 30.8684L34.1461 29.7565ZM29.421 34.513C27.5886 35.7689 25.5474 36.6507 23.2889 37.1565L23.726 39.1081C26.2238 38.5487 28.5019 37.5676 30.5517 36.1627L29.421 34.513ZM23.2889 37.1565C21.0495 37.658 18.7392 37.6897 16.349 37.2435L15.9819 39.2095C18.6248 39.7029 21.2091 39.6718 23.726 39.1081L23.2889 37.1565ZM16.349 37.2435C13.9588 36.7973 11.798 35.9309 9.85649 34.6468L8.75318 36.3149C10.9262 37.7521 13.3391 38.7161 15.9819 39.2095L16.349 37.2435ZM9.86074 34.6496C7.93688 33.363 6.35137 31.8041 5.09549 29.9717L3.44576 31.1023C4.85061 33.1521 6.62123 34.8891 8.74892 36.3121L9.86074 34.6496ZM5.09549 29.9717C3.83961 28.1392 2.9578 26.0981 2.45199 23.8396L0.500333 24.2767C1.05974 26.7744 2.04091 29.0525 3.44576 31.1023L5.09549 29.9717ZM2.45309 23.8446C1.95599 21.5706 1.92756 19.2426 2.37378 16.8525L0.407746 16.4854C-0.0856504 19.1283 -0.0571498 21.7265 0.499229 24.2717L2.45309 23.8446ZM53.9206 12.2889C54.1941 11.8915 54.5377 11.5722 54.9603 11.3249L53.95 9.59881C53.2762 9.99319 52.7143 10.514 52.273 11.155L53.9206 12.2889ZM54.9326 11.3405C55.2701 11.1571 55.7103 11.0787 56.3207 11.1926L56.6877 9.22661C55.7253 9.04693 54.7995 9.13664 53.9777 9.5832L54.9326 11.3405ZM56.3207 11.1926L66.5598 13.1042L66.9268 11.1381L56.6877 9.22661L56.3207 11.1926ZM66.5598 13.1042C67.0561 13.1968 67.424 13.3674 67.6998 13.588L68.9488 12.0259C68.3749 11.567 67.6888 11.2804 66.9268 11.1381L66.5598 13.1042ZM67.7205 13.6041C67.8514 13.7032 67.886 13.7681 67.8929 13.7834C67.8963 13.791 67.8971 13.7952 67.8976 13.7995C67.8981 13.8044 67.8992 13.8199 67.8936 13.8496L69.8597 14.2167C69.9384 13.795 69.8984 13.3659 69.7164 12.962C69.5392 12.5685 69.2535 12.2563 68.9281 12.0098L67.7205 13.6041ZM67.8936 13.8496C67.8801 13.9219 67.8676 13.9801 67.8563 14.0257C67.8448 14.0723 67.8364 14.0991 67.8323 14.1107C67.827 14.1258 67.8332 14.1037 67.8569 14.0627C67.8695 14.0409 67.8922 14.0047 67.9275 13.9624C67.9623 13.9207 68.0191 13.8612 68.1025 13.804L69.2331 15.4538C69.4267 15.3211 69.5355 15.1553 69.5887 15.0631C69.6485 14.9596 69.6901 14.8567 69.7197 14.7725C69.7788 14.6039 69.8233 14.4112 69.8597 14.2167L67.8936 13.8496ZM67.8478 14.0565L25.721 74.4064L27.3609 75.5512L69.4878 15.2013L67.8478 14.0565ZM25.7151 74.4149C25.2394 75.1116 24.8914 75.4731 24.6764 75.6204L25.8071 77.2702C26.3386 76.9058 26.8568 76.2897 27.3668 75.5427L25.7151 74.4149ZM24.7205 75.5919C24.6627 75.6272 24.4301 75.716 23.8361 75.6051L23.469 77.5711C24.2591 77.7186 25.0859 77.7122 25.7629 77.2987L24.7205 75.5919ZM23.8361 75.6051L12.5589 73.4997L12.1919 75.4658L23.469 77.5711L23.8361 75.6051ZM12.5589 73.4997C11.9678 73.3894 11.7088 73.2404 11.6198 73.1593C11.588 73.1303 11.5935 73.1246 11.5988 73.1414C11.6034 73.1556 11.5926 73.1396 11.6057 73.0695L9.63964 72.7024C9.5038 73.4301 9.70881 74.1239 10.2729 74.6378C10.7681 75.089 11.4618 75.3295 12.1919 75.4658L12.5589 73.4997ZM11.4198 73.4897L11.5494 73.3186L9.9551 72.1111L9.8255 72.2822L11.4198 73.4897ZM11.675 73.1003L11.9399 72.4661L10.0944 71.6953L9.82952 72.3294L11.675 73.1003ZM11.8375 72.6526L53.9171 12.2939L52.2765 11.1501L10.1968 71.5088L11.8375 72.6526ZM13.0533 18.8462C12.7101 20.6846 13.0197 22.3773 14.0286 23.8493L15.6783 22.7186C14.9986 21.7269 14.7635 20.5835 15.0193 19.2133L13.0533 18.8462ZM14.0286 23.8493C15.0374 25.3213 16.5044 26.2208 18.3427 26.564L18.7098 24.598C17.3396 24.3422 16.358 23.7103 15.6783 22.7186L14.0286 23.8493ZM18.3427 26.564C19.224 26.7285 20.0952 26.7194 20.9474 26.5286L20.5103 24.5769C19.9356 24.7056 19.3384 24.7154 18.7098 24.598L18.3427 26.564ZM20.9312 26.5321C21.7905 26.3545 22.5695 26.0385 23.2514 25.5711L22.1208 23.9214C21.6828 24.2215 21.157 24.4432 20.5265 24.5734L20.9312 26.5321ZM23.2514 25.5711C23.9547 25.0891 24.5464 24.489 25.0229 23.7765L23.3604 22.6647C23.024 23.1678 22.6121 23.5847 22.1208 23.9214L23.2514 25.5711ZM25.032 23.7627C25.5183 23.0088 25.844 22.1731 26.0134 21.2657L24.0473 20.8987C23.9231 21.5642 23.6896 22.1541 23.3513 22.6786L25.032 23.7627ZM26.0134 21.2657C26.1827 20.3588 26.1788 19.4715 25.9867 18.6139L24.0351 19.051C24.1626 19.6203 24.1716 20.2328 24.0473 20.8987L26.0134 21.2657ZM25.9867 18.6139C25.798 17.7715 25.4549 17.0037 24.9546 16.3219L23.3422 17.5052C23.6723 17.955 23.9042 18.4665 24.0351 19.051L25.9867 18.6139ZM24.991 16.3751C24.5295 15.6528 23.9145 15.0512 23.1648 14.5677L22.0807 16.2484C22.6094 16.5894 23.0115 16.9916 23.3057 17.452L24.991 16.3751ZM23.1787 14.5768C22.4527 14.0913 21.6435 13.7685 20.7623 13.6039L20.3952 15.57C21.0239 15.6873 21.5773 15.9119 22.0669 16.2393L23.1787 14.5768ZM20.7623 13.6039C19.8296 13.4298 18.9258 13.4286 18.0632 13.6218L18.5003 15.5734C19.0646 15.4471 19.6922 15.4387 20.3952 15.57L20.7623 13.6039ZM18.1033 13.6136C17.256 13.7673 16.4719 14.0908 15.7592 14.5792L16.8899 16.229C17.3716 15.8988 17.8924 15.6845 18.4602 15.5815L18.1033 13.6136ZM15.7861 14.5614C15.0637 15.023 14.4622 15.638 13.9786 16.3877L15.6593 17.4718C16.0004 16.943 16.4025 16.541 16.863 16.2468L15.7861 14.5614ZM13.9657 16.4083C13.5205 17.1367 13.2199 17.9536 13.0533 18.8462L15.0193 19.2133C15.1463 18.533 15.3675 17.9499 15.6723 17.4512L13.9657 16.4083ZM42.714 62.324C43.1603 59.9337 44.0234 57.7905 45.2991 55.8829L43.6366 54.7711C42.2028 56.9151 41.2414 59.3141 40.748 61.9569L42.714 62.324ZM45.2991 55.8829C46.5858 53.959 48.1446 52.3735 49.9771 51.1176L48.8464 49.4679C46.7966 50.8728 45.0596 52.6434 43.6366 54.7711L45.2991 55.8829ZM49.9849 51.1122C51.8222 49.8271 53.8638 48.9318 56.118 48.427L55.6809 46.4753C53.1788 47.0357 50.8952 48.0348 48.8386 49.4733L49.9849 51.1122ZM56.113 48.4281C58.387 47.931 60.7149 47.9025 63.1051 48.3488L63.4721 46.3827C60.8292 45.8893 58.231 45.9178 55.6859 46.4742L56.113 48.4281ZM63.1051 48.3488C65.4953 48.795 67.6386 49.6581 69.5461 50.9339L70.6579 49.2714C68.5139 47.8375 66.1149 46.8761 63.4721 46.3827L63.1051 48.3488ZM69.5461 50.9339C71.4663 52.218 73.0473 53.7896 74.2972 55.6511L75.9576 54.5362C74.5586 52.4525 72.7893 50.6967 70.6579 49.2714L69.5461 50.9339ZM74.308 55.6668C75.5931 57.5041 76.4884 59.5457 76.9933 61.7999L78.9449 61.3628C78.3845 58.8607 77.3854 56.5771 75.9469 54.5205L74.308 55.6668ZM76.9933 61.7999C77.4948 64.0392 77.5265 66.3496 77.0803 68.7398L79.0463 69.1068C79.5397 66.464 79.5086 63.8797 78.9449 61.3628L76.9933 61.7999ZM77.0803 68.7398C76.6341 71.13 75.7676 73.2908 74.4835 75.2323L76.1517 76.3356C77.5889 74.1626 78.5529 71.7497 79.0463 69.1068L77.0803 68.7398ZM74.4864 75.228C73.2022 77.1482 71.6306 78.7292 69.7691 79.9791L70.884 81.6396C72.9677 80.2405 74.7235 78.4712 76.1488 76.3399L74.4864 75.228ZM69.7612 79.9845C67.9288 81.2404 65.8876 82.1222 63.6292 82.628L64.0662 84.5796C66.564 84.0202 68.8421 83.0391 70.8919 81.6342L69.7612 79.9845ZM63.6292 82.628C61.3898 83.1295 59.0795 83.1612 56.6892 82.715L56.3222 84.681C58.965 85.1744 61.5493 85.1433 64.0662 84.5796L63.6292 82.628ZM56.6892 82.715C54.2991 82.2688 52.1382 81.4023 50.1967 80.1183L49.0934 81.7864C51.2664 83.2236 53.6793 84.1876 56.3222 84.681L56.6892 82.715ZM50.201 80.1211C48.2771 78.8345 46.6916 77.2756 45.4357 75.4432L43.786 76.5738C45.1909 78.6236 46.9615 80.3606 49.0892 81.7836L50.201 80.1211ZM45.4357 75.4432C44.1799 73.6107 43.2981 71.5696 42.7922 69.3111L40.8406 69.7482C41.4 72.2459 42.3812 74.524 43.786 76.5738L45.4357 75.4432ZM42.7933 69.3161C42.2962 67.042 42.2678 64.7141 42.714 62.324L40.748 61.9569C40.2546 64.5998 40.2831 67.198 40.8395 69.7432L42.7933 69.3161ZM53.3935 64.3177C53.0503 66.1561 53.36 67.8488 54.3688 69.3208L56.0185 68.1901C55.3389 67.1984 55.1037 66.055 55.3595 64.6847L53.3935 64.3177ZM54.3688 69.3208C55.3777 70.7928 56.8446 71.6923 58.683 72.0355L59.05 70.0695C57.6798 69.8137 56.6982 69.1818 56.0185 68.1901L54.3688 69.3208ZM58.683 72.0355C59.5642 72.2 60.4354 72.1909 61.2876 72.0001L60.8506 70.0484C60.2759 70.1771 59.6787 70.1868 59.05 70.0695L58.683 72.0355ZM61.2714 72.0035C62.1307 71.826 62.9097 71.51 63.5917 71.0426L62.461 69.3929C62.0231 69.693 61.4973 69.9146 60.8668 70.0449L61.2714 72.0035ZM63.5917 71.0426C64.2949 70.5606 64.8867 69.9605 65.3631 69.248L63.7007 68.1362C63.3642 68.6392 62.9523 69.0562 62.461 69.3929L63.5917 71.0426ZM65.3722 69.2342C65.8585 68.4803 66.1842 67.6446 66.3536 66.7372L64.3876 66.3702C64.2633 67.0357 64.0299 67.6256 63.6916 68.1501L65.3722 69.2342ZM66.3536 66.7372C66.5229 65.8303 66.519 64.943 66.327 64.0854L64.3753 64.5225C64.5028 65.0918 64.5119 65.7043 64.3876 66.3702L66.3536 66.7372ZM66.327 64.0854C66.1383 63.243 65.7952 62.4752 65.2948 61.7934L63.6824 62.9767C64.0125 63.4265 64.2444 63.938 64.3753 64.5225L66.327 64.0854ZM65.3313 61.8466C64.8697 61.1243 64.2547 60.5227 63.5051 60.0392L62.421 61.7198C62.9497 62.0609 63.3518 62.463 63.646 62.9235L65.3313 61.8466ZM63.5189 60.0483C62.793 59.5628 61.9837 59.2399 61.1025 59.0754L60.7355 61.0415C61.3641 61.1588 61.9176 61.3834 62.4071 61.7108L63.5189 60.0483ZM61.1025 59.0754C60.1698 58.9013 59.2661 58.9001 58.4035 59.0933L58.8406 61.0449C59.4048 60.9185 60.0324 60.9102 60.7355 61.0415L61.1025 59.0754ZM58.4436 59.0851C57.5963 59.2388 56.8122 59.5622 56.0994 60.0507L57.2301 61.7005C57.7119 61.3703 58.2326 61.156 58.8005 61.053L58.4436 59.0851ZM56.1263 60.0329C55.404 60.4945 54.8024 61.1095 54.3189 61.8591L55.9996 62.9433C56.3406 62.4145 56.7428 62.0125 57.2032 61.7183L56.1263 60.0329ZM54.3059 61.8798C53.8608 62.6082 53.5601 63.4251 53.3935 64.3177L55.3595 64.6847C55.4865 64.0045 55.7077 63.4214 56.0125 62.9227L54.3059 61.8798Z" fill="black"/>
</svg>
