<svg width="98" height="59" viewBox="0 0 98 59" fill="none" xmlns="http://www.w3.org/2000/svg">
<line x1="58" y1="28.5" x2="98" y2="28.5" stroke="white" stroke-width="3"/>
<circle cx="29.5" cy="29.5" r="29.5" fill="white"/>
<path d="M18.4664 21.225C18.5497 21.225 18.6206 21.25 18.6789 21.3C18.7372 21.35 18.7664 21.4292 18.7664 21.5375V38.6125C18.7664 38.8708 18.6497 39 18.4164 39H18.4039C18.3039 39 18.2247 38.9667 18.1664 38.9C18.1081 38.825 18.0789 38.7292 18.0789 38.6125V22.1L16.1914 22.9C16.1331 22.9333 16.0581 22.95 15.9664 22.95C15.8164 22.95 15.7164 22.875 15.6664 22.725L15.6539 22.6875L15.6289 22.575C15.6289 22.4917 15.6581 22.4292 15.7164 22.3875C15.7747 22.3375 15.8456 22.2958 15.9289 22.2625L18.0539 21.3375C18.0706 21.3292 18.1164 21.3083 18.1914 21.275C18.2664 21.2417 18.3414 21.225 18.4164 21.225H18.4664ZM22.6398 30.1125C22.6398 28.4792 23.0398 26.9708 23.8398 25.5875C24.6482 24.2042 25.7398 23.1083 27.1148 22.3C28.4982 21.4833 30.0065 21.075 31.6398 21.075C33.2732 21.075 34.7815 21.4833 36.1648 22.3C37.5482 23.1083 38.644 24.2042 39.4523 25.5875C40.269 26.9708 40.6773 28.4792 40.6773 30.1125C40.6773 31.7458 40.269 33.2542 39.4523 34.6375C38.644 36.0125 37.5482 37.1042 36.1648 37.9125C34.7815 38.7125 33.2732 39.1125 31.6398 39.1125C30.0065 39.1125 28.4982 38.7125 27.1148 37.9125C25.7398 37.1042 24.6482 36.0125 23.8398 34.6375C23.0398 33.2542 22.6398 31.7458 22.6398 30.1125ZM23.3523 30.1125C23.3523 31.6042 23.7232 32.9833 24.4648 34.25C25.2148 35.5167 26.2232 36.525 27.4898 37.275C28.7648 38.0167 30.1482 38.3875 31.6398 38.3875C33.1398 38.3875 34.5273 38.0167 35.8023 37.275C37.0773 36.525 38.0898 35.5167 38.8398 34.25C39.5898 32.9833 39.9648 31.6042 39.9648 30.1125C39.9648 28.6125 39.5898 27.225 38.8398 25.95C38.0898 24.675 37.0773 23.6625 35.8023 22.9125C34.5273 22.1625 33.1398 21.7875 31.6398 21.7875C30.1482 21.7875 28.7648 22.1625 27.4898 22.9125C26.2232 23.6625 25.2148 24.6792 24.4648 25.9625C23.7232 27.2375 23.3523 28.6208 23.3523 30.1125Z" fill="#C7D8F8"/>
<path d="M18.6789 21.3L17.3773 22.8185L17.3773 22.8185L18.6789 21.3ZM18.1664 38.9L16.5877 40.1279L16.6232 40.1735L16.6613 40.217L18.1664 38.9ZM18.0789 22.1H20.0789V19.0801L17.2984 20.2586L18.0789 22.1ZM16.1914 22.9L15.4109 21.0586L15.3019 21.1048L15.1991 21.1635L16.1914 22.9ZM15.6664 22.725L13.769 23.3574L13.769 23.3575L15.6664 22.725ZM15.6539 22.6875L13.7015 23.1214L13.7239 23.2221L13.7565 23.3199L15.6539 22.6875ZM15.6289 22.575H13.6289V22.7945L13.6765 23.0089L15.6289 22.575ZM15.7164 22.3875L16.8789 24.015L16.9508 23.9636L17.018 23.906L15.7164 22.3875ZM15.9289 22.2625L16.6717 24.1195L16.6996 24.1083L16.7271 24.0963L15.9289 22.2625ZM18.0539 21.3375L18.8521 23.1713L18.9008 23.1501L18.9483 23.1264L18.0539 21.3375ZM18.1914 21.275L17.3791 19.4474L17.3791 19.4474L18.1914 21.275ZM18.4664 23.225C18.1159 23.225 17.7132 23.1064 17.3773 22.8185L19.9805 19.7815C19.5279 19.3936 18.9836 19.225 18.4664 19.225V23.225ZM17.3773 22.8185C16.8333 22.3522 16.7664 21.7646 16.7664 21.5375H20.7664C20.7664 21.0938 20.6412 20.3478 19.9805 19.7815L17.3773 22.8185ZM16.7664 21.5375V38.6125H20.7664V21.5375H16.7664ZM16.7664 38.6125C16.7664 38.4808 16.7917 38.0087 17.1947 37.5626C17.6326 37.0778 18.1693 37 18.4164 37V41C18.8969 41 19.6086 40.8577 20.1631 40.2437C20.6827 39.6684 20.7664 39.0025 20.7664 38.6125H16.7664ZM18.4164 37H18.4039V41H18.4164V37ZM18.4039 37C18.5772 37 18.8026 37.0294 19.0456 37.1317C19.2948 37.2366 19.5073 37.3952 19.6716 37.583L16.6613 40.217C17.1507 40.7764 17.81 41 18.4039 41V37ZM19.7451 37.6721C20.0174 38.0222 20.0789 38.3884 20.0789 38.6125H16.0789C16.0789 39.07 16.1987 39.6278 16.5877 40.1279L19.7451 37.6721ZM20.0789 38.6125V22.1H16.0789V38.6125H20.0789ZM17.2984 20.2586L15.4109 21.0586L16.9719 24.7414L18.8594 23.9414L17.2984 20.2586ZM15.1991 21.1635C15.5334 20.9725 15.8315 20.95 15.9664 20.95V24.95C16.2846 24.95 16.7327 24.8942 17.1837 24.6365L15.1991 21.1635ZM15.9664 20.95C16.2351 20.95 16.6177 21.0228 16.9789 21.2937C17.3312 21.558 17.4943 21.884 17.5638 22.0925L13.769 23.3575C13.8885 23.716 14.1266 24.1545 14.5789 24.4938C15.0401 24.8397 15.5477 24.95 15.9664 24.95V20.95ZM17.5638 22.0926L17.5513 22.0551L13.7565 23.3199L13.769 23.3574L17.5638 22.0926ZM17.6063 22.2536L17.5813 22.1411L13.6765 23.0089L13.7015 23.1214L17.6063 22.2536ZM17.6289 22.575C17.6289 22.7658 17.5952 23.0285 17.4631 23.3114C17.3262 23.6049 17.1186 23.8438 16.8789 24.015L14.5539 20.76C13.8793 21.2419 13.6289 21.966 13.6289 22.575H17.6289ZM17.018 23.906C16.8845 24.0204 16.7584 24.0848 16.6717 24.1195L15.1861 20.4055C14.9327 20.5069 14.6649 20.6546 14.4148 20.869L17.018 23.906ZM16.7271 24.0963L18.8521 23.1713L17.2557 19.5037L15.1307 20.4287L16.7271 24.0963ZM18.9483 23.1264C18.9366 23.1322 18.928 23.1364 18.9244 23.1381C18.9203 23.14 18.9179 23.1412 18.9176 23.1413C18.9174 23.1414 18.9205 23.1399 18.9284 23.1364C18.9441 23.1292 18.9686 23.1182 19.0037 23.1026L17.3791 19.4474C17.3223 19.4726 17.2266 19.5151 17.1595 19.5486L18.9483 23.1264ZM19.0037 23.1026C18.8473 23.1721 18.6467 23.225 18.4164 23.225V19.225C18.0361 19.225 17.6855 19.3112 17.3791 19.4474L19.0037 23.1026ZM18.4164 23.225H18.4664V19.225H18.4164V23.225ZM23.8398 25.5875L22.113 24.5785L22.1085 24.5862L23.8398 25.5875ZM27.1148 22.3L28.1284 24.0241L28.1316 24.0223L27.1148 22.3ZM36.1648 22.3L35.1481 24.0223L35.1558 24.0268L36.1648 22.3ZM39.4523 25.5875L37.7255 26.5965L37.7301 26.6043L39.4523 25.5875ZM39.4523 34.6375L37.7301 33.6207L37.7282 33.6239L39.4523 34.6375ZM36.1648 37.9125L37.1661 39.6438L37.1739 39.6393L36.1648 37.9125ZM27.1148 37.9125L26.1013 39.6366L26.1074 39.6403L26.1136 39.6438L27.1148 37.9125ZM23.8398 34.6375L22.1085 35.6388L22.1121 35.6449L22.1157 35.6511L23.8398 34.6375ZM24.4648 34.25L22.7389 35.2606L22.7439 35.269L24.4648 34.25ZM27.4898 37.275L26.4709 38.996L26.4775 38.9999L26.4842 39.0038L27.4898 37.275ZM35.8023 37.275L36.808 39.0038L36.8164 38.9989L35.8023 37.275ZM38.8398 25.95L40.5637 24.936V24.936L38.8398 25.95ZM35.8023 22.9125L34.7883 24.6364L35.8023 22.9125ZM27.4898 22.9125L26.4758 21.1886L26.4709 21.1915L27.4898 22.9125ZM24.4648 25.9625L22.7381 24.9534L22.7361 24.9569L24.4648 25.9625ZM24.6398 30.1125C24.6398 28.8226 24.9512 27.6608 25.5712 26.5887L22.1085 24.5862C21.1285 26.2809 20.6398 28.1357 20.6398 30.1125H24.6398ZM25.5666 26.5965C26.2031 25.5073 27.0498 24.6582 28.1284 24.0241L26.1013 20.5759C24.4299 21.5584 23.0932 22.9011 22.113 24.5785L25.5666 26.5965ZM28.1316 24.0223C29.2016 23.3906 30.3579 23.075 31.6398 23.075V19.075C29.6552 19.075 27.7948 19.5761 26.0981 20.5777L28.1316 24.0223ZM31.6398 23.075C32.9218 23.075 34.0781 23.3906 35.1481 24.0223L37.1816 20.5777C35.4849 19.5761 33.6245 19.075 31.6398 19.075V23.075ZM35.1558 24.0268C36.2421 24.6616 37.0908 25.5102 37.7255 26.5965L41.1791 24.5785C40.1973 22.8981 38.8542 21.5551 37.1739 20.5732L35.1558 24.0268ZM37.7301 26.6043C38.3617 27.6742 38.6773 28.8305 38.6773 30.1125H42.6773C42.6773 28.1278 42.1763 26.2674 41.1746 24.5707L37.7301 26.6043ZM38.6773 30.1125C38.6773 31.3945 38.3617 32.5508 37.7301 33.6207L41.1746 35.6543C42.1763 33.9576 42.6773 32.0972 42.6773 30.1125H38.6773ZM37.7282 33.6239C37.0941 34.7025 36.2451 35.5492 35.1558 36.1857L37.1739 39.6393C38.8513 38.6591 40.1939 37.3225 41.1765 35.6511L37.7282 33.6239ZM35.1636 36.1812C34.0916 36.8011 32.9298 37.1125 31.6398 37.1125V41.1125C33.6166 41.1125 35.4715 40.6239 37.1661 39.6438L35.1636 36.1812ZM31.6398 37.1125C30.3499 37.1125 29.1881 36.8011 28.1161 36.1812L26.1136 39.6438C27.8082 40.6239 29.6631 41.1125 31.6398 41.1125V37.1125ZM28.1284 36.1884C27.0469 35.5525 26.1998 34.7055 25.564 33.6239L22.1157 35.6511C23.0966 37.3195 24.4328 38.6558 26.1013 39.6366L28.1284 36.1884ZM25.5712 33.6362C24.9512 32.5642 24.6398 31.4024 24.6398 30.1125H20.6398C20.6398 32.0893 21.1285 33.9441 22.1085 35.6388L25.5712 33.6362ZM21.3523 30.1125C21.3523 31.9533 21.8147 33.6822 22.7389 35.2606L26.1908 33.2394C25.6316 32.2845 25.3523 31.255 25.3523 30.1125H21.3523ZM22.7439 35.269C23.6652 36.8249 24.9149 38.0747 26.4709 38.996L28.5088 35.554C27.5314 34.9753 26.7645 34.2084 26.1858 33.231L22.7439 35.269ZM26.4842 39.0038C28.0682 39.9252 29.7991 40.3875 31.6398 40.3875V36.3875C30.4973 36.3875 29.4615 36.1081 28.4955 35.5462L26.4842 39.0038ZM31.6398 40.3875C33.4868 40.3875 35.2222 39.9262 36.808 39.0038L34.7967 35.5462C33.8325 36.1071 32.7928 36.3875 31.6398 36.3875V40.3875ZM36.8164 38.9989C38.3813 38.0783 39.6376 36.8281 40.5608 35.269L37.1189 33.231C36.542 34.2053 35.7734 34.9717 34.7883 35.5511L36.8164 38.9989ZM40.5608 35.269C41.496 33.6895 41.9648 31.9577 41.9648 30.1125H37.9648C37.9648 31.2507 37.6837 32.2772 37.1189 33.231L40.5608 35.269ZM41.9648 30.1125C41.9648 28.2612 41.4972 26.5228 40.5637 24.936L37.116 26.964C37.6825 27.9272 37.9648 28.9638 37.9648 30.1125H41.9648ZM40.5637 24.936C39.6413 23.3679 38.3845 22.111 36.8164 21.1886L34.7883 24.6364C35.7702 25.214 36.5384 25.9821 37.116 26.964L40.5637 24.936ZM36.8164 21.1886C35.2295 20.2552 33.4912 19.7875 31.6398 19.7875V23.7875C32.7885 23.7875 33.8252 24.0698 34.7883 24.6364L36.8164 21.1886ZM31.6398 19.7875C29.7947 19.7875 28.0609 20.2562 26.4758 21.1886L28.5039 24.6364C29.4688 24.0688 30.5016 23.7875 31.6398 23.7875V19.7875ZM26.4709 21.1915C24.9086 22.1166 23.6579 23.3795 22.7381 24.9534L26.1916 26.9716C26.7718 25.9789 27.5377 25.2084 28.5088 24.6335L26.4709 21.1915ZM22.7361 24.9569C21.8147 26.5408 21.3523 28.2717 21.3523 30.1125H25.3523C25.3523 28.9699 25.6317 27.9342 26.1936 26.9681L22.7361 24.9569Z" fill="#C7D8F8"/>
</svg>
