<svg width="59" height="59" viewBox="0 0 59 59" fill="none" xmlns="http://www.w3.org/2000/svg">
<circle cx="29.5" cy="29.5" r="29.5" fill="white"/>
<path d="M7.91953 21.225C8.00286 21.225 8.0737 21.25 8.13203 21.3C8.19036 21.35 8.21953 21.4292 8.21953 21.5375V38.6125C8.21953 38.8708 8.10286 39 7.86953 39H7.85703C7.75703 39 7.67786 38.9667 7.61953 38.9C7.5612 38.825 7.53203 38.7292 7.53203 38.6125V22.1L5.64453 22.9C5.5862 22.9333 5.5112 22.95 5.41953 22.95C5.26953 22.95 5.16953 22.875 5.11953 22.725L5.10703 22.6875L5.08203 22.575C5.08203 22.4917 5.1112 22.4292 5.16953 22.3875C5.22786 22.3375 5.2987 22.2958 5.38203 22.2625L7.50703 21.3375C7.5237 21.3292 7.56953 21.3083 7.64453 21.275C7.71953 21.2417 7.79453 21.225 7.86953 21.225H7.91953ZM12.093 30.1125C12.093 28.4792 12.493 26.9708 13.293 25.5875C14.1013 24.2042 15.193 23.1083 16.568 22.3C17.9513 21.4833 19.4596 21.075 21.093 21.075C22.7263 21.075 24.2346 21.4833 25.618 22.3C27.0013 23.1083 28.0971 24.2042 28.9055 25.5875C29.7221 26.9708 30.1305 28.4792 30.1305 30.1125C30.1305 31.7458 29.7221 33.2542 28.9055 34.6375C28.0971 36.0125 27.0013 37.1042 25.618 37.9125C24.2346 38.7125 22.7263 39.1125 21.093 39.1125C19.4596 39.1125 17.9513 38.7125 16.568 37.9125C15.193 37.1042 14.1013 36.0125 13.293 34.6375C12.493 33.2542 12.093 31.7458 12.093 30.1125ZM12.8055 30.1125C12.8055 31.6042 13.1763 32.9833 13.918 34.25C14.668 35.5167 15.6763 36.525 16.943 37.275C18.218 38.0167 19.6013 38.3875 21.093 38.3875C22.593 38.3875 23.9805 38.0167 25.2555 37.275C26.5305 36.525 27.543 35.5167 28.293 34.25C29.043 32.9833 29.418 31.6042 29.418 30.1125C29.418 28.6125 29.043 27.225 28.293 25.95C27.543 24.675 26.5305 23.6625 25.2555 22.9125C23.9805 22.1625 22.593 21.7875 21.093 21.7875C19.6013 21.7875 18.218 22.1625 16.943 22.9125C15.6763 23.6625 14.668 24.6792 13.918 25.9625C13.1763 27.2375 12.8055 28.6208 12.8055 30.1125ZM33.1867 30.1125C33.1867 28.4792 33.5867 26.9708 34.3867 25.5875C35.1951 24.2042 36.2867 23.1083 37.6617 22.3C39.0451 21.4833 40.5534 21.075 42.1867 21.075C43.8201 21.075 45.3284 21.4833 46.7117 22.3C48.0951 23.1083 49.1909 24.2042 49.9992 25.5875C50.8159 26.9708 51.2242 28.4792 51.2242 30.1125C51.2242 31.7458 50.8159 33.2542 49.9992 34.6375C49.1909 36.0125 48.0951 37.1042 46.7117 37.9125C45.3284 38.7125 43.8201 39.1125 42.1867 39.1125C40.5534 39.1125 39.0451 38.7125 37.6617 37.9125C36.2867 37.1042 35.1951 36.0125 34.3867 34.6375C33.5867 33.2542 33.1867 31.7458 33.1867 30.1125ZM33.8992 30.1125C33.8992 31.6042 34.2701 32.9833 35.0117 34.25C35.7617 35.5167 36.7701 36.525 38.0367 37.275C39.3117 38.0167 40.6951 38.3875 42.1867 38.3875C43.6867 38.3875 45.0742 38.0167 46.3492 37.275C47.6242 36.525 48.6367 35.5167 49.3867 34.25C50.1367 32.9833 50.5117 31.6042 50.5117 30.1125C50.5117 28.6125 50.1367 27.225 49.3867 25.95C48.6367 24.675 47.6242 23.6625 46.3492 22.9125C45.0742 22.1625 43.6867 21.7875 42.1867 21.7875C40.6951 21.7875 39.3117 22.1625 38.0367 22.9125C36.7701 23.6625 35.7617 24.6792 35.0117 25.9625C34.2701 27.2375 33.8992 28.6208 33.8992 30.1125Z" fill="#C7D8F8"/>
<path d="M8.13203 21.3L6.83045 22.8185L6.83046 22.8185L8.13203 21.3ZM7.61953 38.9L6.04083 40.1279L6.07631 40.1735L6.11438 40.217L7.61953 38.9ZM7.53203 22.1H9.53203V19.0801L6.75156 20.2586L7.53203 22.1ZM5.64453 22.9L4.86406 21.0586L4.75506 21.1048L4.65226 21.1635L5.64453 22.9ZM5.11953 22.725L3.22216 23.3574L3.22217 23.3575L5.11953 22.725ZM5.10703 22.6875L3.15466 23.1214L3.17704 23.2221L3.20966 23.3199L5.10703 22.6875ZM5.08203 22.575H3.08203V22.7945L3.12966 23.0089L5.08203 22.575ZM5.16953 22.3875L6.33201 24.015L6.40397 23.9636L6.47112 23.906L5.16953 22.3875ZM5.38203 22.2625L6.1248 24.1195L6.15271 24.1083L6.18027 24.0963L5.38203 22.2625ZM7.50703 21.3375L8.30527 23.1713L8.35396 23.1501L8.40145 23.1264L7.50703 21.3375ZM7.64453 21.275L6.83227 19.4474L6.83224 19.4474L7.64453 21.275ZM7.91953 23.225C7.56901 23.225 7.16637 23.1064 6.83045 22.8185L9.43362 19.7815C8.98103 19.3936 8.43672 19.225 7.91953 19.225V23.225ZM6.83046 22.8185C6.28639 22.3522 6.21953 21.7646 6.21953 21.5375H10.2195C10.2195 21.0938 10.0943 20.3478 9.43361 19.7815L6.83046 22.8185ZM6.21953 21.5375V38.6125H10.2195V21.5375H6.21953ZM6.21953 38.6125C6.21953 38.4808 6.24487 38.0087 6.64783 37.5626C7.08571 37.0778 7.6224 37 7.86953 37V41C8.35 41 9.06169 40.8577 9.61624 40.2437C10.1359 39.6684 10.2195 39.0025 10.2195 38.6125H6.21953ZM7.86953 37H7.85703V41H7.86953V37ZM7.85703 37C8.03034 37 8.25573 37.0294 8.49877 37.1317C8.74788 37.2366 8.96038 37.3952 9.12468 37.583L6.11438 40.217C6.60383 40.7764 7.26314 41 7.85703 41V37ZM9.19824 37.6721C9.47056 38.0222 9.53203 38.3884 9.53203 38.6125H5.53203C5.53203 39.07 5.65184 39.6278 6.04083 40.1279L9.19824 37.6721ZM9.53203 38.6125V22.1H5.53203V38.6125H9.53203ZM6.75156 20.2586L4.86406 21.0586L6.42501 24.7414L8.31251 23.9414L6.75156 20.2586ZM4.65226 21.1635C4.98654 20.9725 5.28467 20.95 5.41953 20.95V24.95C5.73773 24.95 6.18586 24.8942 6.6368 24.6365L4.65226 21.1635ZM5.41953 20.95C5.68826 20.95 6.07082 21.0228 6.43203 21.2937C6.78431 21.558 6.9474 21.884 7.0169 22.0925L3.22217 23.3575C3.34167 23.716 3.57975 24.1545 4.03203 24.4938C4.49324 24.8397 5.0008 24.95 5.41953 24.95V20.95ZM7.0169 22.0926L7.0044 22.0551L3.20966 23.3199L3.22216 23.3574L7.0169 22.0926ZM7.05941 22.2536L7.03441 22.1411L3.12966 23.0089L3.15466 23.1214L7.05941 22.2536ZM7.08203 22.575C7.08203 22.7658 7.0483 23.0285 6.91627 23.3114C6.77931 23.6049 6.57169 23.8438 6.33201 24.015L4.00705 20.76C3.33238 21.2419 3.08203 21.966 3.08203 22.575H7.08203ZM6.47112 23.906C6.33766 24.0204 6.21155 24.0848 6.1248 24.1195L4.63926 20.4055C4.38584 20.5069 4.11807 20.6546 3.86795 20.869L6.47112 23.906ZM6.18027 24.0963L8.30527 23.1713L6.70879 19.5037L4.58379 20.4287L6.18027 24.0963ZM8.40145 23.1264C8.38973 23.1322 8.38109 23.1364 8.37756 23.1381C8.37347 23.14 8.37101 23.1412 8.37077 23.1413C8.3705 23.1414 8.37365 23.1399 8.38152 23.1364C8.39719 23.1292 8.42169 23.1182 8.45682 23.1026L6.83224 19.4474C6.77543 19.4726 6.67974 19.5151 6.61261 19.5486L8.40145 23.1264ZM8.4568 23.1026C8.30042 23.1721 8.09983 23.225 7.86953 23.225V19.225C7.48923 19.225 7.13864 19.3112 6.83227 19.4474L8.4568 23.1026ZM7.86953 23.225H7.91953V19.225H7.86953V23.225ZM13.293 25.5875L11.5661 24.5785L11.5616 24.5862L13.293 25.5875ZM16.568 22.3L17.5816 24.0241L17.5847 24.0223L16.568 22.3ZM25.618 22.3L24.6012 24.0223L24.6089 24.0268L25.618 22.3ZM28.9055 25.5875L27.1786 26.5965L27.1832 26.6043L28.9055 25.5875ZM28.9055 34.6375L27.1832 33.6207L27.1813 33.6239L28.9055 34.6375ZM25.618 37.9125L26.6192 39.6438L26.627 39.6393L25.618 37.9125ZM16.568 37.9125L15.5544 39.6366L15.5605 39.6403L15.5667 39.6438L16.568 37.9125ZM13.293 34.6375L11.5616 35.6388L11.5652 35.6449L11.5688 35.6511L13.293 34.6375ZM13.918 34.25L12.192 35.2606L12.197 35.269L13.918 34.25ZM16.943 37.275L15.924 38.996L15.9306 38.9999L15.9373 39.0038L16.943 37.275ZM25.2555 37.275L26.2611 39.0038L26.2695 38.9989L25.2555 37.275ZM28.293 25.95L30.0168 24.936V24.936L28.293 25.95ZM25.2555 22.9125L24.2414 24.6364L25.2555 22.9125ZM16.943 22.9125L15.9289 21.1886L15.924 21.1915L16.943 22.9125ZM13.918 25.9625L12.1912 24.9534L12.1892 24.9569L13.918 25.9625ZM14.093 30.1125C14.093 28.8226 14.4043 27.6608 15.0243 26.5887L11.5616 24.5862C10.5816 26.2809 10.093 28.1357 10.093 30.1125H14.093ZM15.0198 26.5965C15.6563 25.5073 16.5029 24.6582 17.5816 24.0241L15.5544 20.5759C13.883 21.5584 12.5463 22.9011 11.5662 24.5785L15.0198 26.5965ZM17.5847 24.0223C18.6547 23.3906 19.811 23.075 21.093 23.075V19.075C19.1083 19.075 17.2479 19.5761 15.5512 20.5777L17.5847 24.0223ZM21.093 23.075C22.3749 23.075 23.5312 23.3906 24.6012 24.0223L26.6347 20.5777C24.938 19.5761 23.0777 19.075 21.093 19.075V23.075ZM24.6089 24.0268C25.6953 24.6616 26.5439 25.5102 27.1787 26.5965L30.6323 24.5785C29.6504 22.8981 28.3073 21.5551 26.627 20.5732L24.6089 24.0268ZM27.1832 26.6043C27.8149 27.6742 28.1305 28.8305 28.1305 30.1125H32.1305C32.1305 28.1278 31.6294 26.2674 30.6277 24.5707L27.1832 26.6043ZM28.1305 30.1125C28.1305 31.3945 27.8149 32.5508 27.1832 33.6207L30.6277 35.6543C31.6294 33.9576 32.1305 32.0972 32.1305 30.1125H28.1305ZM27.1813 33.6239C26.5472 34.7025 25.6982 35.5492 24.6089 36.1857L26.627 39.6393C28.3044 38.6591 29.647 37.3225 30.6296 35.6511L27.1813 33.6239ZM24.6167 36.1812C23.5447 36.8011 22.3829 37.1125 21.093 37.1125V41.1125C23.0697 41.1125 24.9246 40.6239 26.6192 39.6438L24.6167 36.1812ZM21.093 37.1125C19.8031 37.1125 18.6412 36.8011 17.5692 36.1812L15.5667 39.6438C17.2614 40.6239 19.1162 41.1125 21.093 41.1125V37.1125ZM17.5816 36.1884C16.5 35.5525 15.6529 34.7055 15.0171 33.6239L11.5688 35.6511C12.5497 37.3195 13.8859 38.6558 15.5544 39.6366L17.5816 36.1884ZM15.0243 33.6362C14.4043 32.5642 14.093 31.4024 14.093 30.1125H10.093C10.093 32.0893 10.5816 33.9441 11.5616 35.6388L15.0243 33.6362ZM10.8055 30.1125C10.8055 31.9533 11.2679 33.6822 12.1921 35.2606L15.6439 33.2394C15.0847 32.2845 14.8055 31.255 14.8055 30.1125H10.8055ZM12.197 35.269C13.1183 36.8249 14.3681 38.0747 15.924 38.996L17.962 35.554C16.9846 34.9753 16.2176 34.2084 15.6389 33.231L12.197 35.269ZM15.9373 39.0038C17.5213 39.9252 19.2522 40.3875 21.093 40.3875V36.3875C19.9504 36.3875 18.9146 36.1081 17.9486 35.5462L15.9373 39.0038ZM21.093 40.3875C22.94 40.3875 24.6753 39.9262 26.2611 39.0038L24.2498 35.5462C23.2856 36.1071 22.246 36.3875 21.093 36.3875V40.3875ZM26.2695 38.9989C27.8345 38.0783 29.0908 36.8281 30.0139 35.269L26.572 33.231C25.9952 34.2053 25.2265 34.9717 24.2414 35.5511L26.2695 38.9989ZM30.0139 35.269C30.9491 33.6895 31.418 31.9577 31.418 30.1125H27.418C27.418 31.2507 27.1368 32.2772 26.572 33.231L30.0139 35.269ZM31.418 30.1125C31.418 28.2612 30.9503 26.5228 30.0168 24.936L26.5691 26.964C27.1357 27.9272 27.418 28.9638 27.418 30.1125H31.418ZM30.0168 24.936C29.0944 23.3679 27.8376 22.111 26.2695 21.1886L24.2414 24.6364C25.2233 25.214 25.9915 25.9821 26.5691 26.964L30.0168 24.936ZM26.2695 21.1886C24.6826 20.2552 22.9443 19.7875 21.093 19.7875V23.7875C22.2416 23.7875 23.2783 24.0698 24.2414 24.6364L26.2695 21.1886ZM21.093 19.7875C19.2479 19.7875 17.514 20.2562 15.9289 21.1886L17.957 24.6364C18.9219 24.0688 19.9547 23.7875 21.093 23.7875V19.7875ZM15.924 21.1915C14.3617 22.1166 13.111 23.3795 12.1912 24.9534L15.6447 26.9716C16.2249 25.9789 16.9909 25.2084 17.962 24.6335L15.924 21.1915ZM12.1892 24.9569C11.2678 26.5408 10.8055 28.2717 10.8055 30.1125H14.8055C14.8055 28.9699 15.0848 27.9342 15.6468 26.9681L12.1892 24.9569ZM34.3867 25.5875L32.6599 24.5785L32.6554 24.5862L34.3867 25.5875ZM37.6617 22.3L38.6753 24.0241L38.6785 24.0223L37.6617 22.3ZM46.7117 22.3L45.695 24.0223L45.7027 24.0268L46.7117 22.3ZM49.9992 25.5875L48.2724 26.5965L48.277 26.6043L49.9992 25.5875ZM49.9992 34.6375L48.277 33.6207L48.2751 33.6239L49.9992 34.6375ZM46.7117 37.9125L47.713 39.6438L47.7208 39.6393L46.7117 37.9125ZM37.6617 37.9125L36.6481 39.6366L36.6543 39.6403L36.6605 39.6438L37.6617 37.9125ZM34.3867 34.6375L32.6554 35.6388L32.659 35.6449L32.6626 35.6511L34.3867 34.6375ZM35.0117 34.25L33.2858 35.2606L33.2908 35.269L35.0117 34.25ZM38.0367 37.275L37.0177 38.996L37.0244 38.9999L37.0311 39.0038L38.0367 37.275ZM46.3492 37.275L47.3549 39.0038L47.3633 38.9989L46.3492 37.275ZM49.3867 25.95L51.1106 24.936V24.936L49.3867 25.95ZM46.3492 22.9125L45.3352 24.6364L46.3492 22.9125ZM38.0367 22.9125L37.0227 21.1886L37.0177 21.1915L38.0367 22.9125ZM35.0117 25.9625L33.285 24.9534L33.2829 24.9569L35.0117 25.9625ZM35.1867 30.1125C35.1867 28.8226 35.4981 27.6608 36.118 26.5887L32.6554 24.5862C31.6754 26.2809 31.1867 28.1357 31.1867 30.1125H35.1867ZM36.1135 26.5965C36.75 25.5073 37.5967 24.6582 38.6753 24.0241L36.6481 20.5759C34.9767 21.5584 33.6401 22.9011 32.6599 24.5785L36.1135 26.5965ZM38.6785 24.0223C39.7484 23.3906 40.9047 23.075 42.1867 23.075V19.075C40.202 19.075 38.3417 19.5761 36.645 20.5777L38.6785 24.0223ZM42.1867 23.075C43.4687 23.075 44.625 23.3906 45.695 24.0223L47.7285 20.5777C46.0318 19.5761 44.1714 19.075 42.1867 19.075V23.075ZM45.7027 24.0268C46.789 24.6616 47.6376 25.5102 48.2724 26.5965L51.726 24.5785C50.7441 22.8981 49.4011 21.5551 47.7208 20.5732L45.7027 24.0268ZM48.277 26.6043C48.9086 27.6742 49.2242 28.8305 49.2242 30.1125H53.2242C53.2242 28.1278 52.7232 26.2674 51.7215 24.5707L48.277 26.6043ZM49.2242 30.1125C49.2242 31.3945 48.9086 32.5508 48.277 33.6207L51.7215 35.6543C52.7232 33.9576 53.2242 32.0972 53.2242 30.1125H49.2242ZM48.2751 33.6239C47.641 34.7025 46.792 35.5492 45.7027 36.1857L47.7208 39.6393C49.3981 38.6591 50.7408 37.3225 51.7234 35.6511L48.2751 33.6239ZM45.7105 36.1812C44.6384 36.8011 43.4766 37.1125 42.1867 37.1125V41.1125C44.1635 41.1125 46.0183 40.6239 47.713 39.6438L45.7105 36.1812ZM42.1867 37.1125C40.8968 37.1125 39.735 36.8011 38.663 36.1812L36.6605 39.6438C38.3551 40.6239 40.21 41.1125 42.1867 41.1125V37.1125ZM38.6753 36.1884C37.5938 35.5525 36.7467 34.7055 36.1109 33.6239L32.6626 35.6511C33.6434 37.3195 34.9797 38.6558 36.6481 39.6366L38.6753 36.1884ZM36.118 33.6362C35.4981 32.5642 35.1867 31.4024 35.1867 30.1125H31.1867C31.1867 32.0893 31.6754 33.9441 32.6554 35.6388L36.118 33.6362ZM31.8992 30.1125C31.8992 31.9533 32.3616 33.6822 33.2858 35.2606L36.7376 33.2394C36.1785 32.2845 35.8992 31.255 35.8992 30.1125H31.8992ZM33.2908 35.269C34.212 36.8249 35.4618 38.0747 37.0177 38.996L39.0557 35.554C38.0783 34.9753 37.3114 34.2084 36.7327 33.231L33.2908 35.269ZM37.0311 39.0038C38.6151 39.9252 40.346 40.3875 42.1867 40.3875V36.3875C41.0441 36.3875 40.0084 36.1081 39.0424 35.5462L37.0311 39.0038ZM42.1867 40.3875C44.0337 40.3875 45.7691 39.9262 47.3549 39.0038L45.3436 35.5462C44.3793 36.1071 43.3397 36.3875 42.1867 36.3875V40.3875ZM47.3633 38.9989C48.9282 38.0783 50.1845 36.8281 51.1077 35.269L47.6658 33.231C47.0889 34.2053 46.3202 34.9717 45.3352 35.5511L47.3633 38.9989ZM51.1077 35.269C52.0429 33.6895 52.5117 31.9577 52.5117 30.1125H48.5117C48.5117 31.2507 48.2306 32.2772 47.6658 33.231L51.1077 35.269ZM52.5117 30.1125C52.5117 28.2612 52.044 26.5228 51.1106 24.936L47.6628 26.964C48.2294 27.9272 48.5117 28.9638 48.5117 30.1125H52.5117ZM51.1106 24.936C50.1882 23.3679 48.9314 22.111 47.3633 21.1886L45.3352 24.6364C46.3171 25.214 47.0853 25.9821 47.6629 26.964L51.1106 24.936ZM47.3633 21.1886C45.7764 20.2552 44.038 19.7875 42.1867 19.7875V23.7875C43.3354 23.7875 44.372 24.0698 45.3352 24.6364L47.3633 21.1886ZM42.1867 19.7875C40.3416 19.7875 38.6077 20.2562 37.0227 21.1886L39.0508 24.6364C40.0157 24.0688 41.0485 23.7875 42.1867 23.7875V19.7875ZM37.0177 21.1915C35.4555 22.1166 34.2048 23.3795 33.285 24.9534L36.7385 26.9716C37.3186 25.9789 38.0846 25.2084 39.0557 24.6335L37.0177 21.1915ZM33.2829 24.9569C32.3615 26.5408 31.8992 28.2717 31.8992 30.1125H35.8992C35.8992 28.9699 36.1786 27.9342 36.7405 26.9681L33.2829 24.9569Z" fill="#C7D8F8"/>
</svg>
