<svg width="98" height="59" viewBox="0 0 98 59" fill="none" xmlns="http://www.w3.org/2000/svg">
<line x1="58" y1="28.5" x2="98" y2="28.5" stroke="white" stroke-width="3"/>
<circle cx="29.5" cy="29.5" r="29.5" fill="white"/>
<path d="M21.9703 21.225C22.0536 21.225 22.1245 21.25 22.1828 21.3C22.2411 21.35 22.2703 21.4292 22.2703 21.5375V38.6125C22.2703 38.8708 22.1536 39 21.9203 39H21.9078C21.8078 39 21.7286 38.9667 21.6703 38.9C21.612 38.825 21.5828 38.7292 21.5828 38.6125V22.1L19.6953 22.9C19.637 22.9333 19.562 22.95 19.4703 22.95C19.3203 22.95 19.2203 22.875 19.1703 22.725L19.1578 22.6875L19.1328 22.575C19.1328 22.4917 19.162 22.4292 19.2203 22.3875C19.2786 22.3375 19.3495 22.2958 19.4328 22.2625L21.5578 21.3375C21.5745 21.3292 21.6203 21.3083 21.6953 21.275C21.7703 21.2417 21.8453 21.225 21.9203 21.225H21.9703ZM26.1438 34.95C26.1771 34.9167 26.2313 34.9 26.3063 34.9C26.4563 34.9 26.5813 35.0042 26.6813 35.2125C27.2813 36.4875 28.0313 37.3667 28.9313 37.85C29.8396 38.325 30.7938 38.5625 31.7938 38.5625C32.9104 38.5625 33.8729 38.2875 34.6813 37.7375C35.4896 37.1792 36.1021 36.4875 36.5188 35.6625C36.9354 34.8292 37.1438 34.0042 37.1438 33.1875C37.1438 32.3292 36.9104 31.475 36.4438 30.625C35.9854 29.7667 35.3479 29.0625 34.5313 28.5125C33.7229 27.9625 32.8229 27.6875 31.8313 27.6875C30.3729 27.6875 29.1104 28.1333 28.0438 29.025C27.8688 29.1667 27.7271 29.3083 27.6188 29.45C27.5104 29.5917 27.4021 29.7542 27.2938 29.9375C27.2021 30.0875 27.1271 30.1958 27.0688 30.2625C27.0104 30.3208 26.9354 30.35 26.8438 30.35H26.8063C26.6063 30.35 26.5063 30.225 26.5063 29.975L27.0813 21.4625C27.0896 21.2542 27.2063 21.15 27.4313 21.15H36.1438C36.4021 21.15 36.5313 21.2583 36.5313 21.475V21.5C36.5313 21.7167 36.4021 21.825 36.1438 21.825H27.7438L27.2188 28.8625C27.7521 28.2542 28.4104 27.8 29.1938 27.5C29.9771 27.2 30.8438 27.05 31.7938 27.05C32.9271 27.05 33.9521 27.3417 34.8688 27.925C35.7854 28.5083 36.5021 29.2708 37.0188 30.2125C37.5354 31.1542 37.7938 32.1458 37.7938 33.1875C37.7938 34.2958 37.5229 35.3125 36.9813 36.2375C36.4396 37.1625 35.7021 37.8958 34.7688 38.4375C33.8354 38.9792 32.7979 39.25 31.6563 39.25C30.3813 39.25 29.2521 38.9125 28.2688 38.2375C27.2938 37.5542 26.5479 36.65 26.0313 35.525C25.9813 35.475 25.9563 35.3875 25.9563 35.2625C25.9563 35.1458 26.0063 35.05 26.1063 34.975L26.1438 34.95Z" fill="#C7D8F8"/>
<path d="M22.1828 21.3L20.8812 22.8185L20.8812 22.8185L22.1828 21.3ZM21.6703 38.9L20.0916 40.1279L20.1271 40.1735L20.1652 40.217L21.6703 38.9ZM21.5828 22.1H23.5828V19.0801L20.8023 20.2586L21.5828 22.1ZM19.6953 22.9L18.9148 21.0586L18.8058 21.1048L18.703 21.1635L19.6953 22.9ZM19.1703 22.725L17.2729 23.3574L17.2729 23.3575L19.1703 22.725ZM19.1578 22.6875L17.2054 23.1214L17.2278 23.2221L17.2604 23.3199L19.1578 22.6875ZM19.1328 22.575H17.1328V22.7945L17.1804 23.0089L19.1328 22.575ZM19.2203 22.3875L20.3828 24.015L20.4548 23.9636L20.5219 23.906L19.2203 22.3875ZM19.4328 22.2625L20.1756 24.1195L20.2035 24.1083L20.2311 24.0963L19.4328 22.2625ZM21.5578 21.3375L22.3561 23.1713L22.4047 23.1501L22.4522 23.1264L21.5578 21.3375ZM21.6953 21.275L20.883 19.4474L20.883 19.4474L21.6953 21.275ZM21.9703 23.225C21.6198 23.225 21.2171 23.1064 20.8812 22.8185L23.4844 19.7815C23.0318 19.3936 22.4875 19.225 21.9703 19.225V23.225ZM20.8812 22.8185C20.3372 22.3522 20.2703 21.7646 20.2703 21.5375H24.2703C24.2703 21.0938 24.1451 20.3478 23.4844 19.7815L20.8812 22.8185ZM20.2703 21.5375V38.6125H24.2703V21.5375H20.2703ZM20.2703 38.6125C20.2703 38.4808 20.2957 38.0087 20.6986 37.5626C21.1365 37.0778 21.6732 37 21.9203 37V41C22.4008 41 23.1125 40.8577 23.667 40.2437C24.1866 39.6684 24.2703 39.0025 24.2703 38.6125H20.2703ZM21.9203 37H21.9078V41H21.9203V37ZM21.9078 37C22.0811 37 22.3065 37.0294 22.5496 37.1317C22.7987 37.2366 23.0112 37.3952 23.1755 37.583L20.1652 40.217C20.6546 40.7764 21.3139 41 21.9078 41V37ZM23.249 37.6721C23.5213 38.0222 23.5828 38.3884 23.5828 38.6125H19.5828C19.5828 39.07 19.7026 39.6278 20.0916 40.1279L23.249 37.6721ZM23.5828 38.6125V22.1H19.5828V38.6125H23.5828ZM20.8023 20.2586L18.9148 21.0586L20.4758 24.7414L22.3633 23.9414L20.8023 20.2586ZM18.703 21.1635C19.0373 20.9725 19.3354 20.95 19.4703 20.95V24.95C19.7885 24.95 20.2366 24.8942 20.6876 24.6365L18.703 21.1635ZM19.4703 20.95C19.739 20.95 20.1216 21.0228 20.4828 21.2937C20.8351 21.558 20.9982 21.884 21.0677 22.0925L17.2729 23.3575C17.3924 23.716 17.6305 24.1545 18.0828 24.4938C18.544 24.8397 19.0516 24.95 19.4703 24.95V20.95ZM21.0677 22.0926L21.0552 22.0551L17.2604 23.3199L17.2729 23.3574L21.0677 22.0926ZM21.1102 22.2536L21.0852 22.1411L17.1804 23.0089L17.2054 23.1214L21.1102 22.2536ZM21.1328 22.575C21.1328 22.7658 21.0991 23.0285 20.9671 23.3114C20.8301 23.6049 20.6225 23.8438 20.3828 24.015L18.0578 20.76C17.3832 21.2419 17.1328 21.966 17.1328 22.575H21.1328ZM20.5219 23.906C20.3884 24.0204 20.2623 24.0848 20.1756 24.1195L18.69 20.4055C18.4366 20.5069 18.1689 20.6546 17.9187 20.869L20.5219 23.906ZM20.2311 24.0963L22.3561 23.1713L20.7596 19.5037L18.6346 20.4287L20.2311 24.0963ZM22.4522 23.1264C22.4405 23.1322 22.4319 23.1364 22.4283 23.1381C22.4242 23.14 22.4218 23.1412 22.4216 23.1413C22.4213 23.1414 22.4244 23.1399 22.4323 23.1364C22.448 23.1292 22.4725 23.1182 22.5076 23.1026L20.883 19.4474C20.8262 19.4726 20.7305 19.5151 20.6634 19.5486L22.4522 23.1264ZM22.5076 23.1026C22.3512 23.1721 22.1506 23.225 21.9203 23.225V19.225C21.54 19.225 21.1894 19.3112 20.883 19.4474L22.5076 23.1026ZM21.9203 23.225H21.9703V19.225H21.9203V23.225ZM26.1437 34.95L27.2532 36.6141L27.4179 36.5042L27.558 36.3642L26.1437 34.95ZM26.6812 35.2125L28.4909 34.3609L28.4876 34.354L28.4843 34.347L26.6812 35.2125ZM28.9312 37.85L27.985 39.612L27.9947 39.6172L28.0045 39.6223L28.9312 37.85ZM34.6813 37.7375L35.8064 39.3911L35.8179 39.3831L34.6813 37.7375ZM36.5187 35.6625L38.304 36.5641L38.3076 36.5569L36.5187 35.6625ZM36.4438 30.625L34.6795 31.5671L34.685 31.5773L34.6906 31.5875L36.4438 30.625ZM34.5312 28.5125L33.4062 30.1661L33.4141 30.1714L34.5312 28.5125ZM28.0438 29.025L29.3021 30.5795L29.3144 30.5696L29.3265 30.5595L28.0438 29.025ZM27.6187 29.45L29.2075 30.6649L29.2075 30.6649L27.6187 29.45ZM27.2938 29.9375L29.0003 30.9804L29.0081 30.9677L29.0156 30.955L27.2938 29.9375ZM27.0688 30.2625L28.483 31.6767L28.5301 31.6296L28.5739 31.5795L27.0688 30.2625ZM26.5063 29.975L24.5108 29.8402L24.5063 29.9075V29.975H26.5063ZM27.0812 21.4625L29.0767 21.5973L29.0786 21.5699L29.0797 21.5424L27.0812 21.4625ZM27.7437 21.825V19.825H25.8874L25.7493 21.6762L27.7437 21.825ZM27.2188 28.8625L25.2243 28.7137L24.7793 34.6788L28.7226 30.181L27.2188 28.8625ZM29.1938 27.5L29.909 29.3677L29.1938 27.5ZM37.0187 30.2125L38.7722 29.2505V29.2504L37.0187 30.2125ZM36.9813 36.2375L38.7071 37.2481L36.9813 36.2375ZM34.7688 38.4375L33.7649 36.7077L34.7688 38.4375ZM28.2687 38.2375L27.1209 39.8753L27.1289 39.8809L27.1369 39.8864L28.2687 38.2375ZM26.0312 35.525L27.8487 34.6903L27.6991 34.3644L27.4455 34.1108L26.0312 35.525ZM26.1063 34.975L24.9968 33.3109L24.9507 33.3417L24.9063 33.375L26.1063 34.975ZM27.558 36.3642C27.0461 36.8761 26.4593 36.9 26.3062 36.9V32.9C26.0032 32.9 25.3081 32.9573 24.7295 33.5358L27.558 36.3642ZM26.3062 36.9C25.8725 36.9 25.4963 36.7347 25.2321 36.5146C25.002 36.3228 24.9038 36.1314 24.8782 36.078L28.4843 34.347C28.2515 33.8621 27.5993 32.9 26.3062 32.9V36.9ZM24.8716 36.0641C25.5864 37.583 26.5872 38.8613 27.985 39.612L29.8775 36.088C29.4753 35.872 28.9761 35.392 28.4909 34.3609L24.8716 36.0641ZM28.0045 39.6223C29.1914 40.243 30.4627 40.5625 31.7938 40.5625V36.5625C31.1248 36.5625 30.4878 36.407 29.858 36.0777L28.0045 39.6223ZM31.7938 40.5625C33.2528 40.5625 34.6207 40.1978 35.8063 39.391L33.5562 36.084C33.1252 36.3772 32.568 36.5625 31.7938 36.5625V40.5625ZM35.8179 39.3831C36.8833 38.6472 37.7272 37.7062 38.304 36.5641L34.7335 34.7609C34.477 35.2688 34.0958 35.7111 33.5446 36.0919L35.8179 39.3831ZM38.3076 36.5569C38.8435 35.4852 39.1437 34.3558 39.1437 33.1875H35.1437C35.1437 33.6525 35.0274 34.1731 34.7299 34.7681L38.3076 36.5569ZM39.1437 33.1875C39.1437 31.951 38.8042 30.7686 38.1969 29.6625L34.6906 31.5875C35.0166 32.1814 35.1437 32.7074 35.1437 33.1875H39.1437ZM38.208 29.6829C37.5939 28.5329 36.7327 27.5839 35.6485 26.8536L33.4141 30.1714C33.9631 30.5411 34.377 31.0005 34.6795 31.5671L38.208 29.6829ZM35.6563 26.859C34.5112 26.0798 33.2181 25.6875 31.8313 25.6875V29.6875C32.4277 29.6875 32.9346 29.8452 33.4062 30.166L35.6563 26.859ZM31.8313 25.6875C29.9289 25.6875 28.2061 26.2825 26.761 27.4905L29.3265 30.5595C30.0147 29.9841 30.817 29.6875 31.8313 29.6875V25.6875ZM26.7854 27.4705C26.5177 27.6872 26.2559 27.9397 26.03 28.2351L29.2075 30.6649C29.1983 30.6769 29.2198 30.6462 29.3021 30.5795L26.7854 27.4705ZM26.03 28.2351C25.8653 28.4506 25.7132 28.681 25.5719 28.92L29.0156 30.955C29.091 30.8274 29.1556 30.7328 29.2075 30.6649L26.03 28.2351ZM25.5872 28.8946C25.5716 28.9201 25.5584 28.9411 25.5475 28.9579C25.5366 28.9749 25.5289 28.9862 25.5244 28.9928C25.5196 28.9997 25.5199 28.999 25.5248 28.9926C25.5292 28.9867 25.5424 28.9698 25.5636 28.9455L28.5739 31.5795C28.7485 31.38 28.8952 31.1525 29.0003 30.9804L25.5872 28.8946ZM25.6545 28.8483C25.8164 28.6864 26.0163 28.5526 26.2439 28.4641C26.4673 28.3772 26.6758 28.35 26.8438 28.35V32.35C27.4013 32.35 28.0062 32.1535 28.483 31.6767L25.6545 28.8483ZM26.8438 28.35H26.8062V32.35H26.8438V28.35ZM26.8062 28.35C27.1477 28.35 27.7205 28.4788 28.143 29.0069C28.4973 29.4497 28.5063 29.8863 28.5063 29.975H24.5063C24.5063 30.3137 24.5652 30.9378 25.0195 31.5056C25.542 32.1587 26.2648 32.35 26.8062 32.35V28.35ZM28.5017 30.1098L29.0767 21.5973L25.0858 21.3277L24.5108 29.8402L28.5017 30.1098ZM29.0797 21.5424C29.0697 21.7924 28.9742 22.3029 28.507 22.72C28.0662 23.1136 27.5972 23.15 27.4312 23.15V19.15C27.0403 19.15 26.4005 19.2385 25.843 19.7362C25.2592 20.2575 25.1012 20.9242 25.0828 21.3826L29.0797 21.5424ZM27.4312 23.15H36.1437V19.15H27.4312V23.15ZM36.1437 23.15C36.042 23.15 35.5931 23.136 35.1492 22.7636C34.6378 22.3347 34.5312 21.7763 34.5312 21.475H38.5312C38.5312 20.957 38.3601 20.2361 37.7196 19.6989C37.1465 19.2182 36.5038 19.15 36.1437 19.15V23.15ZM34.5312 21.475V21.5H38.5312V21.475H34.5312ZM34.5312 21.5C34.5312 21.1987 34.6378 20.6402 35.1492 20.2114C35.5931 19.839 36.042 19.825 36.1437 19.825V23.825C36.5038 23.825 37.1465 23.7568 37.7196 23.2761C38.3601 22.7389 38.5312 22.018 38.5312 21.5H34.5312ZM36.1437 19.825H27.7437V23.825H36.1437V19.825ZM25.7493 21.6762L25.2243 28.7137L29.2132 29.0113L29.7382 21.9738L25.7493 21.6762ZM28.7226 30.181C29.0336 29.8262 29.4177 29.5559 29.909 29.3677L28.4785 25.6323C27.4031 26.0441 26.4706 26.6821 25.7149 27.544L28.7226 30.181ZM29.909 29.3677C30.4358 29.166 31.0561 29.05 31.7938 29.05V25.05C30.6314 25.05 29.5183 25.234 28.4785 25.6323L29.909 29.3677ZM31.7938 29.05C32.5639 29.05 33.2135 29.2423 33.795 29.6123L35.9425 26.2377C34.6907 25.4411 33.2902 25.05 31.7938 25.05V29.05ZM33.795 29.6123C34.4311 30.0171 34.9125 30.5315 35.2653 31.1745L38.7722 29.2504C38.0916 28.0101 37.1397 26.9995 35.9425 26.2377L33.795 29.6123ZM35.2653 31.1745C35.6255 31.8309 35.7938 32.4929 35.7938 33.1875H39.7938C39.7938 31.7988 39.4454 30.4774 38.7722 29.2505L35.2653 31.1745ZM35.7938 33.1875C35.7938 33.9532 35.6113 34.6191 35.2554 35.2269L38.7071 37.2481C39.4346 36.0059 39.7938 34.6385 39.7938 33.1875H35.7938ZM35.2554 35.2269C34.8895 35.8517 34.4016 36.3382 33.7649 36.7077L35.7726 40.1673C37.0026 39.4535 37.9897 38.4733 38.7071 37.2481L35.2554 35.2269ZM33.7649 36.7077C33.1543 37.062 32.4665 37.25 31.6562 37.25V41.25C33.1293 41.25 34.5165 40.8963 35.7726 40.1673L33.7649 36.7077ZM31.6562 37.25C30.756 37.25 30.0274 37.0188 29.4006 36.5886L27.1369 39.8864C28.4768 40.8062 30.0065 41.25 31.6562 41.25V37.25ZM29.4166 36.5997C28.7439 36.1282 28.2235 35.5063 27.8487 34.6903L24.2138 36.3597C24.8723 37.7937 25.8436 38.9801 27.1209 39.8753L29.4166 36.5997ZM27.4455 34.1108C27.7201 34.3855 27.8433 34.6808 27.898 34.8724C27.9516 35.0599 27.9562 35.2032 27.9562 35.2625H23.9562C23.9562 35.5429 23.9912 36.3134 24.617 36.9392L27.4455 34.1108ZM27.9562 35.2625C27.9562 35.5001 27.9026 35.7682 27.7669 36.0283C27.6336 36.2838 27.458 36.4612 27.3062 36.575L24.9063 33.375C24.3445 33.7963 23.9562 34.4658 23.9562 35.2625H27.9562ZM27.2157 36.6391L27.2532 36.6141L25.0343 33.2859L24.9968 33.3109L27.2157 36.6391Z" fill="#C7D8F8"/>
</svg>
