<svg width="98" height="59" viewBox="0 0 98 59" fill="none" xmlns="http://www.w3.org/2000/svg">
<line x1="58" y1="28.5" x2="98" y2="28.5" stroke="white" stroke-width="3"/>
<circle cx="29.5" cy="29.5" r="29.5" fill="white"/>
<path d="M17.0523 24.95C16.9523 24.95 16.8648 24.9167 16.7898 24.85C16.7232 24.775 16.6898 24.6917 16.6898 24.6C16.6898 24.5583 16.7023 24.5125 16.7273 24.4625C17.244 23.3708 17.9607 22.5417 18.8773 21.975C19.794 21.4 20.8357 21.1125 22.0023 21.1125C23.1023 21.1125 24.0982 21.3458 24.9898 21.8125C25.8898 22.2792 26.594 22.925 27.1023 23.75C27.6107 24.5667 27.8648 25.4875 27.8648 26.5125C27.8648 27.0542 27.8232 27.5375 27.7398 27.9625C27.6648 28.3792 27.4815 28.8417 27.1898 29.35C26.8982 29.8583 26.4523 30.4 25.8523 30.975L17.3523 38.3125H28.2648C28.3732 38.3125 28.4648 38.3375 28.5398 38.3875C28.6232 38.4375 28.6648 38.5083 28.6648 38.6V38.6375C28.6648 38.7625 28.6273 38.8542 28.5523 38.9125C28.4857 38.9708 28.3898 39 28.2648 39H16.5023C16.3857 39 16.2982 38.9708 16.2398 38.9125C16.1815 38.8458 16.1523 38.7583 16.1523 38.65V38.6375C16.1523 38.5042 16.2023 38.3958 16.3023 38.3125L25.2773 30.575C25.869 30.0083 26.3023 29.4958 26.5773 29.0375C26.8607 28.5792 27.0315 28.1708 27.0898 27.8125C27.1565 27.4458 27.1898 27.0042 27.1898 26.4875C27.1898 25.6542 26.969 24.8792 26.5273 24.1625C26.0857 23.4375 25.4732 22.8625 24.6898 22.4375C23.9065 22.0042 23.0315 21.7875 22.0648 21.7875C20.9732 21.7875 20.0565 22.025 19.3148 22.5C18.5815 22.9667 17.9357 23.7042 17.3773 24.7125C17.319 24.8208 17.2648 24.8875 17.2148 24.9125C17.1648 24.9375 17.1148 24.95 17.0648 24.95H17.0523ZM30.5617 34.95C30.5951 34.9167 30.6492 34.9 30.7242 34.9C30.8742 34.9 30.9992 35.0042 31.0992 35.2125C31.6992 36.4875 32.4492 37.3667 33.3492 37.85C34.2576 38.325 35.2117 38.5625 36.2117 38.5625C37.3284 38.5625 38.2909 38.2875 39.0992 37.7375C39.9076 37.1792 40.5201 36.4875 40.9367 35.6625C41.3534 34.8292 41.5617 34.0042 41.5617 33.1875C41.5617 32.3292 41.3284 31.475 40.8617 30.625C40.4034 29.7667 39.7659 29.0625 38.9492 28.5125C38.1409 27.9625 37.2409 27.6875 36.2492 27.6875C34.7909 27.6875 33.5284 28.1333 32.4617 29.025C32.2867 29.1667 32.1451 29.3083 32.0367 29.45C31.9284 29.5917 31.8201 29.7542 31.7117 29.9375C31.6201 30.0875 31.5451 30.1958 31.4867 30.2625C31.4284 30.3208 31.3534 30.35 31.2617 30.35H31.2242C31.0242 30.35 30.9242 30.225 30.9242 29.975L31.4992 21.4625C31.5076 21.2542 31.6242 21.15 31.8492 21.15H40.5617C40.8201 21.15 40.9492 21.2583 40.9492 21.475V21.5C40.9492 21.7167 40.8201 21.825 40.5617 21.825H32.1617L31.6367 28.8625C32.1701 28.2542 32.8284 27.8 33.6117 27.5C34.3951 27.2 35.2617 27.05 36.2117 27.05C37.3451 27.05 38.3701 27.3417 39.2867 27.925C40.2034 28.5083 40.9201 29.2708 41.4367 30.2125C41.9534 31.1542 42.2117 32.1458 42.2117 33.1875C42.2117 34.2958 41.9409 35.3125 41.3992 36.2375C40.8576 37.1625 40.1201 37.8958 39.1867 38.4375C38.2534 38.9792 37.2159 39.25 36.0742 39.25C34.7992 39.25 33.6701 38.9125 32.6867 38.2375C31.7117 37.5542 30.9659 36.65 30.4492 35.525C30.3992 35.475 30.3742 35.3875 30.3742 35.2625C30.3742 35.1458 30.4242 35.05 30.5242 34.975L30.5617 34.95Z" fill="#C7D8F8"/>
<path d="M16.7898 24.85L15.295 26.1787L15.3732 26.2667L15.4611 26.3448L16.7898 24.85ZM16.7273 24.4625L18.5162 25.3569L18.5259 25.3376L18.5351 25.3181L16.7273 24.4625ZM18.8773 21.975L19.929 23.6762L19.9401 23.6693L18.8773 21.975ZM24.9898 21.8125L24.0624 23.5845L24.0692 23.588L24.9898 21.8125ZM27.1023 23.75L25.3996 24.7992L25.4044 24.8069L27.1023 23.75ZM27.7398 27.9625L25.7772 27.5777L25.7742 27.5929L25.7715 27.6082L27.7398 27.9625ZM27.1898 29.35L28.9246 30.3453L28.9246 30.3453L27.1898 29.35ZM25.8523 30.975L27.1592 32.4889L27.1986 32.455L27.2362 32.419L25.8523 30.975ZM17.3523 38.3125L16.0455 36.7986L11.9748 40.3125H17.3523V38.3125ZM28.5398 38.3875L27.4304 40.0516L27.47 40.078L27.5108 40.1025L28.5398 38.3875ZM28.5523 38.9125L27.3245 37.3338L27.2788 37.3693L27.2353 37.4073L28.5523 38.9125ZM16.2398 38.9125L14.7347 40.2295L14.7785 40.2796L14.8256 40.3267L16.2398 38.9125ZM16.3023 38.3125L17.5827 39.8489L17.5956 39.8382L17.6083 39.8273L16.3023 38.3125ZM25.2773 30.575L26.5833 32.0898L26.6229 32.0556L26.6607 32.0194L25.2773 30.575ZM26.5773 29.0375L24.8762 27.9859L24.8692 27.9971L24.8624 28.0085L26.5773 29.0375ZM27.0898 27.8125L25.1221 27.4547L25.1188 27.4729L25.1158 27.4912L27.0898 27.8125ZM26.5273 24.1625L24.8193 25.203L24.8247 25.2118L26.5273 24.1625ZM24.6898 22.4375L23.7217 24.1876L23.7289 24.1915L23.7361 24.1954L24.6898 22.4375ZM19.3148 22.5L20.3886 24.1873L20.3935 24.1842L19.3148 22.5ZM17.3773 24.7125L15.6277 23.7437L15.622 23.754L15.6164 23.7643L17.3773 24.7125ZM17.2148 24.9125L16.3204 23.1236L16.3204 23.1237L17.2148 24.9125ZM17.0523 22.95C17.229 22.95 17.425 22.9803 17.6237 23.056C17.8223 23.1317 17.9879 23.2391 18.1186 23.3552L15.4611 26.3448C15.9008 26.7357 16.4606 26.95 17.0523 26.95V22.95ZM18.2847 23.5213C18.387 23.6364 18.493 23.7915 18.5718 23.9885C18.6517 24.1881 18.6898 24.3969 18.6898 24.6H14.6898C14.6898 25.2294 14.9362 25.7751 15.295 26.1787L18.2847 23.5213ZM18.6898 24.6C18.6898 24.9563 18.5848 25.2197 18.5162 25.3569L14.9385 23.5681C14.8199 23.8053 14.6898 24.1604 14.6898 24.6H18.6898ZM18.5351 25.3181C18.9072 24.5318 19.3794 24.016 19.929 23.6762L17.8257 20.2738C16.542 21.0674 15.5808 22.2098 14.9196 23.6069L18.5351 25.3181ZM19.9401 23.6693C20.5133 23.3097 21.181 23.1125 22.0023 23.1125V19.1125C20.4903 19.1125 19.0747 19.4903 17.8146 20.2807L19.9401 23.6693ZM22.0023 23.1125C22.81 23.1125 23.483 23.2812 24.0625 23.5845L25.9172 20.0405C24.7134 19.4105 23.3947 19.1125 22.0023 19.1125V23.1125ZM24.0692 23.588C24.6631 23.8959 25.0903 24.2972 25.3996 24.7992L28.8051 22.7008C28.0977 21.5528 27.1166 20.6624 25.9105 20.037L24.0692 23.588ZM25.4044 24.8069C25.7022 25.2854 25.8648 25.8355 25.8648 26.5125H29.8648C29.8648 25.1395 29.5191 23.848 28.8003 22.6931L25.4044 24.8069ZM25.8648 26.5125C25.8648 26.9556 25.8304 27.3063 25.7772 27.5777L29.7025 28.3473C29.8159 27.7687 29.8648 27.1528 29.8648 26.5125H25.8648ZM25.7715 27.6082C25.7494 27.7311 25.6733 27.9743 25.4551 28.3547L28.9246 30.3453C29.2897 29.709 29.5803 29.0273 29.7082 28.3168L25.7715 27.6082ZM25.4551 28.3547C25.2889 28.6444 24.9833 29.0377 24.4685 29.531L27.2362 32.419C27.9214 31.7623 28.5075 31.0723 28.9246 30.3453L25.4551 28.3547ZM24.5455 29.4611L16.0455 36.7986L18.6592 39.8264L27.1592 32.4889L24.5455 29.4611ZM17.3523 40.3125H28.2648V36.3125H17.3523V40.3125ZM28.2648 40.3125C28.0592 40.3125 27.7454 40.2615 27.4304 40.0516L29.6492 36.7234C29.1843 36.4135 28.6872 36.3125 28.2648 36.3125V40.3125ZM27.5108 40.1025C27.3183 39.987 27.0868 39.7932 26.9097 39.4922C26.7295 39.1858 26.6648 38.8686 26.6648 38.6H30.6648C30.6648 37.7559 30.2105 37.0575 29.5688 36.6725L27.5108 40.1025ZM26.6648 38.6V38.6375H30.6648V38.6H26.6648ZM26.6648 38.6375C26.6648 38.5058 26.684 38.2912 26.7856 38.0427C26.8934 37.7793 27.0741 37.5285 27.3245 37.3338L29.7802 40.4912C30.4876 39.941 30.6648 39.1688 30.6648 38.6375H26.6648ZM27.2353 37.4073C27.6586 37.037 28.103 37 28.2648 37V41C28.6767 41 29.3127 40.9047 29.8694 40.4177L27.2353 37.4073ZM28.2648 37H16.5023V41H28.2648V37ZM16.5023 37C16.694 37 17.205 37.0493 17.6541 37.4983L14.8256 40.3267C15.3913 40.8924 16.0774 41 16.5023 41V37ZM17.745 37.5955C18.0728 37.9701 18.1523 38.3865 18.1523 38.65H14.1523C14.1523 39.1301 14.2903 39.7216 14.7347 40.2295L17.745 37.5955ZM18.1523 38.65V38.6375H14.1523V38.65H18.1523ZM18.1523 38.6375C18.1523 38.826 18.1156 39.0564 18.0058 39.2944C17.8953 39.5337 17.7398 39.718 17.5827 39.8489L15.022 36.7761C14.4534 37.2499 14.1523 37.9273 14.1523 38.6375H18.1523ZM17.6083 39.8273L26.5833 32.0898L23.9714 29.0602L14.9964 36.7977L17.6083 39.8273ZM26.6607 32.0194C27.3204 31.3876 27.8908 30.7356 28.2923 30.0665L24.8624 28.0085C24.7138 28.256 24.4176 28.6291 23.894 29.1306L26.6607 32.0194ZM28.2785 30.0891C28.6391 29.5059 28.9481 28.8449 29.0639 28.1338L25.1158 27.4912C25.1166 27.4862 25.1105 27.5258 25.0729 27.6156C25.0356 27.7047 24.974 27.8276 24.8762 27.9859L28.2785 30.0891ZM29.0576 28.1703C29.1521 27.6502 29.1898 27.0819 29.1898 26.4875H25.1898C25.1898 26.9264 25.1609 27.2414 25.1221 27.4547L29.0576 28.1703ZM29.1898 26.4875C29.1898 25.2796 28.864 24.1419 28.23 23.1132L24.8247 25.2118C25.0741 25.6164 25.1898 26.0287 25.1898 26.4875H29.1898ZM28.2354 23.122C27.6007 22.0802 26.7212 21.2642 25.6436 20.6796L23.7361 24.1954C24.2252 24.4608 24.5706 24.7948 24.8193 25.203L28.2354 23.122ZM25.658 20.6874C24.5549 20.0772 23.3424 19.7875 22.0648 19.7875V23.7875C22.7207 23.7875 23.2582 23.9311 23.7217 24.1876L25.658 20.6874ZM22.0648 19.7875C20.6824 19.7875 19.3691 20.0902 18.2362 20.8158L20.3935 24.1842C20.7439 23.9598 21.2639 23.7875 22.0648 23.7875V19.7875ZM18.2411 20.8127C17.149 21.5076 16.2969 22.535 15.6277 23.7437L19.127 25.6813C19.5744 24.8734 20.014 24.4257 20.3886 24.1873L18.2411 20.8127ZM15.6164 23.7643C15.6236 23.7509 15.6627 23.6786 15.7407 23.5826C15.8062 23.5019 15.9917 23.288 16.3204 23.1236L18.1093 26.7014C18.488 26.512 18.7255 26.2522 18.8452 26.1049C18.9774 25.9423 19.0728 25.7824 19.1383 25.6607L15.6164 23.7643ZM16.3204 23.1237C16.515 23.0264 16.7693 22.95 17.0648 22.95V26.95C17.4604 26.95 17.8147 26.8486 18.1093 26.7013L16.3204 23.1237ZM17.0648 22.95H17.0523V26.95H17.0648V22.95ZM30.5617 34.95L31.6711 36.6141L31.8359 36.5042L31.9759 36.3642L30.5617 34.95ZM31.0992 35.2125L32.9089 34.3609L32.9056 34.354L32.9023 34.347L31.0992 35.2125ZM33.3492 37.85L32.403 39.612L32.4127 39.6172L32.4224 39.6223L33.3492 37.85ZM39.0992 37.7375L40.2243 39.3911L40.2359 39.3831L39.0992 37.7375ZM40.9367 35.6625L42.722 36.5641L42.7256 36.5569L40.9367 35.6625ZM40.8617 30.625L39.0975 31.5671L39.103 31.5773L39.1086 31.5875L40.8617 30.625ZM38.9492 28.5125L37.8241 30.1661L37.832 30.1714L38.9492 28.5125ZM32.4617 29.025L33.7201 30.5795L33.7324 30.5696L33.7444 30.5595L32.4617 29.025ZM32.0367 29.45L33.6254 30.6649L33.6254 30.6649L32.0367 29.45ZM31.7117 29.9375L33.4183 30.9804L33.426 30.9677L33.4336 30.955L31.7117 29.9375ZM31.4867 30.2625L32.9009 31.6767L32.948 31.6296L32.9919 31.5795L31.4867 30.2625ZM30.9242 29.975L28.9288 29.8402L28.9242 29.9075V29.975H30.9242ZM31.4992 21.4625L33.4947 21.5973L33.4965 21.5699L33.4976 21.5424L31.4992 21.4625ZM32.1617 21.825V19.825H30.3054L30.1673 21.6762L32.1617 21.825ZM31.6367 28.8625L29.6423 28.7137L29.1973 34.6788L33.1406 30.181L31.6367 28.8625ZM33.6117 27.5L34.327 29.3677L33.6117 27.5ZM41.4367 30.2125L43.1901 29.2505V29.2504L41.4367 30.2125ZM41.3992 36.2375L43.1251 37.2481L41.3992 36.2375ZM39.1867 38.4375L38.1828 36.7077L39.1867 38.4375ZM32.6867 38.2375L31.5389 39.8753L31.5468 39.8809L31.5548 39.8864L32.6867 38.2375ZM30.4492 35.525L32.2667 34.6903L32.117 34.3644L31.8634 34.1108L30.4492 35.525ZM30.5242 34.975L29.4148 33.3109L29.3686 33.3417L29.3242 33.375L30.5242 34.975ZM31.9759 36.3642C31.4641 36.8761 30.8773 36.9 30.7242 36.9V32.9C30.4212 32.9 29.726 32.9573 29.1475 33.5358L31.9759 36.3642ZM30.7242 36.9C30.2905 36.9 29.9143 36.7347 29.6501 36.5146C29.42 36.3228 29.3218 36.1314 29.2962 36.078L32.9023 34.347C32.6695 33.8621 32.0172 32.9 30.7242 32.9V36.9ZM29.2896 36.0641C30.0044 37.583 31.0052 38.8613 32.403 39.612L34.2955 36.088C33.8932 35.872 33.3941 35.392 32.9089 34.3609L29.2896 36.0641ZM32.4224 39.6223C33.6094 40.243 34.8806 40.5625 36.2117 40.5625V36.5625C35.5428 36.5625 34.9058 36.407 34.276 36.0777L32.4224 39.6223ZM36.2117 40.5625C37.6708 40.5625 39.0386 40.1978 40.2243 39.391L37.9741 36.084C37.5431 36.3772 36.986 36.5625 36.2117 36.5625V40.5625ZM40.2359 39.3831C41.3013 38.6472 42.1452 37.7062 42.722 36.5641L39.1515 34.7609C38.895 35.2688 38.5138 35.7111 37.9626 36.0919L40.2359 39.3831ZM42.7256 36.5569C43.2614 35.4852 43.5617 34.3558 43.5617 33.1875H39.5617C39.5617 33.6525 39.4453 34.1731 39.1479 34.7681L42.7256 36.5569ZM43.5617 33.1875C43.5617 31.951 43.2222 30.7686 42.6149 29.6625L39.1086 31.5875C39.4346 32.1814 39.5617 32.7074 39.5617 33.1875H43.5617ZM42.6259 29.6829C42.0118 28.5329 41.1507 27.5839 40.0664 26.8536L37.832 30.1714C38.3811 30.5411 38.7949 31.0005 39.0975 31.5671L42.6259 29.6829ZM40.0743 26.859C38.9292 26.0798 37.6361 25.6875 36.2492 25.6875V29.6875C36.8457 29.6875 37.3526 29.8452 37.8241 30.166L40.0743 26.859ZM36.2492 25.6875C34.3469 25.6875 32.6241 26.2825 31.179 27.4905L33.7444 30.5595C34.4327 29.9841 35.2349 29.6875 36.2492 29.6875V25.6875ZM31.2033 27.4705C30.9357 27.6872 30.6739 27.9397 30.448 28.2351L33.6254 30.6649C33.6162 30.6769 33.6377 30.6462 33.7201 30.5795L31.2033 27.4705ZM30.448 28.2351C30.2832 28.4506 30.1311 28.681 29.9899 28.92L33.4336 30.955C33.509 30.8274 33.5735 30.7328 33.6254 30.6649L30.448 28.2351ZM30.0052 28.8946C29.9896 28.9201 29.9764 28.9411 29.9655 28.9579C29.9546 28.9749 29.9469 28.9862 29.9423 28.9928C29.9376 28.9997 29.9378 28.999 29.9427 28.9926C29.9472 28.9867 29.9603 28.9698 29.9816 28.9455L32.9919 31.5795C33.1664 31.38 33.3131 31.1525 33.4183 30.9804L30.0052 28.8946ZM30.0725 28.8483C30.2344 28.6864 30.4343 28.5526 30.6618 28.4641C30.8853 28.3772 31.0938 28.35 31.2617 28.35V32.35C31.8192 32.35 32.4242 32.1535 32.9009 31.6767L30.0725 28.8483ZM31.2617 28.35H31.2242V32.35H31.2617V28.35ZM31.2242 28.35C31.5656 28.35 32.1385 28.4788 32.561 29.0069C32.9152 29.4497 32.9242 29.8863 32.9242 29.975H28.9242C28.9242 30.3137 28.9832 30.9378 29.4375 31.5056C29.9599 32.1587 30.6828 32.35 31.2242 32.35V28.35ZM32.9197 30.1098L33.4947 21.5973L29.5038 21.3277L28.9288 29.8402L32.9197 30.1098ZM33.4976 21.5424C33.4876 21.7924 33.3921 22.3029 32.925 22.72C32.4842 23.1136 32.0152 23.15 31.8492 23.15V19.15C31.4583 19.15 30.8184 19.2385 30.2609 19.7362C29.6771 20.2575 29.5191 20.9242 29.5008 21.3826L33.4976 21.5424ZM31.8492 23.15H40.5617V19.15H31.8492V23.15ZM40.5617 23.15C40.46 23.15 40.0111 23.136 39.5671 22.7636C39.0558 22.3347 38.9492 21.7763 38.9492 21.475H42.9492C42.9492 20.957 42.7781 20.2361 42.1376 19.6989C41.5644 19.2182 40.9218 19.15 40.5617 19.15V23.15ZM38.9492 21.475V21.5H42.9492V21.475H38.9492ZM38.9492 21.5C38.9492 21.1987 39.0558 20.6402 39.5671 20.2114C40.0111 19.839 40.46 19.825 40.5617 19.825V23.825C40.9218 23.825 41.5644 23.7568 42.1376 23.2761C42.7781 22.7389 42.9492 22.018 42.9492 21.5H38.9492ZM40.5617 19.825H32.1617V23.825H40.5617V19.825ZM30.1673 21.6762L29.6423 28.7137L33.6312 29.0113L34.1562 21.9738L30.1673 21.6762ZM33.1406 30.181C33.4516 29.8262 33.8357 29.5559 34.327 29.3677L32.8964 25.6323C31.8211 26.0441 30.8885 26.6821 30.1328 27.544L33.1406 30.181ZM34.327 29.3677C34.8538 29.166 35.4741 29.05 36.2117 29.05V25.05C35.0493 25.05 33.9363 25.234 32.8964 25.6323L34.327 29.3677ZM36.2117 29.05C36.9819 29.05 37.6314 29.2423 38.213 29.6123L40.3605 26.2377C39.1087 25.4411 37.7082 25.05 36.2117 25.05V29.05ZM38.213 29.6123C38.8491 30.0171 39.3305 30.5315 39.6833 31.1745L43.1901 29.2504C42.5096 28.0101 41.5577 26.9995 40.3605 26.2377L38.213 29.6123ZM39.6833 31.1745C40.0434 31.8309 40.2117 32.4929 40.2117 33.1875H44.2117C44.2117 31.7988 43.8633 30.4774 43.1901 29.2505L39.6833 31.1745ZM40.2117 33.1875C40.2117 33.9532 40.0292 34.6191 39.6734 35.2269L43.1251 37.2481C43.8525 36.0059 44.2117 34.6385 44.2117 33.1875H40.2117ZM39.6734 35.2269C39.3074 35.8517 38.8195 36.3382 38.1828 36.7077L40.1906 40.1673C41.4206 39.4535 42.4077 38.4733 43.1251 37.2481L39.6734 35.2269ZM38.1828 36.7077C37.5723 37.062 36.8845 37.25 36.0742 37.25V41.25C37.5473 41.25 38.9345 40.8963 40.1906 40.1673L38.1828 36.7077ZM36.0742 37.25C35.174 37.25 34.4454 37.0188 33.8186 36.5886L31.5548 39.8864C32.8947 40.8062 34.4245 41.25 36.0742 41.25V37.25ZM33.8346 36.5997C33.1619 36.1282 32.6415 35.5063 32.2667 34.6903L28.6317 36.3597C29.2903 37.7937 30.2615 38.9801 31.5389 39.8753L33.8346 36.5997ZM31.8634 34.1108C32.1381 34.3855 32.2613 34.6808 32.316 34.8724C32.3696 35.0599 32.3742 35.2032 32.3742 35.2625H28.3742C28.3742 35.5429 28.4092 36.3134 29.035 36.9392L31.8634 34.1108ZM32.3742 35.2625C32.3742 35.5001 32.3206 35.7682 32.1849 36.0283C32.0516 36.2838 31.876 36.4612 31.7242 36.575L29.3242 33.375C28.7624 33.7963 28.3742 34.4658 28.3742 35.2625H32.3742ZM31.6336 36.6391L31.6711 36.6141L29.4523 33.2859L29.4148 33.3109L31.6336 36.6391Z" fill="#C7D8F8"/>
</svg>
