<svg width="98" height="59" viewBox="0 0 98 59" fill="none" xmlns="http://www.w3.org/2000/svg">
<line x1="58" y1="28.5" x2="98" y2="28.5" stroke="white" stroke-width="3"/>
<circle cx="29.5" cy="29.5" r="29.5" fill="white"/>
<path d="M12.6133 35.575C12.5049 35.575 12.4216 35.5458 12.3633 35.4875C12.3049 35.4292 12.2758 35.3583 12.2758 35.275C12.2758 35.15 12.3133 35.0333 12.3883 34.925L21.5633 21.4875C21.5799 21.4625 21.6091 21.4208 21.6508 21.3625C21.6924 21.3042 21.7341 21.2583 21.7758 21.225C21.8258 21.1917 21.8883 21.175 21.9633 21.175H22.0258C22.1174 21.175 22.1799 21.2083 22.2133 21.275C22.2549 21.3333 22.2758 21.4042 22.2758 21.4875V34.875H23.7758C24.0341 34.875 24.1633 34.9792 24.1633 35.1875V35.2125C24.1633 35.4542 24.0341 35.575 23.7758 35.575H22.2758V38.5875C22.2758 38.7125 22.2424 38.8125 22.1758 38.8875C22.1174 38.9625 22.0383 39 21.9383 39H21.9133C21.7966 39 21.7133 38.9667 21.6633 38.9C21.6216 38.825 21.6008 38.7208 21.6008 38.5875V35.575H12.6133ZM21.6008 22.6875L13.2508 34.875H21.6008V22.6875ZM26.718 30.1125C26.718 28.4792 27.118 26.9708 27.918 25.5875C28.7263 24.2042 29.818 23.1083 31.193 22.3C32.5763 21.4833 34.0846 21.075 35.718 21.075C37.3513 21.075 38.8596 21.4833 40.243 22.3C41.6263 23.1083 42.7221 24.2042 43.5305 25.5875C44.3471 26.9708 44.7555 28.4792 44.7555 30.1125C44.7555 31.7458 44.3471 33.2542 43.5305 34.6375C42.7221 36.0125 41.6263 37.1042 40.243 37.9125C38.8596 38.7125 37.3513 39.1125 35.718 39.1125C34.0846 39.1125 32.5763 38.7125 31.193 37.9125C29.818 37.1042 28.7263 36.0125 27.918 34.6375C27.118 33.2542 26.718 31.7458 26.718 30.1125ZM27.4305 30.1125C27.4305 31.6042 27.8013 32.9833 28.543 34.25C29.293 35.5167 30.3013 36.525 31.568 37.275C32.843 38.0167 34.2263 38.3875 35.718 38.3875C37.218 38.3875 38.6055 38.0167 39.8805 37.275C41.1555 36.525 42.168 35.5167 42.918 34.25C43.668 32.9833 44.043 31.6042 44.043 30.1125C44.043 28.6125 43.668 27.225 42.918 25.95C42.168 24.675 41.1555 23.6625 39.8805 22.9125C38.6055 22.1625 37.218 21.7875 35.718 21.7875C34.2263 21.7875 32.843 22.1625 31.568 22.9125C30.3013 23.6625 29.293 24.6792 28.543 25.9625C27.8013 27.2375 27.4305 28.6208 27.4305 30.1125Z" fill="#C7D8F8"/>
<path d="M12.3633 35.4875L10.9491 36.9017L10.9491 36.9017L12.3633 35.4875ZM12.3883 34.925L14.0327 36.0634L14.04 36.0528L12.3883 34.925ZM21.5633 21.4875L23.215 22.6153L23.2212 22.6061L23.2274 22.5969L21.5633 21.4875ZM21.6508 21.3625L20.0233 20.2L20.0233 20.2L21.6508 21.3625ZM21.7758 21.225L20.6664 19.5609L20.5942 19.609L20.5264 19.6633L21.7758 21.225ZM22.2133 21.275L20.4244 22.1694L20.4946 22.3098L20.5858 22.4375L22.2133 21.275ZM22.2758 34.875H20.2758V36.875H22.2758V34.875ZM22.2758 35.575V33.575H20.2758V35.575H22.2758ZM22.1758 38.8875L20.681 37.5588L20.6374 37.6078L20.5971 37.6596L22.1758 38.8875ZM21.6633 38.9L19.915 39.8713L19.9813 39.9907L20.0633 40.1L21.6633 38.9ZM21.6008 35.575H23.6008V33.575H21.6008V35.575ZM21.6008 22.6875H23.6008V16.2298L19.9509 21.5571L21.6008 22.6875ZM13.2508 34.875L11.6009 33.7446L9.45615 36.875H13.2508V34.875ZM21.6008 34.875V36.875H23.6008V34.875H21.6008ZM12.6133 33.575C12.8628 33.575 13.3542 33.65 13.7775 34.0733L10.9491 36.9017C11.489 37.4417 12.1471 37.575 12.6133 37.575V33.575ZM13.7775 34.0733C13.9205 34.2163 14.0535 34.4021 14.147 34.6291C14.2403 34.8558 14.2758 35.0785 14.2758 35.275H10.2758C10.2758 35.8827 10.5114 36.464 10.9491 36.9017L13.7775 34.0733ZM14.2758 35.275C14.2758 35.5795 14.176 35.8564 14.0327 36.0634L10.7439 33.7866C10.4506 34.2102 10.2758 34.7205 10.2758 35.275H14.2758ZM14.04 36.0528L23.215 22.6153L19.9116 20.3597L10.7366 33.7972L14.04 36.0528ZM23.2274 22.5969C23.2235 22.6027 23.2252 22.6 23.2361 22.5844C23.2459 22.5704 23.2597 22.5509 23.2783 22.525L20.0233 20.2C19.9815 20.2586 19.9355 20.3236 19.8992 20.3781L23.2274 22.5969ZM23.2782 22.525C23.247 22.5687 23.1669 22.6733 23.0252 22.7867L20.5264 19.6633C20.3013 19.8433 20.1379 20.0396 20.0233 20.2L23.2782 22.525ZM22.8852 22.8891C22.5335 23.1236 22.185 23.175 21.9633 23.175V19.175C21.5916 19.175 21.118 19.2598 20.6664 19.5609L22.8852 22.8891ZM21.9633 23.175H22.0258V19.175H21.9633V23.175ZM22.0258 23.175C21.837 23.175 21.5314 23.1413 21.2002 22.9647C20.8457 22.7756 20.583 22.4865 20.4244 22.1694L24.0021 20.3806C23.5455 19.4673 22.6654 19.175 22.0258 19.175V23.175ZM20.5858 22.4375C20.3475 22.1038 20.2758 21.7511 20.2758 21.4875H24.2758C24.2758 21.0573 24.1624 20.5628 23.8407 20.1125L20.5858 22.4375ZM20.2758 21.4875V34.875H24.2758V21.4875H20.2758ZM22.2758 36.875H23.7758V32.875H22.2758V36.875ZM23.7758 36.875C23.6884 36.875 23.2523 36.8659 22.8109 36.51C22.2873 36.0877 22.1633 35.5192 22.1633 35.1875H26.1633C26.1633 34.6475 25.9747 33.9228 25.3219 33.3963C24.7513 32.9362 24.1215 32.875 23.7758 32.875V36.875ZM22.1633 35.1875V35.2125H26.1633V35.1875H22.1633ZM22.1633 35.2125C22.1633 34.9896 22.2292 34.4644 22.7001 34.0238C23.1459 33.6068 23.6286 33.575 23.7758 33.575V37.575C24.1813 37.575 24.8577 37.4828 25.4327 36.9449C26.0328 36.3835 26.1633 35.677 26.1633 35.2125H22.1633ZM23.7758 33.575H22.2758V37.575H23.7758V33.575ZM20.2758 35.575V38.5875H24.2758V35.575H20.2758ZM20.2758 38.5875C20.2758 38.3477 20.3477 37.9336 20.681 37.5588L23.6706 40.2162C24.1372 39.6914 24.2758 39.0773 24.2758 38.5875H20.2758ZM20.5971 37.6596C20.7435 37.4714 20.9497 37.2908 21.2165 37.1644C21.48 37.0396 21.7341 37 21.9383 37V41C22.6179 41 23.2947 40.7065 23.7545 40.1154L20.5971 37.6596ZM21.9383 37H21.9133V41H21.9383V37ZM21.9133 37C22.1579 37 22.7994 37.0815 23.2633 37.7L20.0633 40.1C20.6272 40.8519 21.4353 41 21.9133 41V37ZM23.4116 37.9287C23.5118 38.1092 23.5567 38.2689 23.5776 38.3734C23.5985 38.4782 23.6008 38.5542 23.6008 38.5875H19.6008C19.6008 38.8894 19.6413 39.3787 19.915 39.8713L23.4116 37.9287ZM23.6008 38.5875V35.575H19.6008V38.5875H23.6008ZM21.6008 33.575H12.6133V37.575H21.6008V33.575ZM19.9509 21.5571L11.6009 33.7446L14.9007 36.0054L23.2507 23.8179L19.9509 21.5571ZM13.2508 36.875H21.6008V32.875H13.2508V36.875ZM23.6008 34.875V22.6875H19.6008V34.875H23.6008ZM27.918 25.5875L26.1911 24.5785L26.1866 24.5862L27.918 25.5875ZM31.193 22.3L32.2066 24.0241L32.2097 24.0223L31.193 22.3ZM40.243 22.3L39.2262 24.0223L39.2339 24.0268L40.243 22.3ZM43.5305 25.5875L41.8036 26.5965L41.8082 26.6043L43.5305 25.5875ZM43.5305 34.6375L41.8082 33.6207L41.8063 33.6239L43.5305 34.6375ZM40.243 37.9125L41.2442 39.6438L41.252 39.6393L40.243 37.9125ZM31.193 37.9125L30.1794 39.6366L30.1855 39.6403L30.1917 39.6438L31.193 37.9125ZM27.918 34.6375L26.1866 35.6388L26.1902 35.6449L26.1938 35.6511L27.918 34.6375ZM28.543 34.25L26.817 35.2606L26.822 35.269L28.543 34.25ZM31.568 37.275L30.549 38.996L30.5556 38.9999L30.5623 39.0038L31.568 37.275ZM39.8805 37.275L40.8861 39.0038L40.8945 38.9989L39.8805 37.275ZM42.918 25.95L44.6418 24.936V24.936L42.918 25.95ZM39.8805 22.9125L38.8664 24.6364L39.8805 22.9125ZM31.568 22.9125L30.5539 21.1886L30.549 21.1915L31.568 22.9125ZM28.543 25.9625L26.8162 24.9534L26.8142 24.9569L28.543 25.9625ZM28.718 30.1125C28.718 28.8226 29.0293 27.6608 29.6493 26.5887L26.1866 24.5862C25.2066 26.2809 24.718 28.1357 24.718 30.1125H28.718ZM29.6448 26.5965C30.2813 25.5073 31.1279 24.6582 32.2066 24.0241L30.1794 20.5759C28.508 21.5584 27.1713 22.9011 26.1912 24.5785L29.6448 26.5965ZM32.2097 24.0223C33.2797 23.3906 34.436 23.075 35.718 23.075V19.075C33.7333 19.075 31.8729 19.5761 30.1762 20.5777L32.2097 24.0223ZM35.718 23.075C36.9999 23.075 38.1562 23.3906 39.2262 24.0223L41.2597 20.5777C39.563 19.5761 37.7027 19.075 35.718 19.075V23.075ZM39.2339 24.0268C40.3203 24.6616 41.1689 25.5102 41.8037 26.5965L45.2573 24.5785C44.2754 22.8981 42.9323 21.5551 41.252 20.5732L39.2339 24.0268ZM41.8082 26.6043C42.4399 27.6742 42.7555 28.8305 42.7555 30.1125H46.7555C46.7555 28.1278 46.2544 26.2674 45.2527 24.5707L41.8082 26.6043ZM42.7555 30.1125C42.7555 31.3945 42.4399 32.5508 41.8082 33.6207L45.2527 35.6543C46.2544 33.9576 46.7555 32.0972 46.7555 30.1125H42.7555ZM41.8063 33.6239C41.1722 34.7025 40.3232 35.5492 39.2339 36.1857L41.252 39.6393C42.9294 38.6591 44.272 37.3225 45.2546 35.6511L41.8063 33.6239ZM39.2417 36.1812C38.1697 36.8011 37.0079 37.1125 35.718 37.1125V41.1125C37.6947 41.1125 39.5496 40.6239 41.2442 39.6438L39.2417 36.1812ZM35.718 37.1125C34.4281 37.1125 33.2662 36.8011 32.1942 36.1812L30.1917 39.6438C31.8864 40.6239 33.7412 41.1125 35.718 41.1125V37.1125ZM32.2066 36.1884C31.125 35.5525 30.2779 34.7055 29.6421 33.6239L26.1938 35.6511C27.1747 37.3195 28.5109 38.6558 30.1794 39.6366L32.2066 36.1884ZM29.6493 33.6362C29.0293 32.5642 28.718 31.4024 28.718 30.1125H24.718C24.718 32.0893 25.2066 33.9441 26.1866 35.6388L29.6493 33.6362ZM25.4305 30.1125C25.4305 31.9533 25.8929 33.6822 26.8171 35.2606L30.2689 33.2394C29.7097 32.2845 29.4305 31.255 29.4305 30.1125H25.4305ZM26.822 35.269C27.7433 36.8249 28.9931 38.0747 30.549 38.996L32.587 35.554C31.6096 34.9753 30.8426 34.2084 30.2639 33.231L26.822 35.269ZM30.5623 39.0038C32.1463 39.9252 33.8772 40.3875 35.718 40.3875V36.3875C34.5754 36.3875 33.5396 36.1081 32.5736 35.5462L30.5623 39.0038ZM35.718 40.3875C37.565 40.3875 39.3003 39.9262 40.8861 39.0038L38.8748 35.5462C37.9106 36.1071 36.871 36.3875 35.718 36.3875V40.3875ZM40.8945 38.9989C42.4594 38.0783 43.7158 36.8281 44.6389 35.269L41.197 33.231C40.6202 34.2053 39.8515 34.9717 38.8664 35.5511L40.8945 38.9989ZM44.6389 35.269C45.5741 33.6895 46.043 31.9577 46.043 30.1125H42.043C42.043 31.2507 41.7618 32.2772 41.197 33.231L44.6389 35.269ZM46.043 30.1125C46.043 28.2612 45.5753 26.5228 44.6418 24.936L41.1941 26.964C41.7607 27.9272 42.043 28.9638 42.043 30.1125H46.043ZM44.6418 24.936C43.7194 23.3679 42.4626 22.111 40.8945 21.1886L38.8664 24.6364C39.8483 25.214 40.6165 25.9821 41.1941 26.964L44.6418 24.936ZM40.8945 21.1886C39.3077 20.2552 37.5693 19.7875 35.718 19.7875V23.7875C36.8666 23.7875 37.9033 24.0698 38.8664 24.6364L40.8945 21.1886ZM35.718 19.7875C33.8729 19.7875 32.139 20.2562 30.5539 21.1886L32.582 24.6364C33.5469 24.0688 34.5797 23.7875 35.718 23.7875V19.7875ZM30.549 21.1915C28.9867 22.1166 27.736 23.3795 26.8162 24.9534L30.2697 26.9716C30.8499 25.9789 31.6159 25.2084 32.587 24.6335L30.549 21.1915ZM26.8142 24.9569C25.8928 26.5408 25.4305 28.2717 25.4305 30.1125H29.4305C29.4305 28.9699 29.7098 27.9342 30.2718 26.9681L26.8142 24.9569Z" fill="#C7D8F8"/>
</svg>
