<svg width="98" height="59" viewBox="0 0 98 59" fill="none" xmlns="http://www.w3.org/2000/svg">
<line x1="58" y1="28.5" x2="98" y2="28.5" stroke="white" stroke-width="3"/>
<circle cx="29.5" cy="29.5" r="29.5" fill="white"/>
<path d="M22.8359 21.275C22.8943 21.2 22.9651 21.1625 23.0484 21.1625H23.0734C23.1568 21.1625 23.2318 21.1917 23.2984 21.25C23.3651 21.3 23.3984 21.3708 23.3984 21.4625C23.3984 21.5292 23.3734 21.6 23.3234 21.675L19.0859 27.75C19.9859 27.275 20.9526 27.0375 21.9859 27.0375C23.0943 27.0375 24.1151 27.3125 25.0484 27.8625C25.9901 28.4125 26.7359 29.1583 27.2859 30.1C27.8359 31.0333 28.1109 32.0542 28.1109 33.1625C28.1109 34.2625 27.8359 35.2792 27.2859 36.2125C26.7359 37.1458 25.9901 37.8875 25.0484 38.4375C24.1151 38.9875 23.0943 39.2625 21.9859 39.2625C20.8859 39.2625 19.8693 38.9875 18.9359 38.4375C18.0026 37.8875 17.2609 37.1458 16.7109 36.2125C16.1693 35.2792 15.8984 34.2625 15.8984 33.1625C15.8984 31.9042 16.2276 30.7958 16.8859 29.8375L22.8359 21.275ZM16.5484 33.1625C16.5484 34.1458 16.7943 35.0542 17.2859 35.8875C17.7859 36.7208 18.4526 37.3833 19.2859 37.875C20.1276 38.3667 21.0401 38.6125 22.0234 38.6125C23.0068 38.6125 23.9151 38.3667 24.7484 37.875C25.5901 37.3833 26.2568 36.7208 26.7484 35.8875C27.2401 35.0542 27.4859 34.1458 27.4859 33.1625C27.4859 32.1708 27.2401 31.2583 26.7484 30.425C26.2568 29.5833 25.5901 28.9167 24.7484 28.425C23.9151 27.9333 23.0068 27.6875 22.0234 27.6875C21.0401 27.6875 20.1276 27.9333 19.2859 28.425C18.4526 28.9167 17.7859 29.5833 17.2859 30.425C16.7943 31.2583 16.5484 32.1708 16.5484 33.1625ZM30.5031 34.95C30.5365 34.9167 30.5906 34.9 30.6656 34.9C30.8156 34.9 30.9406 35.0042 31.0406 35.2125C31.6406 36.4875 32.3906 37.3667 33.2906 37.85C34.199 38.325 35.1531 38.5625 36.1531 38.5625C37.2698 38.5625 38.2323 38.2875 39.0406 37.7375C39.849 37.1792 40.4615 36.4875 40.8781 35.6625C41.2948 34.8292 41.5031 34.0042 41.5031 33.1875C41.5031 32.3292 41.2698 31.475 40.8031 30.625C40.3448 29.7667 39.7073 29.0625 38.8906 28.5125C38.0823 27.9625 37.1823 27.6875 36.1906 27.6875C34.7323 27.6875 33.4698 28.1333 32.4031 29.025C32.2281 29.1667 32.0865 29.3083 31.9781 29.45C31.8698 29.5917 31.7615 29.7542 31.6531 29.9375C31.5615 30.0875 31.4865 30.1958 31.4281 30.2625C31.3698 30.3208 31.2948 30.35 31.2031 30.35H31.1656C30.9656 30.35 30.8656 30.225 30.8656 29.975L31.4406 21.4625C31.449 21.2542 31.5656 21.15 31.7906 21.15H40.5031C40.7615 21.15 40.8906 21.2583 40.8906 21.475V21.5C40.8906 21.7167 40.7615 21.825 40.5031 21.825H32.1031L31.5781 28.8625C32.1115 28.2542 32.7698 27.8 33.5531 27.5C34.3365 27.2 35.2031 27.05 36.1531 27.05C37.2865 27.05 38.3115 27.3417 39.2281 27.925C40.1448 28.5083 40.8615 29.2708 41.3781 30.2125C41.8948 31.1542 42.1531 32.1458 42.1531 33.1875C42.1531 34.2958 41.8823 35.3125 41.3406 36.2375C40.799 37.1625 40.0615 37.8958 39.1281 38.4375C38.1948 38.9792 37.1573 39.25 36.0156 39.25C34.7406 39.25 33.6115 38.9125 32.6281 38.2375C31.6531 37.5542 30.9073 36.65 30.3906 35.525C30.3406 35.475 30.3156 35.3875 30.3156 35.2625C30.3156 35.1458 30.3656 35.05 30.4656 34.975L30.5031 34.95Z" fill="#C7D8F8"/>
<path d="M22.8359 21.275L21.2572 20.0471L21.2242 20.0896L21.1935 20.1337L22.8359 21.275ZM23.2984 21.25L21.9814 22.7552L22.0381 22.8048L22.0984 22.85L23.2984 21.25ZM23.3234 21.675L24.9638 22.8192L24.9759 22.8019L24.9875 22.7844L23.3234 21.675ZM19.0859 27.75L17.4456 26.6058L20.0195 29.5188L19.0859 27.75ZM25.0484 27.8625L24.033 29.5856L24.0397 29.5895L25.0484 27.8625ZM27.2859 30.1L25.5589 31.1087L25.5629 31.1154L27.2859 30.1ZM27.2859 36.2125L25.5629 35.1971L27.2859 36.2125ZM25.0484 38.4375L24.0397 36.7105L24.0331 36.7144L25.0484 38.4375ZM18.9359 38.4375L17.9206 40.1606L18.9359 38.4375ZM16.7109 36.2125L14.9811 37.2164L14.9879 37.2279L16.7109 36.2125ZM16.8859 29.8375L15.2435 28.6962L15.2374 28.7051L16.8859 29.8375ZM17.2859 35.8875L15.5634 36.9038L15.5672 36.9102L15.571 36.9165L17.2859 35.8875ZM19.2859 37.875L18.2696 39.5976L18.2771 39.6019L19.2859 37.875ZM24.7484 37.875L23.7396 36.148L23.7321 36.1525L24.7484 37.875ZM26.7484 35.8875L25.0259 34.8712L26.7484 35.8875ZM26.7484 30.425L25.0215 31.4338L25.0259 31.4413L26.7484 30.425ZM24.7484 28.425L23.7321 30.1476L23.7396 30.1519L24.7484 28.425ZM19.2859 28.425L18.2771 26.698L18.2696 26.7025L19.2859 28.425ZM17.2859 30.425L15.5665 29.4035L15.5634 29.4087L17.2859 30.425ZM24.4146 22.5029C24.3019 22.6479 24.1253 22.8223 23.8686 22.9582C23.6041 23.0982 23.3196 23.1625 23.0484 23.1625V19.1625C22.256 19.1625 21.6342 19.5624 21.2572 20.0471L24.4146 22.5029ZM23.0484 23.1625H23.0734V19.1625H23.0484V23.1625ZM23.0734 23.1625C22.8761 23.1625 22.6691 23.1269 22.4673 23.0484C22.2673 22.9706 22.1055 22.8637 21.9814 22.7552L24.6154 19.7448C24.2092 19.3894 23.6734 19.1625 23.0734 19.1625V23.1625ZM22.0984 22.85C21.8878 22.6921 21.6951 22.4713 21.5638 22.1922C21.4354 21.9194 21.3984 21.6611 21.3984 21.4625H25.3984C25.3984 20.814 25.1241 20.1193 24.4984 19.65L22.0984 22.85ZM21.3984 21.4625C21.3984 21.0176 21.5655 20.7063 21.6593 20.5656L24.9875 22.7844C25.1814 22.4937 25.3984 22.0407 25.3984 21.4625H21.3984ZM21.6831 20.5308L17.4456 26.6058L20.7263 28.8942L24.9638 22.8192L21.6831 20.5308ZM20.0195 29.5188C20.6271 29.198 21.2727 29.0375 21.9859 29.0375V25.0375C20.6325 25.0375 19.3447 25.352 18.1524 25.9812L20.0195 29.5188ZM21.9859 29.0375C22.7458 29.0375 23.4148 29.2212 24.0331 29.5856L26.0638 26.1394C24.8155 25.4038 23.4427 25.0375 21.9859 25.0375V29.0375ZM24.0397 29.5895C24.6841 29.9659 25.1826 30.4643 25.5589 31.1087L29.0129 29.0913C28.2893 27.8524 27.2961 26.8591 26.0571 26.1355L24.0397 29.5895ZM25.5629 31.1154C25.9272 31.7337 26.1109 32.4026 26.1109 33.1625H30.1109C30.1109 31.7057 29.7447 30.333 29.009 29.0846L25.5629 31.1154ZM26.1109 33.1625C26.1109 33.9112 25.9286 34.5764 25.5629 35.1971L29.009 37.2279C29.7432 35.9819 30.1109 34.6138 30.1109 33.1625H26.1109ZM25.5629 35.1971C25.1875 35.8341 24.6885 36.3316 24.0397 36.7105L26.0571 40.1645C27.2917 39.4434 28.2844 38.4576 29.009 37.2279L25.5629 35.1971ZM24.0331 36.7144C23.4148 37.0788 22.7458 37.2625 21.9859 37.2625V41.2625C23.4427 41.2625 24.8155 40.8962 26.0638 40.1606L24.0331 36.7144ZM21.9859 37.2625C21.2373 37.2625 20.572 37.0802 19.9513 36.7144L17.9206 40.1606C19.1665 40.8948 20.5346 41.2625 21.9859 41.2625V37.2625ZM19.9513 36.7144C19.3101 36.3365 18.8119 35.8384 18.434 35.1971L14.9879 37.2279C15.71 38.4533 16.6952 39.4385 17.9206 40.1606L19.9513 36.7144ZM18.4407 35.2086C18.0796 34.5864 17.8984 33.9171 17.8984 33.1625H13.8984C13.8984 34.6079 14.2589 35.972 14.9811 37.2164L18.4407 35.2086ZM17.8984 33.1625C17.8984 32.2736 18.1241 31.5673 18.5344 30.9699L15.2374 28.7051C14.3312 30.0243 13.8984 31.5347 13.8984 33.1625H17.8984ZM18.5283 30.9788L24.4783 22.4163L21.1935 20.1337L15.2435 28.6962L18.5283 30.9788ZM14.5484 33.1625C14.5484 34.4972 14.887 35.7573 15.5634 36.9038L19.0085 34.8712C18.7015 34.351 18.5484 33.7945 18.5484 33.1625H14.5484ZM15.571 36.9165C16.2416 38.0343 17.1479 38.9357 18.2696 39.5975L20.3022 36.1525C19.7573 35.8309 19.3302 35.4074 19.0009 34.8585L15.571 36.9165ZM18.2771 39.6019C19.4277 40.2741 20.6889 40.6125 22.0234 40.6125V36.6125C21.3913 36.6125 20.8275 36.4593 20.2947 36.1481L18.2771 39.6019ZM22.0234 40.6125C23.3581 40.6125 24.6183 40.2739 25.7647 39.5975L23.7321 36.1525C23.2119 36.4594 22.6554 36.6125 22.0234 36.6125V40.6125ZM25.7572 39.6019C26.8913 38.9395 27.8046 38.0333 28.471 36.9038L25.0259 34.8712C24.709 35.4084 24.289 35.8272 23.7396 36.1481L25.7572 39.6019ZM28.471 36.9038C29.1474 35.7573 29.4859 34.4972 29.4859 33.1625H25.4859C25.4859 33.7945 25.3328 34.351 25.0259 34.8712L28.471 36.9038ZM29.4859 33.1625C29.4859 31.8227 29.149 30.5579 28.471 29.4087L25.0259 31.4413C25.3312 31.9588 25.4859 32.519 25.4859 33.1625H29.4859ZM28.4754 29.4162C27.8101 28.2773 26.8961 27.3633 25.7572 26.6981L23.7396 30.1519C24.2841 30.47 24.7034 30.8893 25.0215 31.4338L28.4754 29.4162ZM25.7647 26.7025C24.6183 26.0261 23.3581 25.6875 22.0234 25.6875V29.6875C22.6554 29.6875 23.2119 29.8406 23.7321 30.1475L25.7647 26.7025ZM22.0234 25.6875C20.6889 25.6875 19.4277 26.0259 18.2771 26.6981L20.2947 30.1519C20.8275 29.8407 21.3913 29.6875 22.0234 29.6875V25.6875ZM18.2696 26.7025C17.1432 27.3671 16.2361 28.2763 15.5665 29.4035L19.0054 31.4465C19.3358 30.8903 19.7621 30.4662 20.3022 30.1475L18.2696 26.7025ZM15.5634 29.4087C14.8854 30.5579 14.5484 31.8227 14.5484 33.1625H18.5484C18.5484 32.519 18.7031 31.9588 19.0085 31.4413L15.5634 29.4087ZM30.5031 34.95L31.6125 36.6141L31.7773 36.5042L31.9173 36.3642L30.5031 34.95ZM31.0406 35.2125L32.8503 34.3609L32.847 34.354L32.8437 34.347L31.0406 35.2125ZM33.2906 37.85L32.3444 39.612L32.3541 39.6172L32.3638 39.6223L33.2906 37.85ZM39.0406 37.7375L40.1657 39.3911L40.1773 39.3831L39.0406 37.7375ZM40.8781 35.6625L42.6634 36.5641L42.667 36.5569L40.8781 35.6625ZM40.8031 30.625L39.0389 31.5671L39.0444 31.5773L39.05 31.5875L40.8031 30.625ZM38.8906 28.5125L37.7655 30.1661L37.7734 30.1714L38.8906 28.5125ZM32.4031 29.025L33.6615 30.5795L33.6738 30.5696L33.6859 30.5595L32.4031 29.025ZM31.9781 29.45L33.5668 30.6649L33.5668 30.6649L31.9781 29.45ZM31.6531 29.9375L33.3597 30.9804L33.3674 30.9677L33.375 30.955L31.6531 29.9375ZM31.4281 30.2625L32.8423 31.6767L32.8894 31.6296L32.9333 31.5795L31.4281 30.2625ZM30.8656 29.975L28.8702 29.8402L28.8656 29.9075V29.975H30.8656ZM31.4406 21.4625L33.4361 21.5973L33.4379 21.5699L33.439 21.5424L31.4406 21.4625ZM32.1031 21.825V19.825H30.2468L30.1087 21.6762L32.1031 21.825ZM31.5781 28.8625L29.5837 28.7137L29.1387 34.6788L33.082 30.181L31.5781 28.8625ZM33.5531 27.5L34.2684 29.3677L33.5531 27.5ZM41.3781 30.2125L43.1315 29.2505V29.2504L41.3781 30.2125ZM41.3406 36.2375L43.0665 37.2481L41.3406 36.2375ZM39.1281 38.4375L38.1242 36.7077L39.1281 38.4375ZM32.6281 38.2375L31.4803 39.8753L31.4882 39.8809L31.4963 39.8864L32.6281 38.2375ZM30.3906 35.525L32.2081 34.6903L32.0584 34.3644L31.8048 34.1108L30.3906 35.525ZM30.4656 34.975L29.3562 33.3109L29.31 33.3417L29.2656 33.375L30.4656 34.975ZM31.9173 36.3642C31.4055 36.8761 30.8187 36.9 30.6656 36.9V32.9C30.3626 32.9 29.6674 32.9573 29.0889 33.5358L31.9173 36.3642ZM30.6656 36.9C30.2319 36.9 29.8557 36.7347 29.5915 36.5146C29.3614 36.3228 29.2632 36.1314 29.2376 36.078L32.8437 34.347C32.6109 33.8621 31.9586 32.9 30.6656 32.9V36.9ZM29.231 36.0641C29.9458 37.583 30.9466 38.8613 32.3444 39.612L34.2369 36.088C33.8346 35.872 33.3355 35.392 32.8503 34.3609L29.231 36.0641ZM32.3638 39.6223C33.5508 40.243 34.8221 40.5625 36.1531 40.5625V36.5625C35.4842 36.5625 34.8472 36.407 34.2174 36.0777L32.3638 39.6223ZM36.1531 40.5625C37.6122 40.5625 38.98 40.1978 40.1657 39.391L37.9155 36.084C37.4845 36.3772 36.9274 36.5625 36.1531 36.5625V40.5625ZM40.1773 39.3831C41.2427 38.6472 42.0866 37.7062 42.6634 36.5641L39.0929 34.7609C38.8364 35.2688 38.4552 35.7111 37.904 36.0919L40.1773 39.3831ZM42.667 36.5569C43.2028 35.4852 43.5031 34.3558 43.5031 33.1875H39.5031C39.5031 33.6525 39.3867 34.1731 39.0893 34.7681L42.667 36.5569ZM43.5031 33.1875C43.5031 31.951 43.1636 30.7686 42.5563 29.6625L39.05 31.5875C39.376 32.1814 39.5031 32.7074 39.5031 33.1875H43.5031ZM42.5674 29.6829C41.9532 28.5329 41.0921 27.5839 40.0078 26.8536L37.7734 30.1714C38.3225 30.5411 38.7364 31.0005 39.0389 31.5671L42.5674 29.6829ZM40.0157 26.859C38.8706 26.0798 37.5775 25.6875 36.1906 25.6875V29.6875C36.7871 29.6875 37.294 29.8452 37.7655 30.166L40.0157 26.859ZM36.1906 25.6875C34.2883 25.6875 32.5655 26.2825 31.1204 27.4905L33.6859 30.5595C34.3741 29.9841 35.1763 29.6875 36.1906 29.6875V25.6875ZM31.1447 27.4705C30.8771 27.6872 30.6153 27.9397 30.3894 28.2351L33.5668 30.6649C33.5576 30.6769 33.5791 30.6462 33.6615 30.5795L31.1447 27.4705ZM30.3894 28.2351C30.2246 28.4506 30.0725 28.681 29.9313 28.92L33.375 30.955C33.4504 30.8274 33.5149 30.7328 33.5668 30.6649L30.3894 28.2351ZM29.9466 28.8946C29.931 28.9201 29.9178 28.9411 29.9069 28.9579C29.896 28.9749 29.8883 28.9862 29.8837 28.9928C29.879 28.9997 29.8792 28.999 29.8841 28.9926C29.8886 28.9867 29.9017 28.9698 29.923 28.9455L32.9333 31.5795C33.1078 31.38 33.2545 31.1525 33.3597 30.9804L29.9466 28.8946ZM30.0139 28.8483C30.1758 28.6864 30.3757 28.5526 30.6032 28.4641C30.8267 28.3772 31.0352 28.35 31.2031 28.35V32.35C31.7606 32.35 32.3656 32.1535 32.8423 31.6767L30.0139 28.8483ZM31.2031 28.35H31.1656V32.35H31.2031V28.35ZM31.1656 28.35C31.507 28.35 32.0799 28.4788 32.5024 29.0069C32.8566 29.4497 32.8656 29.8863 32.8656 29.975H28.8656C28.8656 30.3137 28.9246 30.9378 29.3789 31.5056C29.9013 32.1587 30.6242 32.35 31.1656 32.35V28.35ZM32.8611 30.1098L33.4361 21.5973L29.4452 21.3277L28.8702 29.8402L32.8611 30.1098ZM33.439 21.5424C33.429 21.7924 33.3335 22.3029 32.8664 22.72C32.4256 23.1136 31.9566 23.15 31.7906 23.15V19.15C31.3997 19.15 30.7598 19.2385 30.2023 19.7362C29.6185 20.2575 29.4606 20.9242 29.4422 21.3826L33.439 21.5424ZM31.7906 23.15H40.5031V19.15H31.7906V23.15ZM40.5031 23.15C40.4014 23.15 39.9525 23.136 39.5085 22.7636C38.9972 22.3347 38.8906 21.7763 38.8906 21.475H42.8906C42.8906 20.957 42.7195 20.2361 42.079 19.6989C41.5058 19.2182 40.8632 19.15 40.5031 19.15V23.15ZM38.8906 21.475V21.5H42.8906V21.475H38.8906ZM38.8906 21.5C38.8906 21.1987 38.9972 20.6402 39.5085 20.2114C39.9525 19.839 40.4014 19.825 40.5031 19.825V23.825C40.8632 23.825 41.5058 23.7568 42.079 23.2761C42.7195 22.7389 42.8906 22.018 42.8906 21.5H38.8906ZM40.5031 19.825H32.1031V23.825H40.5031V19.825ZM30.1087 21.6762L29.5837 28.7137L33.5726 29.0113L34.0976 21.9738L30.1087 21.6762ZM33.082 30.181C33.393 29.8262 33.7771 29.5559 34.2684 29.3677L32.8378 25.6323C31.7625 26.0441 30.8299 26.6821 30.0742 27.544L33.082 30.181ZM34.2684 29.3677C34.7952 29.166 35.4155 29.05 36.1531 29.05V25.05C34.9908 25.05 33.8777 25.234 32.8378 25.6323L34.2684 29.3677ZM36.1531 29.05C36.9233 29.05 37.5728 29.2423 38.1544 29.6123L40.3019 26.2377C39.0501 25.4411 37.6496 25.05 36.1531 25.05V29.05ZM38.1544 29.6123C38.7905 30.0171 39.2719 30.5315 39.6247 31.1745L43.1315 29.2504C42.451 28.0101 41.4991 26.9995 40.3019 26.2377L38.1544 29.6123ZM39.6247 31.1745C39.9848 31.8309 40.1531 32.4929 40.1531 33.1875H44.1531C44.1531 31.7988 43.8047 30.4774 43.1315 29.2505L39.6247 31.1745ZM40.1531 33.1875C40.1531 33.9532 39.9706 34.6191 39.6148 35.2269L43.0665 37.2481C43.7939 36.0059 44.1531 34.6385 44.1531 33.1875H40.1531ZM39.6148 35.2269C39.2488 35.8517 38.761 36.3382 38.1242 36.7077L40.132 40.1673C41.362 39.4535 42.3491 38.4733 43.0665 37.2481L39.6148 35.2269ZM38.1242 36.7077C37.5137 37.062 36.8259 37.25 36.0156 37.25V41.25C37.4887 41.25 38.8759 40.8963 40.132 40.1673L38.1242 36.7077ZM36.0156 37.25C35.1154 37.25 34.3868 37.0188 33.76 36.5886L31.4963 39.8864C32.8362 40.8062 34.3659 41.25 36.0156 41.25V37.25ZM33.776 36.5997C33.1033 36.1282 32.5829 35.5063 32.2081 34.6903L28.5731 36.3597C29.2317 37.7937 30.203 38.9801 31.4803 39.8753L33.776 36.5997ZM31.8048 34.1108C32.0795 34.3855 32.2027 34.6808 32.2574 34.8724C32.311 35.0599 32.3156 35.2032 32.3156 35.2625H28.3156C28.3156 35.5429 28.3506 36.3134 28.9764 36.9392L31.8048 34.1108ZM32.3156 35.2625C32.3156 35.5001 32.262 35.7682 32.1263 36.0283C31.993 36.2838 31.8174 36.4612 31.6656 36.575L29.2656 33.375C28.7038 33.7963 28.3156 34.4658 28.3156 35.2625H32.3156ZM31.575 36.6391L31.6125 36.6141L29.3937 33.2859L29.3562 33.3109L31.575 36.6391Z" fill="#C7D8F8"/>
</svg>
