<svg width="98" height="59" viewBox="0 0 98 59" fill="none" xmlns="http://www.w3.org/2000/svg">
<line x1="58" y1="28.5" x2="98" y2="28.5" stroke="white" stroke-width="3"/>
<circle cx="29.5" cy="29.5" r="29.5" fill="white"/>
<path d="M17.5586 38.925C17.5003 39 17.4294 39.0375 17.3461 39.0375H17.3211C17.2378 39.0375 17.1628 39.0125 17.0961 38.9625C17.0294 38.9042 16.9961 38.8292 16.9961 38.7375C16.9961 38.6708 17.0211 38.6 17.0711 38.525L21.3086 32.45C20.4086 32.925 19.4419 33.1625 18.4086 33.1625C17.3003 33.1625 16.2753 32.8875 15.3336 32.3375C14.4003 31.7875 13.6586 31.0458 13.1086 30.1125C12.5586 29.1708 12.2836 28.1458 12.2836 27.0375C12.2836 25.9375 12.5586 24.9208 13.1086 23.9875C13.6586 23.0542 14.4003 22.3125 15.3336 21.7625C16.2753 21.2125 17.3003 20.9375 18.4086 20.9375C19.5086 20.9375 20.5253 21.2125 21.4586 21.7625C22.3919 22.3125 23.1294 23.0542 23.6711 23.9875C24.2211 24.9208 24.4961 25.9375 24.4961 27.0375C24.4961 28.2958 24.1669 29.4042 23.5086 30.3625L17.5586 38.925ZM23.8461 27.0375C23.8461 26.0542 23.5961 25.1458 23.0961 24.3125C22.6044 23.4792 21.9378 22.8167 21.0961 22.325C20.2628 21.8333 19.3544 21.5875 18.3711 21.5875C17.3878 21.5875 16.4753 21.8333 15.6336 22.325C14.8003 22.8167 14.1378 23.4792 13.6461 24.3125C13.1544 25.1458 12.9086 26.0542 12.9086 27.0375C12.9086 28.0292 13.1544 28.9458 13.6461 29.7875C14.1378 30.6208 14.8003 31.2833 15.6336 31.775C16.4753 32.2667 17.3878 32.5125 18.3711 32.5125C19.3544 32.5125 20.2628 32.2667 21.0961 31.775C21.9378 31.2833 22.6044 30.6208 23.0961 29.7875C23.5961 28.9458 23.8461 28.0292 23.8461 27.0375ZM26.4602 30.1125C26.4602 28.4792 26.8602 26.9708 27.6602 25.5875C28.4685 24.2042 29.5602 23.1083 30.9352 22.3C32.3185 21.4833 33.8268 21.075 35.4602 21.075C37.0935 21.075 38.6018 21.4833 39.9852 22.3C41.3685 23.1083 42.4643 24.2042 43.2727 25.5875C44.0893 26.9708 44.4977 28.4792 44.4977 30.1125C44.4977 31.7458 44.0893 33.2542 43.2727 34.6375C42.4643 36.0125 41.3685 37.1042 39.9852 37.9125C38.6018 38.7125 37.0935 39.1125 35.4602 39.1125C33.8268 39.1125 32.3185 38.7125 30.9352 37.9125C29.5602 37.1042 28.4685 36.0125 27.6602 34.6375C26.8602 33.2542 26.4602 31.7458 26.4602 30.1125ZM27.1727 30.1125C27.1727 31.6042 27.5435 32.9833 28.2852 34.25C29.0352 35.5167 30.0435 36.525 31.3102 37.275C32.5852 38.0167 33.9685 38.3875 35.4602 38.3875C36.9602 38.3875 38.3477 38.0167 39.6227 37.275C40.8977 36.525 41.9102 35.5167 42.6602 34.25C43.4102 32.9833 43.7852 31.6042 43.7852 30.1125C43.7852 28.6125 43.4102 27.225 42.6602 25.95C41.9102 24.675 40.8977 23.6625 39.6227 22.9125C38.3477 22.1625 36.9602 21.7875 35.4602 21.7875C33.9685 21.7875 32.5852 22.1625 31.3102 22.9125C30.0435 23.6625 29.0352 24.6792 28.2852 25.9625C27.5435 27.2375 27.1727 28.6208 27.1727 30.1125Z" fill="#C7D8F8"/>
<path d="M17.5586 38.925L19.1373 40.1529L19.1703 40.1104L19.201 40.0663L17.5586 38.925ZM17.0961 38.9625L15.7791 40.4677L15.8358 40.5173L15.8961 40.5625L17.0961 38.9625ZM17.0711 38.525L15.4307 37.3808L15.4187 37.3981L15.407 37.4156L17.0711 38.525ZM21.3086 32.45L22.949 33.5942L20.3751 30.6812L21.3086 32.45ZM15.3336 32.3375L14.3182 34.0606L14.3249 34.0645L15.3336 32.3375ZM13.1086 30.1125L11.3816 31.1212L11.3855 31.1279L13.1086 30.1125ZM13.1086 23.9875L14.8317 25.0029L13.1086 23.9875ZM15.3336 21.7625L14.3249 20.0355L14.3182 20.0394L15.3336 21.7625ZM21.4586 21.7625L20.4432 23.4856V23.4856L21.4586 21.7625ZM23.6711 23.9875L21.9413 24.9914L21.948 25.0029L23.6711 23.9875ZM23.5086 30.3625L25.151 31.5038L25.1571 31.4949L23.5086 30.3625ZM23.0961 24.3125L21.3736 25.3288L21.3773 25.3352L21.3811 25.3415L23.0961 24.3125ZM21.0961 22.325L20.0798 24.0476L20.0873 24.0519L21.0961 22.325ZM15.6336 22.325L14.6248 20.598L14.6173 20.6025L15.6336 22.325ZM13.6461 24.3125L15.3686 25.3288V25.3288L13.6461 24.3125ZM13.6461 29.7875L11.9191 30.7963L11.9236 30.8038L13.6461 29.7875ZM15.6336 31.775L14.6173 33.4976L14.6248 33.5019L15.6336 31.775ZM21.0961 31.775L20.0873 30.048L20.0798 30.0525L21.0961 31.775ZM23.0961 29.7875L21.3766 28.766L21.3736 28.7712L23.0961 29.7875ZM15.9799 37.6971C16.0926 37.5521 16.2692 37.3777 16.5259 37.2418C16.7905 37.1018 17.075 37.0375 17.3461 37.0375V41.0375C18.1385 41.0375 18.7603 40.6376 19.1373 40.1529L15.9799 37.6971ZM17.3461 37.0375H17.3211V41.0375H17.3461V37.0375ZM17.3211 37.0375C17.6705 37.0375 18.0166 37.1529 18.2961 37.3625L15.8961 40.5625C16.309 40.8721 16.805 41.0375 17.3211 41.0375V37.0375ZM18.4131 37.4573C18.5806 37.6039 18.7383 37.8019 18.8487 38.0502C18.9583 38.2968 18.9961 38.5363 18.9961 38.7375H14.9961C14.9961 39.383 15.2614 40.0147 15.7791 40.4677L18.4131 37.4573ZM18.9961 38.7375C18.9961 39.1824 18.829 39.4937 18.7352 39.6344L15.407 37.4156C15.2132 37.7063 14.9961 38.1593 14.9961 38.7375H18.9961ZM18.7115 39.6692L22.949 33.5942L19.6682 31.3058L15.4307 37.3808L18.7115 39.6692ZM20.3751 30.6812C19.7674 31.002 19.1218 31.1625 18.4086 31.1625V35.1625C19.7621 35.1625 21.0498 34.848 22.2421 34.2188L20.3751 30.6812ZM18.4086 31.1625C17.6487 31.1625 16.9726 30.9787 16.3423 30.6105L14.3249 34.0645C15.5779 34.7963 16.9519 35.1625 18.4086 35.1625V31.1625ZM16.349 30.6144C15.7077 30.2365 15.2096 29.7384 14.8317 29.0971L11.3855 31.1279C12.1076 32.3533 13.0928 33.3385 14.3182 34.0606L16.349 30.6144ZM14.8356 29.1038C14.4674 28.4734 14.2836 27.7974 14.2836 27.0375H10.2836C10.2836 28.4942 10.6498 29.8682 11.3816 31.1212L14.8356 29.1038ZM14.2836 27.0375C14.2836 26.2888 14.4659 25.6236 14.8317 25.0029L11.3855 22.9721C10.6513 24.2181 10.2836 25.5862 10.2836 27.0375H14.2836ZM14.8317 25.0029C15.2096 24.3616 15.7077 23.8635 16.349 23.4856L14.3182 20.0394C13.0928 20.7615 12.1076 21.7467 11.3855 22.9721L14.8317 25.0029ZM16.3423 23.4895C16.9726 23.1213 17.6487 22.9375 18.4086 22.9375V18.9375C16.9519 18.9375 15.5779 19.3037 14.3249 20.0355L16.3423 23.4895ZM18.4086 22.9375C19.1573 22.9375 19.8225 23.1198 20.4432 23.4856L22.474 20.0394C21.228 19.3052 19.8599 18.9375 18.4086 18.9375V22.9375ZM20.4432 23.4856C21.0818 23.8619 21.5728 24.3564 21.9413 24.9914L25.4009 22.9836C24.6861 21.752 23.702 20.7631 22.474 20.0394L20.4432 23.4856ZM21.948 25.0029C22.3138 25.6236 22.4961 26.2888 22.4961 27.0375H26.4961C26.4961 25.5862 26.1284 24.2181 25.3942 22.9721L21.948 25.0029ZM22.4961 27.0375C22.4961 27.9264 22.2705 28.6327 21.8601 29.2301L25.1571 31.4949C26.0634 30.1757 26.4961 28.6652 26.4961 27.0375H22.4961ZM21.8662 29.2212L15.9162 37.7837L19.201 40.0663L25.151 31.5038L21.8662 29.2212ZM25.8461 27.0375C25.8461 25.6962 25.4999 24.4315 24.8111 23.2835L21.3811 25.3415C21.6923 25.8601 21.8461 26.4121 21.8461 27.0375H25.8461ZM24.8186 23.2962C24.1522 22.1667 23.2389 21.2605 22.1049 20.5981L20.0873 24.0519C20.6366 24.3728 21.0566 24.7916 21.3736 25.3288L24.8186 23.2962ZM22.1124 20.6025C20.9659 19.9261 19.7058 19.5875 18.3711 19.5875V23.5875C19.0031 23.5875 19.5596 23.7406 20.0798 24.0475L22.1124 20.6025ZM18.3711 19.5875C17.0365 19.5875 15.7754 19.9259 14.6248 20.5981L16.6424 24.0519C17.1751 23.7407 17.739 23.5875 18.3711 23.5875V19.5875ZM14.6173 20.6025C13.4926 21.266 12.5871 22.1715 11.9236 23.2962L15.3686 25.3288C15.6884 24.7868 16.1079 24.3673 16.6499 24.0475L14.6173 20.6025ZM11.9236 23.2962C11.2472 24.4426 10.9086 25.7028 10.9086 27.0375H14.9086C14.9086 26.4055 15.0617 25.849 15.3686 25.3288L11.9236 23.2962ZM10.9086 27.0375C10.9086 28.3772 11.2454 29.643 11.9192 30.7963L15.373 28.7787C15.0634 28.2487 14.9086 27.6811 14.9086 27.0375H10.9086ZM11.9236 30.8038C12.5871 31.9285 13.4926 32.834 14.6173 33.4975L16.6499 30.0525C16.1079 29.7327 15.6884 29.3132 15.3686 28.7712L11.9236 30.8038ZM14.6248 33.5019C15.7754 34.1741 17.0365 34.5125 18.3711 34.5125V30.5125C17.739 30.5125 17.1751 30.3593 16.6424 30.0481L14.6248 33.5019ZM18.3711 34.5125C19.7058 34.5125 20.9659 34.1739 22.1124 33.4975L20.0798 30.0525C19.5596 30.3594 19.0031 30.5125 18.3711 30.5125V34.5125ZM22.1049 33.5019C23.2389 32.8395 24.1522 31.9333 24.8186 30.8038L21.3736 28.7712C21.0566 29.3084 20.6366 29.7272 20.0873 30.0481L22.1049 33.5019ZM24.8156 30.809C25.5017 29.654 25.8461 28.3838 25.8461 27.0375H21.8461C21.8461 27.6746 21.6905 28.2376 21.3766 28.766L24.8156 30.809ZM27.6602 25.5875L25.9333 24.5785L25.9288 24.5862L27.6602 25.5875ZM30.9352 22.3L31.9487 24.0241L31.9519 24.0223L30.9352 22.3ZM39.9852 22.3L38.9684 24.0223L38.9761 24.0268L39.9852 22.3ZM43.2727 25.5875L41.5458 26.5965L41.5504 26.6043L43.2727 25.5875ZM43.2727 34.6375L41.5504 33.6207L41.5485 33.6239L43.2727 34.6375ZM39.9852 37.9125L40.9864 39.6438L40.9942 39.6393L39.9852 37.9125ZM30.9352 37.9125L29.9216 39.6366L29.9277 39.6403L29.9339 39.6438L30.9352 37.9125ZM27.6602 34.6375L25.9288 35.6388L25.9324 35.6449L25.936 35.6511L27.6602 34.6375ZM28.2852 34.25L26.5592 35.2606L26.5642 35.269L28.2852 34.25ZM31.3102 37.275L30.2912 38.996L30.2978 38.9999L30.3045 39.0038L31.3102 37.275ZM39.6227 37.275L40.6283 39.0038L40.6367 38.9989L39.6227 37.275ZM42.6602 25.95L44.384 24.936V24.936L42.6602 25.95ZM39.6227 22.9125L38.6086 24.6364L39.6227 22.9125ZM31.3102 22.9125L30.2961 21.1886L30.2912 21.1915L31.3102 22.9125ZM28.2852 25.9625L26.5584 24.9534L26.5564 24.9569L28.2852 25.9625ZM28.4602 30.1125C28.4602 28.8226 28.7715 27.6608 29.3915 26.5887L25.9288 24.5862C24.9488 26.2809 24.4602 28.1357 24.4602 30.1125H28.4602ZM29.387 26.5965C30.0235 25.5073 30.8701 24.6582 31.9487 24.0241L29.9216 20.5759C28.2502 21.5584 26.9135 22.9011 25.9334 24.5785L29.387 26.5965ZM31.9519 24.0223C33.0219 23.3906 34.1782 23.075 35.4602 23.075V19.075C33.4755 19.075 31.6151 19.5761 29.9184 20.5777L31.9519 24.0223ZM35.4602 23.075C36.7421 23.075 37.8984 23.3906 38.9684 24.0223L41.0019 20.5777C39.3052 19.5761 37.4448 19.075 35.4602 19.075V23.075ZM38.9761 24.0268C40.0625 24.6616 40.9111 25.5102 41.5459 26.5965L44.9995 24.5785C44.0176 22.8981 42.6745 21.5551 40.9942 20.5732L38.9761 24.0268ZM41.5504 26.6043C42.1821 27.6742 42.4977 28.8305 42.4977 30.1125H46.4977C46.4977 28.1278 45.9966 26.2674 44.9949 24.5707L41.5504 26.6043ZM42.4977 30.1125C42.4977 31.3945 42.1821 32.5508 41.5504 33.6207L44.9949 35.6543C45.9966 33.9576 46.4977 32.0972 46.4977 30.1125H42.4977ZM41.5485 33.6239C40.9144 34.7025 40.0654 35.5492 38.9761 36.1857L40.9942 39.6393C42.6716 38.6591 44.0142 37.3225 44.9968 35.6511L41.5485 33.6239ZM38.9839 36.1812C37.9119 36.8011 36.7501 37.1125 35.4602 37.1125V41.1125C37.4369 41.1125 39.2918 40.6239 40.9864 39.6438L38.9839 36.1812ZM35.4602 37.1125C34.1702 37.1125 33.0084 36.8011 31.9364 36.1812L29.9339 39.6438C31.6285 40.6239 33.4834 41.1125 35.4602 41.1125V37.1125ZM31.9487 36.1884C30.8672 35.5525 30.0201 34.7055 29.3843 33.6239L25.936 35.6511C26.9169 37.3195 28.2531 38.6558 29.9216 39.6366L31.9487 36.1884ZM29.3915 33.6362C28.7715 32.5642 28.4602 31.4024 28.4602 30.1125H24.4602C24.4602 32.0893 24.9488 33.9441 25.9288 35.6388L29.3915 33.6362ZM25.1727 30.1125C25.1727 31.9533 25.6351 33.6822 26.5592 35.2606L30.0111 33.2394C29.4519 32.2845 29.1727 31.255 29.1727 30.1125H25.1727ZM26.5642 35.269C27.4855 36.8249 28.7352 38.0747 30.2912 38.996L32.3291 35.554C31.3517 34.9753 30.5848 34.2084 30.0061 33.231L26.5642 35.269ZM30.3045 39.0038C31.8885 39.9252 33.6194 40.3875 35.4602 40.3875V36.3875C34.3176 36.3875 33.2818 36.1081 32.3158 35.5462L30.3045 39.0038ZM35.4602 40.3875C37.3072 40.3875 39.0425 39.9262 40.6283 39.0038L38.617 35.5462C37.6528 36.1071 36.6132 36.3875 35.4602 36.3875V40.3875ZM40.6367 38.9989C42.2016 38.0783 43.458 36.8281 44.3811 35.269L40.9392 33.231C40.3624 34.2053 39.5937 34.9717 38.6086 35.5511L40.6367 38.9989ZM44.3811 35.269C45.3163 33.6895 45.7852 31.9577 45.7852 30.1125H41.7852C41.7852 31.2507 41.504 32.2772 40.9392 33.231L44.3811 35.269ZM45.7852 30.1125C45.7852 28.2612 45.3175 26.5228 44.384 24.936L40.9363 26.964C41.5028 27.9272 41.7852 28.9638 41.7852 30.1125H45.7852ZM44.384 24.936C43.4616 23.3679 42.2048 22.111 40.6367 21.1886L38.6086 24.6364C39.5905 25.214 40.3587 25.9821 40.9363 26.964L44.384 24.936ZM40.6367 21.1886C39.0498 20.2552 37.3115 19.7875 35.4602 19.7875V23.7875C36.6088 23.7875 37.6455 24.0698 38.6086 24.6364L40.6367 21.1886ZM35.4602 19.7875C33.6151 19.7875 31.8812 20.2562 30.2961 21.1886L32.3242 24.6364C33.2891 24.0688 34.3219 23.7875 35.4602 23.7875V19.7875ZM30.2912 21.1915C28.7289 22.1166 27.4782 23.3795 26.5584 24.9534L30.0119 26.9716C30.5921 25.9789 31.358 25.2084 32.3291 24.6335L30.2912 21.1915ZM26.5564 24.9569C25.635 26.5408 25.1727 28.2717 25.1727 30.1125H29.1727C29.1727 28.9699 29.452 27.9342 30.0139 26.9681L26.5564 24.9569Z" fill="#C7D8F8"/>
</svg>
