<svg width="92" height="49" viewBox="0 0 92 49" fill="none" xmlns="http://www.w3.org/2000/svg">
<rect width="92" height="49" rx="7" fill="#D3D5DA"/>
<path d="M16.4894 12.689C16.5914 12.773 16.7204 12.887 16.8764 13.031C17.0384 13.169 17.2214 13.307 17.4254 13.445C17.7314 13.649 18.0344 13.808 18.3344 13.922C18.6344 14.036 18.9494 14.093 19.2794 14.093C19.5854 14.093 19.8404 14.06 20.0444 13.994C20.2544 13.922 20.4194 13.829 20.5394 13.715C20.6594 13.601 20.7434 13.469 20.7914 13.319C20.8454 13.169 20.8724 13.01 20.8724 12.842C20.8724 12.656 20.8004 12.491 20.6564 12.347C20.5184 12.197 20.3474 12.065 20.1434 11.951C19.9394 11.837 19.7264 11.741 19.5044 11.663C19.2824 11.579 19.0904 11.51 18.9284 11.456C18.2084 11.204 17.5784 10.934 17.0384 10.646C16.4984 10.352 16.0484 10.028 15.6884 9.674C15.3284 9.314 15.0584 8.921 14.8784 8.495C14.6984 8.063 14.6084 7.583 14.6084 7.055C14.6084 6.497 14.7194 5.99 14.9414 5.534C15.1694 5.078 15.4904 4.688 15.9044 4.364C16.3244 4.04 16.8284 3.791 17.4164 3.617C18.0044 3.437 18.6614 3.347 19.3874 3.347C19.9334 3.347 20.4554 3.41 20.9534 3.536C21.4574 3.656 21.9524 3.851 22.4384 4.121C22.6424 4.241 22.8344 4.367 23.0144 4.499C23.2004 4.625 23.3624 4.748 23.5004 4.868C23.6384 4.988 23.7464 5.102 23.8244 5.21C23.9084 5.318 23.9504 5.411 23.9504 5.489C23.9504 5.567 23.9294 5.639 23.8874 5.705C23.8514 5.771 23.7944 5.846 23.7164 5.93L22.3394 7.397C22.2374 7.499 22.1354 7.55 22.0334 7.55C21.9494 7.55 21.8714 7.526 21.7994 7.478C21.7334 7.43 21.6584 7.37 21.5744 7.298L21.4934 7.226C21.3734 7.124 21.2384 7.019 21.0884 6.911C20.9444 6.803 20.7884 6.707 20.6204 6.623C20.4524 6.533 20.2754 6.461 20.0894 6.407C19.9034 6.347 19.7144 6.317 19.5224 6.317C19.3244 6.317 19.1384 6.335 18.9644 6.371C18.7904 6.401 18.6374 6.452 18.5054 6.524C18.3734 6.596 18.2684 6.692 18.1904 6.812C18.1124 6.926 18.0734 7.067 18.0734 7.235C18.0734 7.403 18.1154 7.55 18.1994 7.676C18.2834 7.796 18.4094 7.91 18.5774 8.018C18.7454 8.12 18.9524 8.219 19.1984 8.315C19.4504 8.405 19.7414 8.504 20.0714 8.612C20.7074 8.822 21.2924 9.044 21.8264 9.278C22.3664 9.506 22.8314 9.779 23.2214 10.097C23.6114 10.409 23.9144 10.784 24.1304 11.222C24.3524 11.66 24.4634 12.191 24.4634 12.815C24.4634 13.475 24.3284 14.075 24.0584 14.615C23.7884 15.149 23.4164 15.605 22.9424 15.983C22.4744 16.361 21.9224 16.655 21.2864 16.865C20.6504 17.069 19.9664 17.171 19.2344 17.171C18.5444 17.171 17.8664 17.048 17.2004 16.802C16.5344 16.556 15.9134 16.226 15.3374 15.812C15.0974 15.638 14.8934 15.467 14.7254 15.299C14.5634 15.131 14.4344 14.996 14.3384 14.894L14.3114 14.867C14.3054 14.855 14.2994 14.849 14.2934 14.849C14.2874 14.843 14.2814 14.837 14.2754 14.831C14.2694 14.819 14.2634 14.813 14.2574 14.813C14.2514 14.807 14.2454 14.801 14.2394 14.795C14.1014 14.645 14.0324 14.525 14.0324 14.435C14.0324 14.333 14.1014 14.219 14.2394 14.093L15.7964 12.608C15.9224 12.518 16.0244 12.473 16.1024 12.473C16.1564 12.473 16.2134 12.491 16.2734 12.527C16.3334 12.563 16.4054 12.617 16.4894 12.689ZM36.8609 16.847C36.7829 16.913 36.6989 16.955 36.6089 16.973C36.5249 16.991 36.4439 17 36.3659 17H35.0069C34.8989 17 34.8059 16.982 34.7279 16.946C34.6499 16.904 34.5839 16.85 34.5299 16.784C34.4759 16.718 34.4309 16.643 34.3949 16.559C34.3589 16.475 34.3289 16.388 34.3049 16.298L34.1159 15.416C34.0259 15.602 33.8759 15.8 33.6659 16.01C33.4559 16.214 33.1949 16.403 32.8829 16.577C32.5769 16.751 32.2229 16.895 31.8209 17.009C31.4189 17.123 30.9809 17.18 30.5069 17.18C29.8229 17.18 29.2169 17.048 28.6889 16.784C28.1609 16.52 27.7139 16.16 27.3479 15.704C26.9879 15.248 26.7149 14.717 26.5289 14.111C26.3429 13.499 26.2499 12.848 26.2499 12.158V6.263C26.2499 6.035 26.2979 5.864 26.3939 5.75C26.4959 5.63 26.6549 5.57 26.8709 5.57H28.9499C29.2079 5.57 29.3849 5.615 29.4809 5.705C29.5769 5.789 29.6249 5.957 29.6249 6.209V12.068C29.6249 12.326 29.6729 12.572 29.7689 12.806C29.8709 13.034 30.0059 13.238 30.1739 13.418C30.3419 13.592 30.5369 13.73 30.7589 13.832C30.9869 13.934 31.2269 13.985 31.4789 13.985C31.6949 13.985 31.9289 13.949 32.1809 13.877C32.4329 13.805 32.6669 13.694 32.8829 13.544C33.0989 13.388 33.2789 13.19 33.4229 12.95C33.5669 12.71 33.6389 12.422 33.6389 12.086V6.236C33.6389 6.134 33.6569 6.032 33.6929 5.93C33.7349 5.828 33.7949 5.75 33.8729 5.696C33.9509 5.648 34.0229 5.615 34.0889 5.597C34.1609 5.579 34.2419 5.57 34.3319 5.57H36.3659C36.6239 5.57 36.8099 5.633 36.9239 5.759C37.0379 5.885 37.0949 6.053 37.0949 6.263V16.334C37.0949 16.448 37.0679 16.553 37.0139 16.649C36.9659 16.745 36.8969 16.82 36.8069 16.874L36.8609 16.847ZM47.4027 15.875C47.2407 16.037 47.0547 16.199 46.8447 16.361C46.6407 16.517 46.4157 16.658 46.1697 16.784C45.9297 16.91 45.6687 17.012 45.3867 17.09C45.1107 17.168 44.8167 17.207 44.5047 17.207C43.6887 17.207 42.9357 17.054 42.2457 16.748C41.5617 16.442 40.9707 16.025 40.4727 15.497C39.9807 14.963 39.5937 14.336 39.3117 13.616C39.0357 12.896 38.8977 12.122 38.8977 11.294C38.8977 10.46 39.0357 9.686 39.3117 8.972C39.5937 8.252 39.9807 7.628 40.4727 7.1C40.9707 6.566 41.5617 6.149 42.2457 5.849C42.9357 5.543 43.6887 5.39 44.5047 5.39C44.8347 5.39 45.1347 5.42 45.4047 5.48C45.6807 5.534 45.9297 5.615 46.1517 5.723C46.3797 5.831 46.5867 5.96 46.7727 6.11C46.9647 6.26 47.1447 6.425 47.3127 6.605V2.852C47.3127 2.66 47.3697 2.498 47.4837 2.366C47.6037 2.234 47.7807 2.168 48.0147 2.168H50.0397C50.1177 2.168 50.1987 2.186 50.2827 2.222C50.3727 2.252 50.4537 2.297 50.5257 2.357C50.5977 2.417 50.6547 2.489 50.6967 2.573C50.7447 2.657 50.7687 2.75 50.7687 2.852V16.307C50.7687 16.769 50.5257 17 50.0397 17H48.2757C48.1557 17 48.0627 16.985 47.9967 16.955C47.9307 16.925 47.8737 16.883 47.8257 16.829C47.7837 16.769 47.7447 16.697 47.7087 16.613C47.6727 16.523 47.6277 16.421 47.5737 16.307L47.4027 15.875ZM42.1377 11.294C42.1377 11.69 42.1977 12.062 42.3177 12.41C42.4437 12.752 42.6207 13.049 42.8487 13.301C43.0767 13.553 43.3497 13.754 43.6677 13.904C43.9917 14.048 44.3487 14.12 44.7387 14.12C45.1227 14.12 45.4827 14.051 45.8187 13.913C46.1607 13.775 46.4577 13.586 46.7097 13.346C46.9617 13.1 47.1627 12.812 47.3127 12.482C47.4687 12.152 47.5557 11.798 47.5737 11.42V11.294C47.5737 10.91 47.5017 10.544 47.3577 10.196C47.2137 9.848 47.0127 9.542 46.7547 9.278C46.5027 9.014 46.2027 8.807 45.8547 8.657C45.5127 8.501 45.1407 8.423 44.7387 8.423C44.3487 8.423 43.9917 8.501 43.6677 8.657C43.3497 8.807 43.0767 9.014 42.8487 9.278C42.6207 9.542 42.4437 9.848 42.3177 10.196C42.1977 10.544 42.1377 10.91 42.1377 11.294ZM64.925 16.334C64.925 16.436 64.907 16.535 64.871 16.631C64.835 16.721 64.775 16.793 64.691 16.847C64.625 16.913 64.547 16.955 64.457 16.973C64.367 16.991 64.289 17 64.223 17H62.45C62.324 17 62.222 16.985 62.144 16.955C62.066 16.919 62.003 16.871 61.955 16.811C61.907 16.751 61.865 16.679 61.829 16.595C61.799 16.505 61.766 16.409 61.73 16.307L61.613 15.902C61.451 16.064 61.265 16.223 61.055 16.379C60.851 16.535 60.623 16.676 60.371 16.802C60.125 16.922 59.858 17.018 59.57 17.09C59.288 17.168 58.994 17.207 58.688 17.207C58.142 17.207 57.617 17.138 57.113 17C56.615 16.862 56.147 16.667 55.709 16.415C55.277 16.157 54.884 15.851 54.53 15.497C54.176 15.137 53.87 14.738 53.612 14.3C53.36 13.862 53.165 13.391 53.027 12.887C52.889 12.377 52.82 11.846 52.82 11.294C52.82 10.46 52.973 9.686 53.279 8.972C53.585 8.252 54.002 7.628 54.53 7.1C55.058 6.566 55.679 6.149 56.393 5.849C57.107 5.543 57.872 5.39 58.688 5.39C59.06 5.39 59.405 5.432 59.723 5.516C60.047 5.6 60.341 5.714 60.605 5.858C60.875 6.002 61.118 6.176 61.334 6.38C61.55 6.578 61.739 6.794 61.901 7.028L62.162 6.209C62.222 6.059 62.27 5.939 62.306 5.849C62.348 5.753 62.39 5.684 62.432 5.642C62.48 5.594 62.537 5.564 62.603 5.552C62.669 5.534 62.762 5.525 62.882 5.525H64.223C64.289 5.525 64.367 5.534 64.457 5.552C64.547 5.57 64.625 5.612 64.691 5.678C64.775 5.744 64.835 5.819 64.871 5.903C64.907 5.987 64.925 6.083 64.925 6.191V16.334ZM56.06 11.294C56.06 11.69 56.12 12.062 56.24 12.41C56.366 12.752 56.543 13.049 56.771 13.301C56.999 13.553 57.272 13.754 57.59 13.904C57.914 14.048 58.271 14.12 58.661 14.12C59.063 14.12 59.435 14.048 59.777 13.904C60.125 13.754 60.425 13.553 60.677 13.301C60.935 13.049 61.136 12.752 61.28 12.41C61.424 12.062 61.496 11.69 61.496 11.294C61.496 10.91 61.424 10.544 61.28 10.196C61.136 9.848 60.935 9.542 60.677 9.278C60.425 9.014 60.125 8.807 59.777 8.657C59.435 8.501 59.063 8.423 58.661 8.423C58.271 8.423 57.914 8.501 57.59 8.657C57.272 8.807 56.999 9.014 56.771 9.278C56.543 9.542 56.366 9.848 56.24 10.196C56.12 10.544 56.06 10.91 56.06 11.294ZM70.5399 6.767C70.6539 6.599 70.8099 6.434 71.0079 6.272C71.2119 6.104 71.4429 5.957 71.7009 5.831C71.9649 5.699 72.2559 5.594 72.5739 5.516C72.8919 5.432 73.2279 5.39 73.5819 5.39C74.2659 5.39 74.8569 5.522 75.3549 5.786C75.8589 6.05 76.2729 6.41 76.5969 6.866C76.9269 7.322 77.1699 7.856 77.3259 8.468C77.4879 9.074 77.5689 9.722 77.5689 10.412V16.307C77.5689 16.535 77.5179 16.709 77.4159 16.829C77.3199 16.943 77.1639 17 76.9479 17H74.8689C74.6109 17 74.4339 16.958 74.3379 16.874C74.2419 16.784 74.1939 16.613 74.1939 16.361V10.412C74.1939 10.154 74.1429 9.914 74.0409 9.692C73.9449 9.47 73.8129 9.278 73.6449 9.116C73.4769 8.948 73.2789 8.819 73.0509 8.729C72.8289 8.633 72.5919 8.585 72.3399 8.585C72.1239 8.585 71.9109 8.63 71.7009 8.72C71.4969 8.804 71.3109 8.927 71.1429 9.089C70.9809 9.245 70.8429 9.434 70.7289 9.656C70.6209 9.878 70.5579 10.124 70.5399 10.394V16.334C70.5399 16.436 70.5189 16.538 70.4769 16.64C70.4409 16.742 70.3839 16.82 70.3059 16.874C70.2279 16.922 70.1529 16.955 70.0809 16.973C70.0149 16.991 69.9369 17 69.8469 17H67.8129C67.5549 17 67.3689 16.937 67.2549 16.811C67.1409 16.685 67.0839 16.517 67.0839 16.307V8.981V8.918V6.236V6.191V2.852C67.0839 2.648 67.1409 2.483 67.2549 2.357C67.3689 2.231 67.5549 2.168 67.8129 2.168H69.8469C69.9849 2.168 70.1379 2.216 70.3059 2.312C70.3839 2.366 70.4409 2.444 70.4769 2.546C70.5189 2.648 70.5399 2.744 70.5399 2.834V6.767ZM16.975 41.875C16.813 42.037 16.627 42.199 16.417 42.361C16.213 42.517 15.988 42.658 15.742 42.784C15.502 42.91 15.241 43.012 14.959 43.09C14.683 43.168 14.389 43.207 14.077 43.207C13.261 43.207 12.508 43.054 11.818 42.748C11.134 42.442 10.543 42.025 10.045 41.497C9.553 40.963 9.166 40.336 8.884 39.616C8.608 38.896 8.47 38.122 8.47 37.294C8.47 36.46 8.608 35.686 8.884 34.972C9.166 34.252 9.553 33.628 10.045 33.1C10.543 32.566 11.134 32.149 11.818 31.849C12.508 31.543 13.261 31.39 14.077 31.39C14.407 31.39 14.707 31.42 14.977 31.48C15.253 31.534 15.502 31.615 15.724 31.723C15.952 31.831 16.159 31.96 16.345 32.11C16.537 32.26 16.717 32.425 16.885 32.605V28.852C16.885 28.66 16.942 28.498 17.056 28.366C17.176 28.234 17.353 28.168 17.587 28.168H19.612C19.69 28.168 19.771 28.186 19.855 28.222C19.945 28.252 20.026 28.297 20.098 28.357C20.17 28.417 20.227 28.489 20.269 28.573C20.317 28.657 20.341 28.75 20.341 28.852V42.307C20.341 42.769 20.098 43 19.612 43H17.848C17.728 43 17.635 42.985 17.569 42.955C17.503 42.925 17.446 42.883 17.398 42.829C17.356 42.769 17.317 42.697 17.281 42.613C17.245 42.523 17.2 42.421 17.146 42.307L16.975 41.875ZM11.71 37.294C11.71 37.69 11.77 38.062 11.89 38.41C12.016 38.752 12.193 39.049 12.421 39.301C12.649 39.553 12.922 39.754 13.24 39.904C13.564 40.048 13.921 40.12 14.311 40.12C14.695 40.12 15.055 40.051 15.391 39.913C15.733 39.775 16.03 39.586 16.282 39.346C16.534 39.1 16.735 38.812 16.885 38.482C17.041 38.152 17.128 37.798 17.146 37.42V37.294C17.146 36.91 17.074 36.544 16.93 36.196C16.786 35.848 16.585 35.542 16.327 35.278C16.075 35.014 15.775 34.807 15.427 34.657C15.085 34.501 14.713 34.423 14.311 34.423C13.921 34.423 13.564 34.501 13.24 34.657C12.922 34.807 12.649 35.014 12.421 35.278C12.193 35.542 12.016 35.848 11.89 36.196C11.77 36.544 11.71 36.91 11.71 37.294ZM22.7253 32.272C22.7253 32.08 22.7793 31.915 22.8873 31.777C22.9953 31.639 23.1633 31.57 23.3913 31.57H25.4523C25.5243 31.57 25.6023 31.588 25.6863 31.624C25.7703 31.654 25.8483 31.702 25.9203 31.768C25.9923 31.828 26.0523 31.9 26.1003 31.984C26.1543 32.068 26.1813 32.164 26.1813 32.272V42.307C26.1813 42.535 26.1183 42.709 25.9923 42.829C25.8663 42.943 25.6863 43 25.4523 43H23.3913C22.9473 43 22.7253 42.769 22.7253 42.307V32.272ZM22.7253 27.718C22.7253 27.466 22.7793 27.289 22.8873 27.187C22.9953 27.079 23.1633 27.025 23.3913 27.025H25.4793C25.6893 27.025 25.8573 27.079 25.9833 27.187C26.1153 27.289 26.1813 27.466 26.1813 27.718V29.473C26.1813 29.545 26.1633 29.623 26.1273 29.707C26.0973 29.791 26.0523 29.872 25.9923 29.95C25.9323 30.028 25.8573 30.094 25.7673 30.148C25.6833 30.196 25.5873 30.22 25.4793 30.22H23.3913C22.9473 30.22 22.7253 29.971 22.7253 29.473V27.718ZM28.3417 28.861C28.3417 28.759 28.3447 28.666 28.3507 28.582C28.3567 28.498 28.3807 28.426 28.4227 28.366C28.4707 28.306 28.5427 28.261 28.6387 28.231C28.7347 28.195 28.8697 28.177 29.0437 28.177H31.1947C31.3087 28.177 31.4017 28.198 31.4737 28.24C31.5517 28.276 31.6117 28.324 31.6537 28.384C31.7017 28.444 31.7317 28.51 31.7437 28.582C31.7617 28.648 31.7707 28.711 31.7707 28.771V35.431L35.0107 31.831C35.1667 31.657 35.3527 31.57 35.5687 31.57H38.3317C38.6617 31.57 38.8267 31.699 38.8267 31.957C38.8267 32.023 38.8147 32.077 38.7907 32.119C38.7727 32.161 38.7307 32.221 38.6647 32.299L34.9657 36.205L39.6187 42.181H39.6007C39.6787 42.259 39.7327 42.34 39.7627 42.424C39.7987 42.502 39.8167 42.574 39.8167 42.64C39.8167 42.778 39.7777 42.874 39.6997 42.928C39.6277 42.976 39.5167 43 39.3667 43H36.3247C36.2227 43 36.1267 42.961 36.0367 42.883C35.9467 42.805 35.8477 42.688 35.7397 42.532L32.7967 38.365L31.7977 39.4V42.307C31.7977 42.355 31.7887 42.418 31.7707 42.496C31.7587 42.574 31.7287 42.652 31.6807 42.73C31.6387 42.802 31.5787 42.865 31.5007 42.919C31.4227 42.973 31.3207 43 31.1947 43H28.9357C28.8277 43 28.7347 42.973 28.6567 42.919C28.5787 42.859 28.5157 42.793 28.4677 42.721C28.4257 42.649 28.3927 42.583 28.3687 42.523C28.3507 42.457 28.3417 42.418 28.3417 42.406V28.861ZM41.0507 28.861C41.0507 28.669 41.0987 28.507 41.1947 28.375C41.2907 28.243 41.4557 28.177 41.6897 28.177H43.8947C43.9547 28.177 44.0177 28.195 44.0837 28.231C44.1497 28.261 44.2097 28.306 44.2637 28.366C44.3237 28.426 44.3717 28.498 44.4077 28.582C44.4497 28.666 44.4707 28.759 44.4707 28.861V42.307C44.4707 42.535 44.4047 42.709 44.2727 42.829C44.1467 42.943 43.9817 43 43.7777 43H41.6897C41.4557 43 41.2907 42.943 41.1947 42.829C41.0987 42.709 41.0507 42.535 41.0507 42.307V28.861ZM58.386 42.334C58.386 42.436 58.368 42.535 58.332 42.631C58.296 42.721 58.236 42.793 58.152 42.847C58.086 42.913 58.008 42.955 57.918 42.973C57.828 42.991 57.75 43 57.684 43H55.911C55.785 43 55.683 42.985 55.605 42.955C55.527 42.919 55.464 42.871 55.416 42.811C55.368 42.751 55.326 42.679 55.29 42.595C55.26 42.505 55.227 42.409 55.191 42.307L55.074 41.902C54.912 42.064 54.726 42.223 54.516 42.379C54.312 42.535 54.084 42.676 53.832 42.802C53.586 42.922 53.319 43.018 53.031 43.09C52.749 43.168 52.455 43.207 52.149 43.207C51.603 43.207 51.078 43.138 50.574 43C50.076 42.862 49.608 42.667 49.17 42.415C48.738 42.157 48.345 41.851 47.991 41.497C47.637 41.137 47.331 40.738 47.073 40.3C46.821 39.862 46.626 39.391 46.488 38.887C46.35 38.377 46.281 37.846 46.281 37.294C46.281 36.46 46.434 35.686 46.74 34.972C47.046 34.252 47.463 33.628 47.991 33.1C48.519 32.566 49.14 32.149 49.854 31.849C50.568 31.543 51.333 31.39 52.149 31.39C52.521 31.39 52.866 31.432 53.184 31.516C53.508 31.6 53.802 31.714 54.066 31.858C54.336 32.002 54.579 32.176 54.795 32.38C55.011 32.578 55.2 32.794 55.362 33.028L55.623 32.209C55.683 32.059 55.731 31.939 55.767 31.849C55.809 31.753 55.851 31.684 55.893 31.642C55.941 31.594 55.998 31.564 56.064 31.552C56.13 31.534 56.223 31.525 56.343 31.525H57.684C57.75 31.525 57.828 31.534 57.918 31.552C58.008 31.57 58.086 31.612 58.152 31.678C58.236 31.744 58.296 31.819 58.332 31.903C58.368 31.987 58.386 32.083 58.386 32.191V42.334ZM49.521 37.294C49.521 37.69 49.581 38.062 49.701 38.41C49.827 38.752 50.004 39.049 50.232 39.301C50.46 39.553 50.733 39.754 51.051 39.904C51.375 40.048 51.732 40.12 52.122 40.12C52.524 40.12 52.896 40.048 53.238 39.904C53.586 39.754 53.886 39.553 54.138 39.301C54.396 39.049 54.597 38.752 54.741 38.41C54.885 38.062 54.957 37.69 54.957 37.294C54.957 36.91 54.885 36.544 54.741 36.196C54.597 35.848 54.396 35.542 54.138 35.278C53.886 35.014 53.586 34.807 53.238 34.657C52.896 34.501 52.524 34.423 52.122 34.423C51.732 34.423 51.375 34.501 51.051 34.657C50.733 34.807 50.46 35.014 50.232 35.278C50.004 35.542 49.827 35.848 49.701 36.196C49.581 36.544 49.521 36.91 49.521 37.294ZM60.5358 32.272C60.5358 32.08 60.5898 31.915 60.6978 31.777C60.8058 31.639 60.9738 31.57 61.2018 31.57H63.2628C63.3348 31.57 63.4128 31.588 63.4968 31.624C63.5808 31.654 63.6588 31.702 63.7308 31.768C63.8028 31.828 63.8628 31.9 63.9108 31.984C63.9648 32.068 63.9918 32.164 63.9918 32.272V42.307C63.9918 42.535 63.9288 42.709 63.8028 42.829C63.6768 42.943 63.4968 43 63.2628 43H61.2018C60.7578 43 60.5358 42.769 60.5358 42.307V32.272ZM60.5358 27.718C60.5358 27.466 60.5898 27.289 60.6978 27.187C60.8058 27.079 60.9738 27.025 61.2018 27.025H63.2898C63.4998 27.025 63.6678 27.079 63.7938 27.187C63.9258 27.289 63.9918 27.466 63.9918 27.718V29.473C63.9918 29.545 63.9738 29.623 63.9378 29.707C63.9078 29.791 63.8628 29.872 63.8028 29.95C63.7428 30.028 63.6678 30.094 63.5778 30.148C63.4938 30.196 63.3978 30.22 63.2898 30.22H61.2018C60.7578 30.22 60.5358 29.971 60.5358 29.473V27.718ZM66.3863 31.723C66.4643 31.657 66.5453 31.615 66.6293 31.597C66.7193 31.579 66.8033 31.57 66.8813 31.57H68.2403C68.3483 31.57 68.4413 31.591 68.5193 31.633C68.5973 31.669 68.6633 31.72 68.7173 31.786C68.7713 31.852 68.8133 31.927 68.8433 32.011C68.8793 32.095 68.9123 32.182 68.9423 32.272L69.1313 33.064C69.2213 32.878 69.3503 32.686 69.5183 32.488C69.6863 32.29 69.8993 32.11 70.1573 31.948C70.4153 31.786 70.7213 31.654 71.0753 31.552C71.4353 31.444 71.8553 31.39 72.3353 31.39C72.7133 31.39 73.0553 31.429 73.3613 31.507C73.6733 31.579 73.9553 31.69 74.2073 31.84C74.4653 31.984 74.6993 32.164 74.9093 32.38C75.1193 32.59 75.3173 32.833 75.5033 33.109C75.6173 32.923 75.7853 32.728 76.0073 32.524C76.2353 32.32 76.5053 32.134 76.8173 31.966C77.1293 31.798 77.4773 31.66 77.8613 31.552C78.2453 31.444 78.6533 31.39 79.0853 31.39C79.7693 31.39 80.3663 31.522 80.8763 31.786C81.3863 32.05 81.8093 32.41 82.1453 32.866C82.4873 33.322 82.7423 33.856 82.9103 34.468C83.0783 35.074 83.1623 35.722 83.1623 36.412V42.307C83.1623 42.535 83.1113 42.709 83.0093 42.829C82.9133 42.943 82.7573 43 82.5413 43H80.4623C80.2043 43 80.0273 42.958 79.9313 42.874C79.8353 42.784 79.7873 42.613 79.7873 42.361V36.412C79.7873 36.154 79.7453 35.914 79.6613 35.692C79.5833 35.47 79.4723 35.278 79.3283 35.116C79.1843 34.948 79.0073 34.819 78.7973 34.729C78.5933 34.633 78.3653 34.585 78.1133 34.585C77.8853 34.585 77.6693 34.63 77.4653 34.72C77.2613 34.81 77.0813 34.936 76.9253 35.098C76.7693 35.254 76.6433 35.446 76.5473 35.674C76.4573 35.896 76.4123 36.142 76.4123 36.412V42.307C76.4123 42.535 76.3613 42.709 76.2593 42.829C76.1633 42.943 76.0073 43 75.7913 43H75.6023H75.5303H73.7123C73.4543 43 73.2773 42.958 73.1813 42.874C73.0853 42.784 73.0373 42.613 73.0373 42.361V36.412C73.0373 36.154 72.9983 35.914 72.9203 35.692C72.8483 35.47 72.7403 35.278 72.5963 35.116C72.4583 34.948 72.2873 34.819 72.0833 34.729C71.8853 34.633 71.6603 34.585 71.4083 34.585C71.1923 34.585 70.9793 34.63 70.7693 34.72C70.5653 34.804 70.3793 34.927 70.2113 35.089C70.0493 35.245 69.9113 35.434 69.7973 35.656C69.6893 35.878 69.6263 36.124 69.6083 36.394V42.334C69.6083 42.436 69.5873 42.538 69.5453 42.64C69.5093 42.742 69.4523 42.82 69.3743 42.874C69.2963 42.922 69.2213 42.955 69.1493 42.973C69.0833 42.991 69.0053 43 68.9153 43H66.8813C66.6233 43 66.4373 42.937 66.3233 42.811C66.2093 42.685 66.1523 42.517 66.1523 42.307V32.236C66.1523 32.122 66.1763 32.017 66.2243 31.921C66.2783 31.825 66.3503 31.75 66.4403 31.696L66.3863 31.723Z" fill="white"/>
</svg>
