<svg width="49" height="56" viewBox="0 0 49 56" fill="none" xmlns="http://www.w3.org/2000/svg">
<path d="M3.5 53V3.5H45.5V53L25 41.5L3.5 53Z" fill="#9EB6F2" stroke="#9EB6F2" stroke-width="6" stroke-linecap="round" stroke-linejoin="round"/>
<path d="M9.40742 17.6687C9.46992 17.6687 9.52305 17.6875 9.5668 17.725C9.61055 17.7625 9.63242 17.8219 9.63242 17.9031V30.7094C9.63242 30.9031 9.54492 31 9.36992 31H9.36055C9.28555 31 9.22617 30.975 9.18242 30.925C9.13867 30.8687 9.1168 30.7969 9.1168 30.7094V18.325L7.70117 18.925C7.65742 18.95 7.60117 18.9625 7.53242 18.9625C7.41992 18.9625 7.34492 18.9062 7.30742 18.7937L7.29805 18.7656L7.2793 18.6812C7.2793 18.6187 7.30117 18.5719 7.34492 18.5406C7.38867 18.5031 7.4418 18.4719 7.5043 18.4469L9.09805 17.7531C9.11055 17.7469 9.14492 17.7312 9.20117 17.7062C9.25742 17.6812 9.31367 17.6687 9.36992 17.6687H9.40742ZM12.5375 24.3344C12.5375 23.1094 12.8375 21.9781 13.4375 20.9406C14.0438 19.9031 14.8625 19.0812 15.8938 18.475C16.9313 17.8625 18.0625 17.5562 19.2875 17.5562C20.5125 17.5562 21.6438 17.8625 22.6813 18.475C23.7188 19.0812 24.5406 19.9031 25.1469 20.9406C25.7594 21.9781 26.0656 23.1094 26.0656 24.3344C26.0656 25.5594 25.7594 26.6906 25.1469 27.7281C24.5406 28.7594 23.7188 29.5781 22.6813 30.1844C21.6438 30.7844 20.5125 31.0844 19.2875 31.0844C18.0625 31.0844 16.9313 30.7844 15.8938 30.1844C14.8625 29.5781 14.0438 28.7594 13.4375 27.7281C12.8375 26.6906 12.5375 25.5594 12.5375 24.3344ZM13.0719 24.3344C13.0719 25.4531 13.35 26.4875 13.9062 27.4375C14.4688 28.3875 15.225 29.1437 16.175 29.7062C17.1313 30.2625 18.1688 30.5406 19.2875 30.5406C20.4125 30.5406 21.4531 30.2625 22.4094 29.7062C23.3656 29.1437 24.125 28.3875 24.6875 27.4375C25.25 26.4875 25.5313 25.4531 25.5313 24.3344C25.5313 23.2094 25.25 22.1687 24.6875 21.2125C24.125 20.2562 23.3656 19.4969 22.4094 18.9344C21.4531 18.3719 20.4125 18.0906 19.2875 18.0906C18.1688 18.0906 17.1313 18.3719 16.175 18.9344C15.225 19.4969 14.4688 20.2594 13.9062 21.2219C13.35 22.1781 13.0719 23.2156 13.0719 24.3344ZM28.1797 20.725C28.1797 20.0375 28.3484 19.4031 28.6859 18.8219C29.0234 18.2344 29.4766 17.7687 30.0453 17.425C30.6203 17.0812 31.2484 16.9094 31.9297 16.9094C32.6172 16.9094 33.2547 17.0812 33.8422 17.425C34.4359 17.7687 34.9047 18.2344 35.2484 18.8219C35.5984 19.4031 35.7734 20.0375 35.7734 20.725C35.7734 21.4062 35.5984 22.0375 35.2484 22.6187C34.9047 23.1937 34.4359 23.6531 33.8422 23.9969C33.2547 24.3344 32.6172 24.5031 31.9297 24.5031C31.2484 24.5031 30.6203 24.3344 30.0453 23.9969C29.4766 23.6531 29.0234 23.1937 28.6859 22.6187C28.3484 22.0375 28.1797 21.4062 28.1797 20.725ZM28.6953 20.725C28.6953 21.3187 28.8391 21.8656 29.1266 22.3656C29.4203 22.8656 29.8141 23.2625 30.3078 23.5562C30.8016 23.85 31.3422 23.9969 31.9297 23.9969C32.5297 23.9969 33.0828 23.85 33.5891 23.5562C34.1016 23.2625 34.5047 22.8656 34.7984 22.3656C35.0984 21.8594 35.2484 21.3125 35.2484 20.725C35.2484 20.1375 35.0984 19.5906 34.7984 19.0844C34.4984 18.5781 34.0953 18.1781 33.5891 17.8844C33.0828 17.5844 32.5297 17.4344 31.9297 17.4344C31.3422 17.4344 30.8016 17.5844 30.3078 17.8844C29.8141 18.1781 29.4203 18.5781 29.1266 19.0844C28.8391 19.5844 28.6953 20.1312 28.6953 20.725ZM38.9047 17.7812C38.9672 17.7 39.0359 17.6594 39.1109 17.6594H39.1203C39.2078 17.6594 39.2703 17.6844 39.3078 17.7344C39.3516 17.7781 39.3734 17.8312 39.3734 17.8937C39.3734 17.9375 39.3578 17.9844 39.3266 18.0344L32.3516 30.9062C32.2953 30.9687 32.2297 31 32.1547 31H32.1453C32.0703 30.9875 32.0109 30.9594 31.9672 30.9156C31.9297 30.8656 31.9109 30.8094 31.9109 30.7469C31.9109 30.6844 31.9266 30.6312 31.9578 30.5875L38.9047 17.7812ZM36.6641 27.6719C36.6641 26.9844 36.8328 26.35 37.1703 25.7687C37.5078 25.1812 37.9609 24.7156 38.5297 24.3719C39.1047 24.0281 39.7328 23.8562 40.4141 23.8562C41.1016 23.8562 41.7391 24.0281 42.3266 24.3719C42.9203 24.7156 43.3891 25.1812 43.7328 25.7687C44.0828 26.35 44.2578 26.9844 44.2578 27.6719C44.2578 28.3531 44.0828 28.9844 43.7328 29.5656C43.3891 30.1406 42.9203 30.6 42.3266 30.9437C41.7391 31.2813 41.1016 31.45 40.4141 31.45C39.7328 31.45 39.1047 31.2813 38.5297 30.9437C37.9609 30.6 37.5078 30.1406 37.1703 29.5656C36.8328 28.9844 36.6641 28.3531 36.6641 27.6719ZM37.1797 27.6719C37.1797 28.2656 37.3234 28.8125 37.6109 29.3125C37.9047 29.8125 38.2984 30.2094 38.7922 30.5031C39.2859 30.7969 39.8266 30.9437 40.4141 30.9437C41.0141 30.9437 41.5672 30.7969 42.0734 30.5031C42.5859 30.2094 42.9891 29.8125 43.2828 29.3125C43.5828 28.8062 43.7328 28.2594 43.7328 27.6719C43.7328 27.0844 43.5828 26.5375 43.2828 26.0312C42.9828 25.525 42.5797 25.125 42.0734 24.8312C41.5672 24.5312 41.0141 24.3812 40.4141 24.3812C39.8266 24.3812 39.2859 24.5312 38.7922 24.8312C38.2984 25.125 37.9047 25.525 37.6109 26.0312C37.3234 26.5312 37.1797 27.0781 37.1797 27.6719Z" fill="black"/>
</svg>
