<svg width="88" height="101" viewBox="0 0 88 101" fill="none" xmlns="http://www.w3.org/2000/svg">
<path d="M3.62695 97.8553V3H84.1102V97.8553L44.8267 75.8182L3.62695 97.8553Z" fill="#9EB6F2" stroke="#9EB6F2" stroke-width="6" stroke-linecap="round" stroke-linejoin="round"/>
<path d="M23.2056 38.1546C23.1056 38.1546 23.0181 38.1213 22.9431 38.0546C22.8764 37.9796 22.8431 37.8963 22.8431 37.8046C22.8431 37.7629 22.8556 37.7171 22.8806 37.6671C23.3972 36.5754 24.1139 35.7463 25.0306 35.1796C25.9472 34.6046 26.9889 34.3171 28.1556 34.3171C29.2556 34.3171 30.2514 34.5504 31.1431 35.0171C32.0431 35.4838 32.7472 36.1296 33.2556 36.9546C33.7639 37.7713 34.0181 38.6921 34.0181 39.7171C34.0181 40.2588 33.9764 40.7421 33.8931 41.1671C33.8181 41.5838 33.6347 42.0463 33.3431 42.5546C33.0514 43.0629 32.6056 43.6046 32.0056 44.1796L23.5056 51.5171H34.4181C34.5264 51.5171 34.6181 51.5421 34.6931 51.5921C34.7764 51.6421 34.8181 51.7129 34.8181 51.8046V51.8421C34.8181 51.9671 34.7806 52.0588 34.7056 52.1171C34.6389 52.1754 34.5431 52.2046 34.4181 52.2046H22.6556C22.5389 52.2046 22.4514 52.1754 22.3931 52.1171C22.3347 52.0504 22.3056 51.9629 22.3056 51.8546V51.8421C22.3056 51.7088 22.3556 51.6004 22.4556 51.5171L31.4306 43.7796C32.0222 43.2129 32.4556 42.7004 32.7306 42.2421C33.0139 41.7838 33.1847 41.3754 33.2431 41.0171C33.3097 40.6504 33.3431 40.2088 33.3431 39.6921C33.3431 38.8588 33.1222 38.0838 32.6806 37.3671C32.2389 36.6421 31.6264 36.0671 30.8431 35.6421C30.0597 35.2088 29.1847 34.9921 28.2181 34.9921C27.1264 34.9921 26.2097 35.2296 25.4681 35.7046C24.7347 36.1713 24.0889 36.9088 23.5306 37.9171C23.4722 38.0254 23.4181 38.0921 23.3681 38.1171C23.3181 38.1421 23.2681 38.1546 23.2181 38.1546H23.2056ZM36.715 48.1546C36.7483 48.1213 36.8025 48.1046 36.8775 48.1046C37.0275 48.1046 37.1525 48.2088 37.2525 48.4171C37.8525 49.6921 38.6025 50.5713 39.5025 51.0546C40.4108 51.5296 41.365 51.7671 42.365 51.7671C43.4816 51.7671 44.4441 51.4921 45.2525 50.9421C46.0608 50.3838 46.6733 49.6921 47.09 48.8671C47.5066 48.0338 47.715 47.2088 47.715 46.3921C47.715 45.5338 47.4816 44.6796 47.015 43.8296C46.5566 42.9713 45.9191 42.2671 45.1025 41.7171C44.2941 41.1671 43.3941 40.8921 42.4025 40.8921C40.9441 40.8921 39.6816 41.3379 38.615 42.2296C38.44 42.3713 38.2983 42.5129 38.19 42.6546C38.0816 42.7963 37.9733 42.9588 37.865 43.1421C37.7733 43.2921 37.6983 43.4004 37.64 43.4671C37.5816 43.5254 37.5066 43.5546 37.415 43.5546H37.3775C37.1775 43.5546 37.0775 43.4296 37.0775 43.1796L37.6525 34.6671C37.6608 34.4588 37.7775 34.3546 38.0025 34.3546H46.715C46.9733 34.3546 47.1025 34.4629 47.1025 34.6796V34.7046C47.1025 34.9213 46.9733 35.0296 46.715 35.0296H38.315L37.79 42.0671C38.3233 41.4588 38.9816 41.0046 39.765 40.7046C40.5483 40.4046 41.415 40.2546 42.365 40.2546C43.4983 40.2546 44.5233 40.5463 45.44 41.1296C46.3566 41.7129 47.0733 42.4754 47.59 43.4171C48.1066 44.3588 48.365 45.3504 48.365 46.3921C48.365 47.5004 48.0941 48.5171 47.5525 49.4421C47.0108 50.3671 46.2733 51.1004 45.34 51.6421C44.4066 52.1838 43.3691 52.4546 42.2275 52.4546C40.9525 52.4546 39.8233 52.1171 38.84 51.4421C37.865 50.7588 37.1191 49.8546 36.6025 48.7296C36.5525 48.6796 36.5275 48.5921 36.5275 48.4671C36.5275 48.3504 36.5775 48.2546 36.6775 48.1796L36.715 48.1546ZM50.5634 38.5046C50.5634 37.5879 50.7884 36.7421 51.2384 35.9671C51.6884 35.1838 52.2926 34.5629 53.0509 34.1046C53.8176 33.6463 54.6551 33.4171 55.5634 33.4171C56.4801 33.4171 57.3301 33.6463 58.1134 34.1046C58.9051 34.5629 59.5301 35.1838 59.9884 35.9671C60.4551 36.7421 60.6884 37.5879 60.6884 38.5046C60.6884 39.4129 60.4551 40.2546 59.9884 41.0296C59.5301 41.7963 58.9051 42.4088 58.1134 42.8671C57.3301 43.3171 56.4801 43.5421 55.5634 43.5421C54.6551 43.5421 53.8176 43.3171 53.0509 42.8671C52.2926 42.4088 51.6884 41.7963 51.2384 41.0296C50.7884 40.2546 50.5634 39.4129 50.5634 38.5046ZM51.2509 38.5046C51.2509 39.2963 51.4426 40.0254 51.8259 40.6921C52.2176 41.3588 52.7426 41.8879 53.4009 42.2796C54.0592 42.6713 54.7801 42.8671 55.5634 42.8671C56.3634 42.8671 57.1009 42.6713 57.7759 42.2796C58.4592 41.8879 58.9967 41.3588 59.3884 40.6921C59.7884 40.0171 59.9884 39.2879 59.9884 38.5046C59.9884 37.7213 59.7884 36.9921 59.3884 36.3171C58.9884 35.6421 58.4509 35.1088 57.7759 34.7171C57.1009 34.3171 56.3634 34.1171 55.5634 34.1171C54.7801 34.1171 54.0592 34.3171 53.4009 34.7171C52.7426 35.1088 52.2176 35.6421 51.8259 36.3171C51.4426 36.9838 51.2509 37.7129 51.2509 38.5046ZM64.8634 34.5796C64.9467 34.4713 65.0384 34.4171 65.1384 34.4171H65.1509C65.2676 34.4171 65.3509 34.4504 65.4009 34.5171C65.4592 34.5754 65.4884 34.6463 65.4884 34.7296C65.4884 34.7879 65.4676 34.8504 65.4259 34.9171L56.1259 52.0796C56.0509 52.1629 55.9634 52.2046 55.8634 52.2046H55.8509C55.7509 52.1879 55.6717 52.1504 55.6134 52.0921C55.5634 52.0254 55.5384 51.9504 55.5384 51.8671C55.5384 51.7838 55.5592 51.7129 55.6009 51.6546L64.8634 34.5796ZM61.8759 47.7671C61.8759 46.8504 62.1009 46.0046 62.5509 45.2296C63.0009 44.4463 63.6051 43.8254 64.3634 43.3671C65.1301 42.9088 65.9676 42.6796 66.8759 42.6796C67.7926 42.6796 68.6426 42.9088 69.4259 43.3671C70.2176 43.8254 70.8426 44.4463 71.3009 45.2296C71.7676 46.0046 72.0009 46.8504 72.0009 47.7671C72.0009 48.6754 71.7676 49.5171 71.3009 50.2921C70.8426 51.0588 70.2176 51.6713 69.4259 52.1296C68.6426 52.5796 67.7926 52.8046 66.8759 52.8046C65.9676 52.8046 65.1301 52.5796 64.3634 52.1296C63.6051 51.6713 63.0009 51.0588 62.5509 50.2921C62.1009 49.5171 61.8759 48.6754 61.8759 47.7671ZM62.5634 47.7671C62.5634 48.5588 62.7551 49.2879 63.1384 49.9546C63.5301 50.6213 64.0551 51.1504 64.7134 51.5421C65.3717 51.9338 66.0926 52.1296 66.8759 52.1296C67.6759 52.1296 68.4134 51.9338 69.0884 51.5421C69.7717 51.1504 70.3092 50.6213 70.7009 49.9546C71.1009 49.2796 71.3009 48.5504 71.3009 47.7671C71.3009 46.9838 71.1009 46.2546 70.7009 45.5796C70.3009 44.9046 69.7634 44.3713 69.0884 43.9796C68.4134 43.5796 67.6759 43.3796 66.8759 43.3796C66.0926 43.3796 65.3717 43.5796 64.7134 43.9796C64.0551 44.3713 63.5301 44.9046 63.1384 45.5796C62.7551 46.2463 62.5634 46.9754 62.5634 47.7671Z" fill="black"/>
</svg>
