<svg width="48" height="56" viewBox="0 0 48 56" fill="none" xmlns="http://www.w3.org/2000/svg">
<path d="M3 52.5V3H45V52.5L24.5 41L3 52.5Z" fill="#9EB6F2" stroke="#9EB6F2" stroke-width="6" stroke-linecap="round" stroke-linejoin="round"/>
<path d="M12.5473 27.4625C12.5723 27.4375 12.6129 27.425 12.6691 27.425C12.7816 27.425 12.8754 27.5031 12.9504 27.6594C13.4004 28.6156 13.9629 29.275 14.6379 29.6375C15.3191 29.9937 16.0348 30.1719 16.7848 30.1719C17.6223 30.1719 18.3441 29.9656 18.9504 29.5531C19.5566 29.1344 20.016 28.6156 20.3285 27.9969C20.641 27.3719 20.7973 26.7531 20.7973 26.1406C20.7973 25.4969 20.6223 24.8562 20.2723 24.2187C19.9285 23.575 19.4504 23.0469 18.8379 22.6344C18.2316 22.2219 17.5566 22.0156 16.8129 22.0156C15.7191 22.0156 14.7723 22.35 13.9723 23.0187C13.841 23.125 13.7348 23.2312 13.6535 23.3375C13.5723 23.4437 13.491 23.5656 13.4098 23.7031C13.341 23.8156 13.2848 23.8969 13.241 23.9469C13.1973 23.9906 13.141 24.0125 13.0723 24.0125H13.0441C12.8941 24.0125 12.8191 23.9187 12.8191 23.7312L13.2504 17.3469C13.2566 17.1906 13.3441 17.1125 13.5129 17.1125H20.0473C20.241 17.1125 20.3379 17.1937 20.3379 17.3562V17.375C20.3379 17.5375 20.241 17.6187 20.0473 17.6187H13.7473L13.3535 22.8969C13.7535 22.4406 14.2473 22.1 14.8348 21.875C15.4223 21.65 16.0723 21.5375 16.7848 21.5375C17.6348 21.5375 18.4035 21.7562 19.091 22.1937C19.7785 22.6312 20.316 23.2031 20.7035 23.9094C21.091 24.6156 21.2848 25.3594 21.2848 26.1406C21.2848 26.9719 21.0816 27.7344 20.6754 28.4281C20.2691 29.1219 19.716 29.6719 19.016 30.0781C18.316 30.4844 17.5379 30.6875 16.6816 30.6875C15.7254 30.6875 14.8785 30.4344 14.141 29.9281C13.4098 29.4156 12.8504 28.7375 12.4629 27.8937C12.4254 27.8562 12.4066 27.7906 12.4066 27.6969C12.4066 27.6094 12.4441 27.5375 12.5191 27.4812L12.5473 27.4625ZM22.9336 20.225C22.9336 19.5375 23.1023 18.9031 23.4398 18.3219C23.7773 17.7344 24.2305 17.2687 24.7992 16.925C25.3742 16.5812 26.0023 16.4094 26.6836 16.4094C27.3711 16.4094 28.0086 16.5812 28.5961 16.925C29.1898 17.2687 29.6586 17.7344 30.0023 18.3219C30.3523 18.9031 30.5273 19.5375 30.5273 20.225C30.5273 20.9062 30.3523 21.5375 30.0023 22.1187C29.6586 22.6937 29.1898 23.1531 28.5961 23.4969C28.0086 23.8344 27.3711 24.0031 26.6836 24.0031C26.0023 24.0031 25.3742 23.8344 24.7992 23.4969C24.2305 23.1531 23.7773 22.6937 23.4398 22.1187C23.1023 21.5375 22.9336 20.9062 22.9336 20.225ZM23.4492 20.225C23.4492 20.8187 23.593 21.3656 23.8805 21.8656C24.1742 22.3656 24.568 22.7625 25.0617 23.0562C25.5555 23.35 26.0961 23.4969 26.6836 23.4969C27.2836 23.4969 27.8367 23.35 28.343 23.0562C28.8555 22.7625 29.2586 22.3656 29.5523 21.8656C29.8523 21.3594 30.0023 20.8125 30.0023 20.225C30.0023 19.6375 29.8523 19.0906 29.5523 18.5844C29.2523 18.0781 28.8492 17.6781 28.343 17.3844C27.8367 17.0844 27.2836 16.9344 26.6836 16.9344C26.0961 16.9344 25.5555 17.0844 25.0617 17.3844C24.568 17.6781 24.1742 18.0781 23.8805 18.5844C23.593 19.0844 23.4492 19.6312 23.4492 20.225ZM33.6586 17.2812C33.7211 17.2 33.7898 17.1594 33.8648 17.1594H33.8742C33.9617 17.1594 34.0242 17.1844 34.0617 17.2344C34.1055 17.2781 34.1273 17.3312 34.1273 17.3937C34.1273 17.4375 34.1117 17.4844 34.0805 17.5344L27.1055 30.4062C27.0492 30.4687 26.9836 30.5 26.9086 30.5H26.8992C26.8242 30.4875 26.7648 30.4594 26.7211 30.4156C26.6836 30.3656 26.6648 30.3094 26.6648 30.2469C26.6648 30.1844 26.6805 30.1312 26.7117 30.0875L33.6586 17.2812ZM31.418 27.1719C31.418 26.4844 31.5867 25.85 31.9242 25.2687C32.2617 24.6812 32.7148 24.2156 33.2836 23.8719C33.8586 23.5281 34.4867 23.3562 35.168 23.3562C35.8555 23.3562 36.493 23.5281 37.0805 23.8719C37.6742 24.2156 38.143 24.6812 38.4867 25.2687C38.8367 25.85 39.0117 26.4844 39.0117 27.1719C39.0117 27.8531 38.8367 28.4844 38.4867 29.0656C38.143 29.6406 37.6742 30.1 37.0805 30.4437C36.493 30.7813 35.8555 30.95 35.168 30.95C34.4867 30.95 33.8586 30.7813 33.2836 30.4437C32.7148 30.1 32.2617 29.6406 31.9242 29.0656C31.5867 28.4844 31.418 27.8531 31.418 27.1719ZM31.9336 27.1719C31.9336 27.7656 32.0773 28.3125 32.3648 28.8125C32.6586 29.3125 33.0523 29.7094 33.5461 30.0031C34.0398 30.2969 34.5805 30.4437 35.168 30.4437C35.768 30.4437 36.3211 30.2969 36.8273 30.0031C37.3398 29.7094 37.743 29.3125 38.0367 28.8125C38.3367 28.3062 38.4867 27.7594 38.4867 27.1719C38.4867 26.5844 38.3367 26.0375 38.0367 25.5312C37.7367 25.025 37.3336 24.625 36.8273 24.3312C36.3211 24.0312 35.768 23.8812 35.168 23.8812C34.5805 23.8812 34.0398 24.0312 33.5461 24.3312C33.0523 24.625 32.6586 25.025 32.3648 25.5312C32.0773 26.0312 31.9336 26.5781 31.9336 27.1719Z" fill="black"/>
</svg>
