<svg width="69" height="81" viewBox="0 0 69 81" fill="none" xmlns="http://www.w3.org/2000/svg">
<path d="M3 77.25V3H66V77.25L35.25 60L3 77.25Z" fill="#9EB6F2" stroke="#9EB6F2" stroke-width="6" stroke-linecap="round" stroke-linejoin="round"/>
<path d="M8.18281 38.95C8.21615 38.9167 8.27031 38.9 8.34531 38.9C8.49531 38.9 8.62031 39.0042 8.72031 39.2125C9.32031 40.4875 10.0703 41.3667 10.9703 41.85C11.8786 42.325 12.8328 42.5625 13.8328 42.5625C14.9495 42.5625 15.912 42.2875 16.7203 41.7375C17.5286 41.1792 18.1411 40.4875 18.5578 39.6625C18.9745 38.8292 19.1828 38.0042 19.1828 37.1875C19.1828 36.3292 18.9495 35.475 18.4828 34.625C18.0245 33.7667 17.387 33.0625 16.5703 32.5125C15.762 31.9625 14.862 31.6875 13.8703 31.6875C12.412 31.6875 11.1495 32.1333 10.0828 33.025C9.90781 33.1667 9.76615 33.3083 9.65781 33.45C9.54948 33.5917 9.44115 33.7542 9.33281 33.9375C9.24115 34.0875 9.16615 34.1958 9.10781 34.2625C9.04948 34.3208 8.97448 34.35 8.88281 34.35H8.84531C8.64531 34.35 8.54531 34.225 8.54531 33.975L9.12031 25.4625C9.12865 25.2542 9.24531 25.15 9.47031 25.15H18.1828C18.4411 25.15 18.5703 25.2583 18.5703 25.475V25.5C18.5703 25.7167 18.4411 25.825 18.1828 25.825H9.78281L9.25781 32.8625C9.79115 32.2542 10.4495 31.8 11.2328 31.5C12.0161 31.2 12.8828 31.05 13.8328 31.05C14.9661 31.05 15.9911 31.3417 16.9078 31.925C17.8245 32.5083 18.5411 33.2708 19.0578 34.2125C19.5745 35.1542 19.8328 36.1458 19.8328 37.1875C19.8328 38.2958 19.562 39.3125 19.0203 40.2375C18.4786 41.1625 17.7411 41.8958 16.8078 42.4375C15.8745 42.9792 14.837 43.25 13.6953 43.25C12.4203 43.25 11.2911 42.9125 10.3078 42.2375C9.33281 41.5542 8.58698 40.65 8.07031 39.525C8.02031 39.475 7.99531 39.3875 7.99531 39.2625C7.99531 39.1458 8.04531 39.05 8.14531 38.975L8.18281 38.95ZM22.2688 34.1125C22.2688 32.4792 22.6688 30.9708 23.4688 29.5875C24.2771 28.2042 25.3688 27.1083 26.7438 26.3C28.1271 25.4833 29.6354 25.075 31.2688 25.075C32.9021 25.075 34.4104 25.4833 35.7938 26.3C37.1771 27.1083 38.2729 28.2042 39.0813 29.5875C39.8979 30.9708 40.3063 32.4792 40.3063 34.1125C40.3063 35.7458 39.8979 37.2542 39.0813 38.6375C38.2729 40.0125 37.1771 41.1042 35.7938 41.9125C34.4104 42.7125 32.9021 43.1125 31.2688 43.1125C29.6354 43.1125 28.1271 42.7125 26.7438 41.9125C25.3688 41.1042 24.2771 40.0125 23.4688 38.6375C22.6688 37.2542 22.2688 35.7458 22.2688 34.1125ZM22.9813 34.1125C22.9813 35.6042 23.3521 36.9833 24.0938 38.25C24.8438 39.5167 25.8521 40.525 27.1188 41.275C28.3938 42.0167 29.7771 42.3875 31.2688 42.3875C32.7688 42.3875 34.1563 42.0167 35.4313 41.275C36.7063 40.525 37.7188 39.5167 38.4688 38.25C39.2188 36.9833 39.5938 35.6042 39.5938 34.1125C39.5938 32.6125 39.2188 31.225 38.4688 29.95C37.7188 28.675 36.7063 27.6625 35.4313 26.9125C34.1563 26.1625 32.7688 25.7875 31.2688 25.7875C29.7771 25.7875 28.3938 26.1625 27.1188 26.9125C25.8521 27.6625 24.8438 28.6792 24.0938 29.9625C23.3521 31.2375 22.9813 32.6208 22.9813 34.1125ZM43.125 29.3C43.125 28.3833 43.35 27.5375 43.8 26.7625C44.25 25.9792 44.8542 25.3583 45.6125 24.9C46.3792 24.4417 47.2167 24.2125 48.125 24.2125C49.0417 24.2125 49.8917 24.4417 50.675 24.9C51.4667 25.3583 52.0917 25.9792 52.55 26.7625C53.0167 27.5375 53.25 28.3833 53.25 29.3C53.25 30.2083 53.0167 31.05 52.55 31.825C52.0917 32.5917 51.4667 33.2042 50.675 33.6625C49.8917 34.1125 49.0417 34.3375 48.125 34.3375C47.2167 34.3375 46.3792 34.1125 45.6125 33.6625C44.8542 33.2042 44.25 32.5917 43.8 31.825C43.35 31.05 43.125 30.2083 43.125 29.3ZM43.8125 29.3C43.8125 30.0917 44.0042 30.8208 44.3875 31.4875C44.7792 32.1542 45.3042 32.6833 45.9625 33.075C46.6208 33.4667 47.3417 33.6625 48.125 33.6625C48.925 33.6625 49.6625 33.4667 50.3375 33.075C51.0208 32.6833 51.5583 32.1542 51.95 31.4875C52.35 30.8125 52.55 30.0833 52.55 29.3C52.55 28.5167 52.35 27.7875 51.95 27.1125C51.55 26.4375 51.0125 25.9042 50.3375 25.5125C49.6625 25.1125 48.925 24.9125 48.125 24.9125C47.3417 24.9125 46.6208 25.1125 45.9625 25.5125C45.3042 25.9042 44.7792 26.4375 44.3875 27.1125C44.0042 27.7792 43.8125 28.5083 43.8125 29.3ZM57.425 25.375C57.5083 25.2667 57.6 25.2125 57.7 25.2125H57.7125C57.8292 25.2125 57.9125 25.2458 57.9625 25.3125C58.0208 25.3708 58.05 25.4417 58.05 25.525C58.05 25.5833 58.0292 25.6458 57.9875 25.7125L48.6875 42.875C48.6125 42.9583 48.525 43 48.425 43H48.4125C48.3125 42.9833 48.2333 42.9458 48.175 42.8875C48.125 42.8208 48.1 42.7458 48.1 42.6625C48.1 42.5792 48.1208 42.5083 48.1625 42.45L57.425 25.375ZM54.4375 38.5625C54.4375 37.6458 54.6625 36.8 55.1125 36.025C55.5625 35.2417 56.1667 34.6208 56.925 34.1625C57.6917 33.7042 58.5292 33.475 59.4375 33.475C60.3542 33.475 61.2042 33.7042 61.9875 34.1625C62.7792 34.6208 63.4042 35.2417 63.8625 36.025C64.3292 36.8 64.5625 37.6458 64.5625 38.5625C64.5625 39.4708 64.3292 40.3125 63.8625 41.0875C63.4042 41.8542 62.7792 42.4667 61.9875 42.925C61.2042 43.375 60.3542 43.6 59.4375 43.6C58.5292 43.6 57.6917 43.375 56.925 42.925C56.1667 42.4667 55.5625 41.8542 55.1125 41.0875C54.6625 40.3125 54.4375 39.4708 54.4375 38.5625ZM55.125 38.5625C55.125 39.3542 55.3167 40.0833 55.7 40.75C56.0917 41.4167 56.6167 41.9458 57.275 42.3375C57.9333 42.7292 58.6542 42.925 59.4375 42.925C60.2375 42.925 60.975 42.7292 61.65 42.3375C62.3333 41.9458 62.8708 41.4167 63.2625 40.75C63.6625 40.075 63.8625 39.3458 63.8625 38.5625C63.8625 37.7792 63.6625 37.05 63.2625 36.375C62.8625 35.7 62.325 35.1667 61.65 34.775C60.975 34.375 60.2375 34.175 59.4375 34.175C58.6542 34.175 57.9333 34.375 57.275 34.775C56.6167 35.1667 56.0917 35.7 55.7 36.375C55.3167 37.0417 55.125 37.7708 55.125 38.5625Z" fill="black"/>
</svg>
