<svg width="48" height="56" viewBox="0 0 48 56" fill="none" xmlns="http://www.w3.org/2000/svg">
<path d="M3 52.5V3H45V52.5L24.5 41L3 52.5Z" fill="#9EB6F2" stroke="#9EB6F2" stroke-width="6" stroke-linecap="round" stroke-linejoin="round"/>
<path d="M13.66 20.1219C13.66 19.5656 13.7975 19.0531 14.0725 18.5844C14.3537 18.1156 14.7287 17.7437 15.1975 17.4687C15.6725 17.1875 16.1881 17.0469 16.7443 17.0469C17.2943 17.0469 17.8037 17.1875 18.2725 17.4687C18.7475 17.7437 19.1225 18.1187 19.3975 18.5937C19.6787 19.0625 19.8193 19.5719 19.8193 20.1219C19.8193 20.7344 19.6537 21.2906 19.3225 21.7906C18.9975 22.2906 18.5662 22.6687 18.0287 22.925C18.5475 23.1 19.01 23.375 19.4162 23.75C19.8287 24.1187 20.1475 24.5594 20.3725 25.0719C20.6037 25.5781 20.7193 26.1156 20.7193 26.6844C20.7193 27.4031 20.5412 28.0687 20.185 28.6812C19.8287 29.2875 19.3443 29.7687 18.7318 30.125C18.1256 30.4813 17.4631 30.6594 16.7443 30.6594C16.0256 30.6594 15.36 30.4813 14.7475 30.125C14.1412 29.7687 13.66 29.2875 13.3037 28.6812C12.9475 28.0687 12.7693 27.4031 12.7693 26.6844C12.7693 26.1156 12.8818 25.5781 13.1068 25.0719C13.3318 24.5594 13.6475 24.1187 14.0537 23.75C14.46 23.375 14.9256 23.1 15.4506 22.925C14.9193 22.6812 14.4881 22.3062 14.1568 21.8C13.8256 21.2937 13.66 20.7344 13.66 20.1219ZM14.1568 20.1219C14.1568 20.5906 14.2725 21.0219 14.5037 21.4156C14.7412 21.8094 15.0568 22.1219 15.4506 22.3531C15.8506 22.5844 16.2818 22.7 16.7443 22.7C17.2068 22.7 17.635 22.5844 18.0287 22.3531C18.4287 22.1219 18.7443 21.8094 18.9756 21.4156C19.2131 21.0219 19.3318 20.5906 19.3318 20.1219C19.3318 19.6594 19.2131 19.2312 18.9756 18.8375C18.7443 18.4375 18.4287 18.1219 18.0287 17.8906C17.635 17.6531 17.2068 17.5344 16.7443 17.5344C16.2818 17.5344 15.8506 17.6531 15.4506 17.8906C15.0568 18.1219 14.7412 18.4375 14.5037 18.8375C14.2725 19.2312 14.1568 19.6594 14.1568 20.1219ZM13.2568 26.6844C13.2568 27.3156 13.4131 27.9 13.7256 28.4375C14.0381 28.9687 14.46 29.3906 14.9912 29.7031C15.5287 30.0156 16.1131 30.1719 16.7443 30.1719C17.3693 30.1719 17.9475 30.0156 18.4787 29.7031C19.0162 29.3906 19.4412 28.9687 19.7537 28.4375C20.0725 27.9 20.2318 27.3156 20.2318 26.6844C20.2318 26.0531 20.0725 25.4719 19.7537 24.9406C19.4412 24.4094 19.0162 23.9875 18.4787 23.675C17.9475 23.3625 17.3693 23.2062 16.7443 23.2062C16.1131 23.2062 15.5287 23.3625 14.9912 23.675C14.46 23.9875 14.0381 24.4094 13.7256 24.9406C13.4131 25.4719 13.2568 26.0531 13.2568 26.6844ZM22.6084 20.225C22.6084 19.5375 22.7771 18.9031 23.1146 18.3219C23.4521 17.7344 23.9053 17.2687 24.474 16.925C25.049 16.5812 25.6771 16.4094 26.3584 16.4094C27.0459 16.4094 27.6834 16.5812 28.2709 16.925C28.8646 17.2687 29.3334 17.7344 29.6771 18.3219C30.0271 18.9031 30.2021 19.5375 30.2021 20.225C30.2021 20.9062 30.0271 21.5375 29.6771 22.1187C29.3334 22.6937 28.8646 23.1531 28.2709 23.4969C27.6834 23.8344 27.0459 24.0031 26.3584 24.0031C25.6771 24.0031 25.049 23.8344 24.474 23.4969C23.9053 23.1531 23.4521 22.6937 23.1146 22.1187C22.7771 21.5375 22.6084 20.9062 22.6084 20.225ZM23.124 20.225C23.124 20.8187 23.2678 21.3656 23.5553 21.8656C23.849 22.3656 24.2428 22.7625 24.7365 23.0562C25.2303 23.35 25.7709 23.4969 26.3584 23.4969C26.9584 23.4969 27.5115 23.35 28.0178 23.0562C28.5303 22.7625 28.9334 22.3656 29.2271 21.8656C29.5271 21.3594 29.6771 20.8125 29.6771 20.225C29.6771 19.6375 29.5271 19.0906 29.2271 18.5844C28.9271 18.0781 28.524 17.6781 28.0178 17.3844C27.5115 17.0844 26.9584 16.9344 26.3584 16.9344C25.7709 16.9344 25.2303 17.0844 24.7365 17.3844C24.2428 17.6781 23.849 18.0781 23.5553 18.5844C23.2678 19.0844 23.124 19.6312 23.124 20.225ZM33.3334 17.2812C33.3959 17.2 33.4646 17.1594 33.5396 17.1594H33.549C33.6365 17.1594 33.699 17.1844 33.7365 17.2344C33.7803 17.2781 33.8021 17.3312 33.8021 17.3937C33.8021 17.4375 33.7865 17.4844 33.7553 17.5344L26.7803 30.4062C26.724 30.4687 26.6584 30.5 26.5834 30.5H26.574C26.499 30.4875 26.4396 30.4594 26.3959 30.4156C26.3584 30.3656 26.3396 30.3094 26.3396 30.2469C26.3396 30.1844 26.3553 30.1312 26.3865 30.0875L33.3334 17.2812ZM31.0928 27.1719C31.0928 26.4844 31.2615 25.85 31.599 25.2687C31.9365 24.6812 32.3896 24.2156 32.9584 23.8719C33.5334 23.5281 34.1615 23.3562 34.8428 23.3562C35.5303 23.3562 36.1678 23.5281 36.7553 23.8719C37.349 24.2156 37.8178 24.6812 38.1615 25.2687C38.5115 25.85 38.6865 26.4844 38.6865 27.1719C38.6865 27.8531 38.5115 28.4844 38.1615 29.0656C37.8178 29.6406 37.349 30.1 36.7553 30.4437C36.1678 30.7813 35.5303 30.95 34.8428 30.95C34.1615 30.95 33.5334 30.7813 32.9584 30.4437C32.3896 30.1 31.9365 29.6406 31.599 29.0656C31.2615 28.4844 31.0928 27.8531 31.0928 27.1719ZM31.6084 27.1719C31.6084 27.7656 31.7521 28.3125 32.0396 28.8125C32.3334 29.3125 32.7271 29.7094 33.2209 30.0031C33.7146 30.2969 34.2553 30.4437 34.8428 30.4437C35.4428 30.4437 35.9959 30.2969 36.5021 30.0031C37.0146 29.7094 37.4178 29.3125 37.7115 28.8125C38.0115 28.3062 38.1615 27.7594 38.1615 27.1719C38.1615 26.5844 38.0115 26.0375 37.7115 25.5312C37.4115 25.025 37.0084 24.625 36.5021 24.3312C35.9959 24.0312 35.4428 23.8812 34.8428 23.8812C34.2553 23.8812 33.7146 24.0312 33.2209 24.3312C32.7271 24.625 32.3334 25.025 32.0396 25.5312C31.7521 26.0312 31.6084 26.5781 31.6084 27.1719Z" fill="black"/>
</svg>
