<svg width="48" height="56" viewBox="0 0 48 56" fill="none" xmlns="http://www.w3.org/2000/svg">
<path d="M3 52.5V3H45V52.5L24.5 41L3 52.5Z" fill="#9EB6F2" stroke="#9EB6F2" stroke-width="6" stroke-linecap="round" stroke-linejoin="round"/>
<path d="M14.1119 17.1594C14.1994 17.1594 14.2682 17.1844 14.3182 17.2344C14.3682 17.2844 14.3932 17.35 14.3932 17.4312C14.3932 17.5187 14.3713 17.5937 14.3275 17.6562L6.70566 30.3594C6.68066 30.4031 6.64629 30.4375 6.60254 30.4625C6.55879 30.4875 6.51816 30.5 6.48066 30.5H6.46191C6.38691 30.5 6.32441 30.475 6.27441 30.425C6.22441 30.3687 6.19941 30.3031 6.19941 30.2281C6.19941 30.1719 6.21504 30.1187 6.24629 30.0687L13.7369 17.675H5.76816C5.57441 17.675 5.47754 17.5844 5.47754 17.4031C5.47754 17.2406 5.57441 17.1594 5.76816 17.1594H14.1119ZM15.0424 23.8344C15.0424 22.6094 15.3424 21.4781 15.9424 20.4406C16.5486 19.4031 17.3674 18.5812 18.3986 17.975C19.4361 17.3625 20.5674 17.0562 21.7924 17.0562C23.0174 17.0562 24.1486 17.3625 25.1861 17.975C26.2236 18.5812 27.0455 19.4031 27.6518 20.4406C28.2643 21.4781 28.5705 22.6094 28.5705 23.8344C28.5705 25.0594 28.2643 26.1906 27.6518 27.2281C27.0455 28.2594 26.2236 29.0781 25.1861 29.6844C24.1486 30.2844 23.0174 30.5844 21.7924 30.5844C20.5674 30.5844 19.4361 30.2844 18.3986 29.6844C17.3674 29.0781 16.5486 28.2594 15.9424 27.2281C15.3424 26.1906 15.0424 25.0594 15.0424 23.8344ZM15.5768 23.8344C15.5768 24.9531 15.8549 25.9875 16.4111 26.9375C16.9736 27.8875 17.7299 28.6437 18.6799 29.2062C19.6361 29.7625 20.6736 30.0406 21.7924 30.0406C22.9174 30.0406 23.958 29.7625 24.9143 29.2062C25.8705 28.6437 26.6299 27.8875 27.1924 26.9375C27.7549 25.9875 28.0361 24.9531 28.0361 23.8344C28.0361 22.7094 27.7549 21.6687 27.1924 20.7125C26.6299 19.7562 25.8705 18.9969 24.9143 18.4344C23.958 17.8719 22.9174 17.5906 21.7924 17.5906C20.6736 17.5906 19.6361 17.8719 18.6799 18.4344C17.7299 18.9969 16.9736 19.7594 16.4111 20.7219C15.8549 21.6781 15.5768 22.7156 15.5768 23.8344ZM30.6846 20.225C30.6846 19.5375 30.8533 18.9031 31.1908 18.3219C31.5283 17.7344 31.9814 17.2687 32.5502 16.925C33.1252 16.5812 33.7533 16.4094 34.4346 16.4094C35.1221 16.4094 35.7596 16.5812 36.3471 16.925C36.9408 17.2687 37.4096 17.7344 37.7533 18.3219C38.1033 18.9031 38.2783 19.5375 38.2783 20.225C38.2783 20.9062 38.1033 21.5375 37.7533 22.1187C37.4096 22.6937 36.9408 23.1531 36.3471 23.4969C35.7596 23.8344 35.1221 24.0031 34.4346 24.0031C33.7533 24.0031 33.1252 23.8344 32.5502 23.4969C31.9814 23.1531 31.5283 22.6937 31.1908 22.1187C30.8533 21.5375 30.6846 20.9062 30.6846 20.225ZM31.2002 20.225C31.2002 20.8187 31.3439 21.3656 31.6314 21.8656C31.9252 22.3656 32.3189 22.7625 32.8127 23.0562C33.3064 23.35 33.8471 23.4969 34.4346 23.4969C35.0346 23.4969 35.5877 23.35 36.0939 23.0562C36.6064 22.7625 37.0096 22.3656 37.3033 21.8656C37.6033 21.3594 37.7533 20.8125 37.7533 20.225C37.7533 19.6375 37.6033 19.0906 37.3033 18.5844C37.0033 18.0781 36.6002 17.6781 36.0939 17.3844C35.5877 17.0844 35.0346 16.9344 34.4346 16.9344C33.8471 16.9344 33.3064 17.0844 32.8127 17.3844C32.3189 17.6781 31.9252 18.0781 31.6314 18.5844C31.3439 19.0844 31.2002 19.6312 31.2002 20.225ZM41.4096 17.2812C41.4721 17.2 41.5408 17.1594 41.6158 17.1594H41.6252C41.7127 17.1594 41.7752 17.1844 41.8127 17.2344C41.8564 17.2781 41.8783 17.3312 41.8783 17.3937C41.8783 17.4375 41.8627 17.4844 41.8314 17.5344L34.8564 30.4062C34.8002 30.4687 34.7346 30.5 34.6596 30.5H34.6502C34.5752 30.4875 34.5158 30.4594 34.4721 30.4156C34.4346 30.3656 34.4158 30.3094 34.4158 30.2469C34.4158 30.1844 34.4314 30.1312 34.4627 30.0875L41.4096 17.2812ZM39.1689 27.1719C39.1689 26.4844 39.3377 25.85 39.6752 25.2687C40.0127 24.6812 40.4658 24.2156 41.0346 23.8719C41.6096 23.5281 42.2377 23.3562 42.9189 23.3562C43.6064 23.3562 44.2439 23.5281 44.8314 23.8719C45.4252 24.2156 45.8939 24.6812 46.2377 25.2687C46.5877 25.85 46.7627 26.4844 46.7627 27.1719C46.7627 27.8531 46.5877 28.4844 46.2377 29.0656C45.8939 29.6406 45.4252 30.1 44.8314 30.4437C44.2439 30.7813 43.6064 30.95 42.9189 30.95C42.2377 30.95 41.6096 30.7813 41.0346 30.4437C40.4658 30.1 40.0127 29.6406 39.6752 29.0656C39.3377 28.4844 39.1689 27.8531 39.1689 27.1719ZM39.6846 27.1719C39.6846 27.7656 39.8283 28.3125 40.1158 28.8125C40.4096 29.3125 40.8033 29.7094 41.2971 30.0031C41.7908 30.2969 42.3314 30.4437 42.9189 30.4437C43.5189 30.4437 44.0721 30.2969 44.5783 30.0031C45.0908 29.7094 45.4939 29.3125 45.7877 28.8125C46.0877 28.3062 46.2377 27.7594 46.2377 27.1719C46.2377 26.5844 46.0877 26.0375 45.7877 25.5312C45.4877 25.025 45.0846 24.625 44.5783 24.3312C44.0721 24.0312 43.5189 23.8812 42.9189 23.8812C42.3314 23.8812 41.7908 24.0312 41.2971 24.3312C40.8033 24.625 40.4096 25.025 40.1158 25.5312C39.8283 26.0312 39.6846 26.5781 39.6846 27.1719Z" fill="black"/>
</svg>
