<svg width="48" height="56" viewBox="0 0 48 56" fill="none" xmlns="http://www.w3.org/2000/svg">
<path d="M3 52.5V3H45V52.5L24.5 41L3 52.5Z" fill="#9EB6F2" stroke="#9EB6F2" stroke-width="6" stroke-linecap="round" stroke-linejoin="round"/>
<path d="M12.0354 17.1687C12.0979 17.1687 12.151 17.1875 12.1947 17.225C12.2385 17.2625 12.2604 17.3219 12.2604 17.4031V30.2094C12.2604 30.4031 12.1729 30.5 11.9979 30.5H11.9885C11.9135 30.5 11.8541 30.475 11.8104 30.425C11.7666 30.3687 11.7447 30.2969 11.7447 30.2094V17.825L10.3291 18.425C10.2854 18.45 10.2291 18.4625 10.1604 18.4625C10.0479 18.4625 9.97285 18.4062 9.93535 18.2937L9.92598 18.2656L9.90723 18.1812C9.90723 18.1187 9.9291 18.0719 9.97285 18.0406C10.0166 18.0031 10.0697 17.9719 10.1322 17.9469L11.726 17.2531C11.7385 17.2469 11.7729 17.2312 11.8291 17.2062C11.8854 17.1812 11.9416 17.1687 11.9979 17.1687H12.0354ZM15.1654 27.4625C15.1904 27.4375 15.2311 27.425 15.2873 27.425C15.3998 27.425 15.4936 27.5031 15.5686 27.6594C16.0186 28.6156 16.5811 29.275 17.2561 29.6375C17.9373 29.9937 18.6529 30.1719 19.4029 30.1719C20.2404 30.1719 20.9623 29.9656 21.5686 29.5531C22.1748 29.1344 22.6342 28.6156 22.9467 27.9969C23.2592 27.3719 23.4154 26.7531 23.4154 26.1406C23.4154 25.4969 23.2404 24.8562 22.8904 24.2187C22.5467 23.575 22.0686 23.0469 21.4561 22.6344C20.8498 22.2219 20.1748 22.0156 19.4311 22.0156C18.3373 22.0156 17.3904 22.35 16.5904 23.0187C16.4592 23.125 16.3529 23.2312 16.2717 23.3375C16.1904 23.4437 16.1092 23.5656 16.0279 23.7031C15.9592 23.8156 15.9029 23.8969 15.8592 23.9469C15.8154 23.9906 15.7592 24.0125 15.6904 24.0125H15.6623C15.5123 24.0125 15.4373 23.9187 15.4373 23.7312L15.8686 17.3469C15.8748 17.1906 15.9623 17.1125 16.1311 17.1125H22.6654C22.8592 17.1125 22.9561 17.1937 22.9561 17.3562V17.375C22.9561 17.5375 22.8592 17.6187 22.6654 17.6187H16.3654L15.9717 22.8969C16.3717 22.4406 16.8654 22.1 17.4529 21.875C18.0404 21.65 18.6904 21.5375 19.4029 21.5375C20.2529 21.5375 21.0217 21.7562 21.7092 22.1937C22.3967 22.6312 22.9342 23.2031 23.3217 23.9094C23.7092 24.6156 23.9029 25.3594 23.9029 26.1406C23.9029 26.9719 23.6998 27.7344 23.2936 28.4281C22.8873 29.1219 22.3342 29.6719 21.6342 30.0781C20.9342 30.4844 20.1561 30.6875 19.2998 30.6875C18.3436 30.6875 17.4967 30.4344 16.7592 29.9281C16.0279 29.4156 15.4686 28.7375 15.0811 27.8937C15.0436 27.8562 15.0248 27.7906 15.0248 27.6969C15.0248 27.6094 15.0623 27.5375 15.1373 27.4812L15.1654 27.4625ZM25.5518 20.225C25.5518 19.5375 25.7205 18.9031 26.058 18.3219C26.3955 17.7344 26.8486 17.2687 27.4174 16.925C27.9924 16.5812 28.6205 16.4094 29.3018 16.4094C29.9893 16.4094 30.6268 16.5812 31.2143 16.925C31.808 17.2687 32.2768 17.7344 32.6205 18.3219C32.9705 18.9031 33.1455 19.5375 33.1455 20.225C33.1455 20.9062 32.9705 21.5375 32.6205 22.1187C32.2768 22.6937 31.808 23.1531 31.2143 23.4969C30.6268 23.8344 29.9893 24.0031 29.3018 24.0031C28.6205 24.0031 27.9924 23.8344 27.4174 23.4969C26.8486 23.1531 26.3955 22.6937 26.058 22.1187C25.7205 21.5375 25.5518 20.9062 25.5518 20.225ZM26.0674 20.225C26.0674 20.8187 26.2111 21.3656 26.4986 21.8656C26.7924 22.3656 27.1861 22.7625 27.6799 23.0562C28.1736 23.35 28.7143 23.4969 29.3018 23.4969C29.9018 23.4969 30.4549 23.35 30.9611 23.0562C31.4736 22.7625 31.8768 22.3656 32.1705 21.8656C32.4705 21.3594 32.6205 20.8125 32.6205 20.225C32.6205 19.6375 32.4705 19.0906 32.1705 18.5844C31.8705 18.0781 31.4674 17.6781 30.9611 17.3844C30.4549 17.0844 29.9018 16.9344 29.3018 16.9344C28.7143 16.9344 28.1736 17.0844 27.6799 17.3844C27.1861 17.6781 26.7924 18.0781 26.4986 18.5844C26.2111 19.0844 26.0674 19.6312 26.0674 20.225ZM36.2768 17.2812C36.3393 17.2 36.408 17.1594 36.483 17.1594H36.4924C36.5799 17.1594 36.6424 17.1844 36.6799 17.2344C36.7236 17.2781 36.7455 17.3312 36.7455 17.3937C36.7455 17.4375 36.7299 17.4844 36.6986 17.5344L29.7236 30.4062C29.6674 30.4687 29.6018 30.5 29.5268 30.5H29.5174C29.4424 30.4875 29.383 30.4594 29.3393 30.4156C29.3018 30.3656 29.283 30.3094 29.283 30.2469C29.283 30.1844 29.2986 30.1312 29.3299 30.0875L36.2768 17.2812ZM34.0361 27.1719C34.0361 26.4844 34.2049 25.85 34.5424 25.2687C34.8799 24.6812 35.333 24.2156 35.9018 23.8719C36.4768 23.5281 37.1049 23.3562 37.7861 23.3562C38.4736 23.3562 39.1111 23.5281 39.6986 23.8719C40.2924 24.2156 40.7611 24.6812 41.1049 25.2687C41.4549 25.85 41.6299 26.4844 41.6299 27.1719C41.6299 27.8531 41.4549 28.4844 41.1049 29.0656C40.7611 29.6406 40.2924 30.1 39.6986 30.4437C39.1111 30.7813 38.4736 30.95 37.7861 30.95C37.1049 30.95 36.4768 30.7813 35.9018 30.4437C35.333 30.1 34.8799 29.6406 34.5424 29.0656C34.2049 28.4844 34.0361 27.8531 34.0361 27.1719ZM34.5518 27.1719C34.5518 27.7656 34.6955 28.3125 34.983 28.8125C35.2768 29.3125 35.6705 29.7094 36.1643 30.0031C36.658 30.2969 37.1986 30.4437 37.7861 30.4437C38.3861 30.4437 38.9393 30.2969 39.4455 30.0031C39.958 29.7094 40.3611 29.3125 40.6549 28.8125C40.9549 28.3062 41.1049 27.7594 41.1049 27.1719C41.1049 26.5844 40.9549 26.0375 40.6549 25.5312C40.3549 25.025 39.9518 24.625 39.4455 24.3312C38.9393 24.0312 38.3861 23.8812 37.7861 23.8812C37.1986 23.8812 36.658 24.0312 36.1643 24.3312C35.6705 24.625 35.2768 25.025 34.983 25.5312C34.6955 26.0312 34.5518 26.5781 34.5518 27.1719Z" fill="black"/>
</svg>
